<svg width="48" height="48" viewBox="0 0 48 48" fill="none" xmlns="http://www.w3.org/2000/svg">
<mask id="mask0_123_916" style="mask-type:alpha" maskUnits="userSpaceOnUse" x="0" y="0" width="48" height="48">
<rect width="48" height="48" fill="#D9D9D9"/>
</mask>
<g mask="url(#mask0_123_916)">
<path d="M14.0661 26.6655L17.7736 17.069H9.70056L7.09306 20.9H6.03906L7.63156 15.327L6.03906 9.7655H7.09306L9.70056 13.596H17.7736L14.0661 4H15.6046L22.3696 13.596H28.8931C29.3877 13.596 29.8082 13.7672 30.1546 14.1095C30.5006 14.4518 30.6736 14.8577 30.6736 15.327C30.6736 15.8217 30.5006 16.2357 30.1546 16.569C29.8082 16.9023 29.3877 17.069 28.8931 17.069H22.3696L15.6046 26.6655H14.0661ZM32.4851 44L25.6816 34.3655H19.1581C18.6891 34.3655 18.2814 34.1988 17.9351 33.8655C17.5891 33.5322 17.4161 33.118 17.4161 32.623C17.4161 32.1537 17.5891 31.748 17.9351 31.406C18.2814 31.0637 18.6891 30.8925 19.1581 30.8925H25.6816L32.4851 21.3345H34.0236L30.2661 30.8925H38.3506L40.9581 27.1H42.0006L40.4081 32.623L42.0006 38.2345H40.9581L38.3506 34.3655H30.2661L34.0236 44H32.4851Z" fill="#F5F5F5"/>
</g>
</svg>
