<svg width="48" height="48" viewBox="0 0 48 48" fill="none" xmlns="http://www.w3.org/2000/svg">
<mask id="mask0_123_913" style="mask-type:alpha" maskUnits="userSpaceOnUse" x="0" y="0" width="48" height="48">
<rect width="48" height="48" fill="#D9D9D9"/>
</mask>
<g mask="url(#mask0_123_913)">
<path d="M14.8455 12.6925C13.9815 12.6925 13.2418 12.3847 12.6265 11.769C12.0111 11.1537 11.7035 10.414 11.7035 9.55002C11.7035 8.68602 12.0111 7.94236 12.6265 7.31902C13.2418 6.69602 13.9815 6.38452 14.8455 6.38452C15.7098 6.38452 16.4535 6.69602 17.0765 7.31902C17.6995 7.94236 18.011 8.68602 18.011 9.55002C18.011 10.414 17.6995 11.1537 17.0765 11.769C16.4535 12.3847 15.7098 12.6925 14.8455 12.6925ZM27.9265 37.5385H15.492C14.702 37.5385 13.9986 37.2872 13.382 36.7845C12.7653 36.2822 12.3865 35.636 12.2455 34.846L7.98047 13.404H9.55347L13.711 34.769C13.788 35.077 13.9675 35.3592 14.2495 35.6155C14.5315 35.8719 14.8391 36 15.1725 36H27.9265V37.5385ZM38.542 42.769L33.411 33.8655H18.134C17.447 33.8655 16.8515 33.6667 16.3475 33.269C15.8438 32.8717 15.5215 32.359 15.3805 31.731L12.9535 19.7155C12.7048 18.3615 13.0176 17.2147 13.892 16.275C14.7663 15.3354 15.8111 14.8655 17.0265 14.8655C17.9625 14.8655 18.7958 15.1572 19.5265 15.7405C20.2571 16.3239 20.7263 17.0924 20.934 18.046L23.4265 30.3155H31.6495C32.1368 30.3155 32.592 30.4579 33.015 30.7425C33.438 31.0269 33.7776 31.4012 34.034 31.8655L39.884 42L38.542 42.769Z" fill="#F5F5F5"/>
</g>
</svg>
