<svg width="48" height="48" viewBox="0 0 48 48" fill="none" xmlns="http://www.w3.org/2000/svg">
<mask id="mask0_122_227" style="mask-type:alpha" maskUnits="userSpaceOnUse" x="0" y="0" width="48" height="48">
<rect width="48" height="48" fill="#D9D9D9"/>
</mask>
<g mask="url(#mask0_122_227)">
<path d="M25.3072 14.6155V12.098C25.3072 11.3643 25.5577 10.7543 26.0587 10.268C26.5594 9.78162 27.1622 9.53845 27.8672 9.53845H30.3842V12.056C30.3842 12.7606 30.1411 13.3633 29.6547 13.864C29.1684 14.365 28.5584 14.6155 27.8247 14.6155H25.3072ZM14.1387 24.6155C12.9017 24.6155 11.8386 24.1708 10.9492 23.2815C10.0599 22.3918 9.61523 21.3285 9.61523 20.0915V15.5385H14.1682C15.4052 15.5385 16.4684 15.9831 17.3577 16.8725C18.2474 17.7618 18.6922 18.825 18.6922 20.062V24.6155H14.1387ZM31.9997 41.5C30.7601 41.5 29.5809 41.287 28.4622 40.861C27.3436 40.4349 26.3381 39.8493 25.4457 39.104L22.5497 42.0385C22.4037 42.1845 22.2287 42.2575 22.0247 42.2575C21.8207 42.2575 21.6329 42.1845 21.4612 42.0385C21.3152 41.8668 21.2422 41.679 21.2422 41.475C21.2422 41.271 21.3152 41.096 21.4612 40.95L24.3957 38.054C23.6504 37.1593 23.0647 36.1513 22.6387 35.03C22.2127 33.9086 21.9997 32.732 21.9997 31.5C21.9997 28.7306 22.9719 26.3696 24.9162 24.417C26.8609 22.4646 29.2221 21.4885 31.9997 21.4885H41.9727V31.5C41.9727 34.2693 41.0002 36.6283 39.0552 38.577C37.1102 40.5256 34.7584 41.5 31.9997 41.5ZM31.9997 39.9615C34.3627 39.9615 36.3554 39.1318 37.9777 37.4725C39.6001 35.8131 40.4112 33.8185 40.4112 31.4885V23.0385H32.0277C29.6817 23.0385 27.6804 23.8526 26.0237 25.481C24.3667 27.1093 23.5382 29.1156 23.5382 31.5C23.5382 32.5336 23.7139 33.5075 24.0652 34.4215C24.4166 35.3355 24.8972 36.1758 25.5072 36.9424L31.4612 30.95C31.6329 30.7783 31.8144 30.6925 32.0057 30.6925C32.1967 30.6925 32.3781 30.7783 32.5497 30.95C32.7214 31.1216 32.8072 31.303 32.8072 31.494C32.8072 31.6853 32.7214 31.8668 32.5497 32.0385L26.5572 37.9925C27.3239 38.6025 28.1612 39.0831 29.0692 39.4345C29.9772 39.7858 30.9541 39.9615 31.9997 39.9615Z" fill="#F5F5F5"/>
</g>
</svg>
