<svg width="48" height="48" viewBox="0 0 48 48" fill="none" xmlns="http://www.w3.org/2000/svg">
<mask id="mask0_123_616" style="mask-type:alpha" maskUnits="userSpaceOnUse" x="0" y="0" width="48" height="48">
<rect width="48" height="48" fill="#D9D9D9"/>
</mask>
<g mask="url(#mask0_123_616)">
<path d="M16.2385 41.927L14.8345 41.3155L17.796 34.181C14.3603 33.6117 11.5353 32.0062 9.321 29.3645C7.107 26.7228 6 23.6498 6 20.1455V12.496C6 10.7073 6.64133 9.1775 7.924 7.9065C9.207 6.6355 10.7348 6 12.5075 6C12.9715 6 13.3997 6.03467 13.792 6.104C14.1847 6.173 14.5835 6.29867 14.9885 6.481L24.6885 10.5615L19.004 12.723V16.9845L40.8845 31.654L42.0385 38H39.5385L38.1 34.377H26.6385V42H25.1V34.377H19.396L16.2385 41.927ZM20.131 32.8385H39.923L33.5655 28.6H19.726C17.704 28.6 15.9453 27.8883 14.45 26.465C12.955 25.0417 12.2075 23.3175 12.2075 21.2925H13.746C13.746 22.9052 14.3273 24.2698 15.49 25.3865C16.6523 26.5032 18.071 27.0615 19.746 27.0615H31.25L17.4655 17.827V12.496C17.4655 11.1073 16.9887 9.934 16.035 8.976C15.0817 8.01767 13.8983 7.5385 12.485 7.5385C11.1233 7.5385 9.9585 8.01233 8.9905 8.96C8.0225 9.90733 7.5385 11.086 7.5385 12.496V20.169C7.5385 23.6883 8.76267 26.6798 11.211 29.1435C13.6597 31.6068 16.633 32.8385 20.131 32.8385ZM12.518 13.727C12.192 13.727 11.9037 13.602 11.653 13.352C11.4023 13.1023 11.277 12.8082 11.277 12.4695C11.277 12.1308 11.4018 11.8473 11.6515 11.619C11.9015 11.391 12.1958 11.277 12.5345 11.277C12.8732 11.277 13.1565 11.388 13.3845 11.61C13.6128 11.8323 13.727 12.1243 13.727 12.486C13.727 12.812 13.6158 13.1003 13.3935 13.351C13.1715 13.6017 12.8797 13.727 12.518 13.727Z" fill="#F5F5F5"/>
</g>
</svg>
