<svg width="48" height="48" viewBox="0 0 48 48" fill="none" xmlns="http://www.w3.org/2000/svg">
<mask id="mask0_123_925" style="mask-type:alpha" maskUnits="userSpaceOnUse" x="0" y="0" width="48" height="48">
<rect width="48" height="48" fill="#D9D9D9"/>
</mask>
<g mask="url(#mask0_123_925)">
<path d="M8.1425 26.0001L20.769 7.71562V26.0001H8.1425ZM11.046 24.4616H19.231V12.5731L11.046 24.4616ZM26.7 26.0001C27.154 24.5128 27.5227 22.7865 27.806 20.8211C28.0893 18.8558 28.231 16.8385 28.231 14.7691C28.231 12.5438 28.0893 10.492 27.806 8.61362C27.5227 6.73529 27.1668 5.02562 26.7385 3.48462C28.4335 4.39995 30.0783 5.61728 31.673 7.13662C33.268 8.65595 34.7013 10.3913 35.973 12.3426C37.245 14.2936 38.3053 16.4288 39.154 18.7481C40.0027 21.0675 40.5283 23.4848 40.731 26.0001H26.7ZM28.681 24.4616H39.0075C38.5178 21.0233 37.3865 17.7553 35.6135 14.6576C33.8405 11.5603 31.6565 8.97445 29.0615 6.90012C29.3052 8.23345 29.484 9.58862 29.598 10.9656C29.712 12.3426 29.769 13.6105 29.769 14.7691C29.769 16.2771 29.6607 17.8951 29.444 19.6231C29.2273 21.3515 28.973 22.9643 28.681 24.4616ZM18 38.3156C16.9693 38.3156 15.9437 38.1163 14.923 37.7176C13.9027 37.3186 12.9283 36.6653 12 35.7576C11.6873 36.0706 11.3148 36.388 10.8825 36.7096C10.4505 37.0316 10.0627 37.258 9.719 37.3886C8.75233 36.7116 7.8845 35.8456 7.1155 34.7906C6.34617 33.7353 5.764 32.6256 5.369 31.4616H42.631C42.236 32.6256 41.6538 33.7353 40.8845 34.7906C40.1155 35.8456 39.2477 36.7116 38.281 37.3886C37.9373 37.258 37.5495 37.0316 37.1175 36.7096C36.6852 36.388 36.3127 36.0706 36 35.7576C35.0973 36.6653 34.1293 37.3186 33.096 37.7176C32.0627 38.1163 31.0307 38.3156 30 38.3156C28.9693 38.3156 27.9373 38.1163 26.904 37.7176C25.8707 37.3186 24.9027 36.6525 24 35.7191C23.0973 36.6525 22.1293 37.3186 21.096 37.7176C20.0627 38.1163 19.0307 38.3156 18 38.3156ZM5 45.0001V43.4616H6C7.06667 43.4616 8.098 43.2931 9.094 42.9561C10.0903 42.6188 11.059 42.0859 12 41.3576C12.9667 42.0859 13.95 42.6188 14.95 42.9561C15.95 43.2931 16.9667 43.4616 18 43.4616C19.0667 43.4616 20.0917 43.2931 21.075 42.9561C22.0583 42.6188 23.0333 42.0859 24 41.3576C24.9667 42.0859 25.95 42.6188 26.95 42.9561C27.95 43.2931 28.9667 43.4616 30 43.4616C31.0667 43.4616 32.098 43.2931 33.094 42.9561C34.0903 42.6188 35.059 42.0859 36 41.3576C36.9667 42.0859 37.9417 42.6188 38.925 42.9561C39.9083 43.2931 40.9333 43.4616 42 43.4616H43V45.0001H42C41.0847 45.0001 40.1187 44.8648 39.102 44.5941C38.0853 44.3238 37.0513 43.8438 36 43.1541C34.9487 43.8438 33.9147 44.3238 32.898 44.5941C31.8813 44.8648 30.9153 45.0001 30 45.0001C29.0847 45.0001 28.1187 44.8648 27.102 44.5941C26.0853 44.3238 25.0513 43.8438 24 43.1541C22.9487 43.8438 21.9147 44.3238 20.898 44.5941C19.8813 44.8648 18.9153 45.0001 18 45.0001C17.0847 45.0001 16.1187 44.8648 15.102 44.5941C14.0853 44.3238 13.0513 43.8438 12 43.1541C10.9487 43.8438 9.91467 44.3238 8.898 44.5941C7.88133 44.8648 6.91533 45.0001 6 45.0001H5Z" fill="#F5F5F5"/>
</g>
</svg>
