<svg width="48" height="48" viewBox="0 0 48 48" fill="none" xmlns="http://www.w3.org/2000/svg">
<mask id="mask0_124_453" style="mask-type:alpha" maskUnits="userSpaceOnUse" x="0" y="0" width="48" height="48">
<rect width="48" height="48" fill="#D9D9D9"/>
</mask>
<g mask="url(#mask0_124_453)">
<path d="M27.769 18.9541V17.5541C28.8437 17.0104 29.9943 16.6028 31.221 16.3311C32.448 16.0591 33.7077 15.9231 35 15.9231C35.7383 15.9231 36.4473 15.9706 37.127 16.0656C37.8063 16.1603 38.5077 16.2948 39.231 16.4691V17.8231C38.5333 17.6001 37.8532 17.4456 37.1905 17.3596C36.5275 17.2739 35.7973 17.2311 35 17.2311C33.7077 17.2311 32.4462 17.3766 31.2155 17.6676C29.9845 17.9586 28.8357 18.3874 27.769 18.9541ZM27.769 29.8771V28.3886C28.7923 27.8489 29.9367 27.4441 31.202 27.1741C32.4673 26.9041 33.7333 26.7691 35 26.7691C35.7383 26.7691 36.4473 26.8166 37.127 26.9116C37.8063 27.0066 38.5077 27.1413 39.231 27.3156V28.6691C38.5333 28.4461 37.8532 28.2918 37.1905 28.2061C36.5275 28.1201 35.7973 28.0771 35 28.0771C33.7077 28.0771 32.4462 28.2334 31.2155 28.5461C29.9845 28.8591 28.8357 29.3028 27.769 29.8771ZM27.769 24.4541V22.9771C28.8437 22.4334 29.9943 22.0258 31.221 21.7541C32.448 21.4821 33.7077 21.3461 35 21.3461C35.7383 21.3461 36.4473 21.3936 37.127 21.4886C37.8063 21.5836 38.5077 21.7183 39.231 21.8926V23.2461C38.5333 23.0231 37.8532 22.8686 37.1905 22.7826C36.5275 22.6969 35.7973 22.6541 35 22.6541C33.7077 22.6541 32.4462 22.8124 31.2155 23.1291C29.9845 23.4458 28.8357 23.8874 27.769 24.4541ZM12.7075 32.5386C14.5575 32.5386 16.3565 32.7598 18.1045 33.2021C19.8528 33.6444 21.5822 34.3334 23.2925 35.2691V14.8811C21.7925 13.7528 20.118 12.9008 18.269 12.3251C16.4203 11.7494 14.5665 11.4616 12.7075 11.4616C11.4668 11.4616 10.392 11.5494 9.483 11.7251C8.57367 11.9008 7.54083 12.1834 6.3845 12.5731C6.07683 12.6758 5.859 12.8233 5.731 13.0156C5.60267 13.2079 5.5385 13.4194 5.5385 13.6501V32.5811C5.5385 32.9144 5.66667 33.1644 5.923 33.3311C6.17933 33.4978 6.46133 33.5298 6.769 33.4271C7.44367 33.1398 8.29183 32.9199 9.3135 32.7676C10.3352 32.6149 11.4665 32.5386 12.7075 32.5386ZM24.831 35.2691C26.523 34.3334 28.2203 33.6444 29.923 33.2021C31.6257 32.7598 33.4155 32.5386 35.2925 32.5386C36.5335 32.5386 37.6752 32.6129 38.7175 32.7616C39.7598 32.9103 40.5977 33.0873 41.231 33.2926C41.5387 33.4206 41.8207 33.4013 42.077 33.2346C42.3333 33.0679 42.4615 32.8051 42.4615 32.4461V13.6501C42.4615 13.4194 42.3973 13.2143 42.269 13.0346C42.141 12.8553 41.9232 12.7014 41.6155 12.5731C40.5078 12.1604 39.4902 11.8719 38.5625 11.7076C37.6352 11.5436 36.5452 11.4616 35.2925 11.4616C33.4155 11.4616 31.5712 11.7494 29.7595 12.3251C27.9482 12.9008 26.3053 13.7528 24.831 14.8811V35.2691ZM24.0425 37.5386C22.3552 36.4256 20.55 35.5724 18.627 34.9791C16.704 34.3854 14.7308 34.0886 12.7075 34.0886C11.7612 34.0886 10.8317 34.1616 9.919 34.3076C9.00633 34.4539 8.082 34.6668 7.146 34.9461C6.376 35.2614 5.65917 35.1669 4.9955 34.6626C4.33183 34.1579 4 33.4718 4 32.6041V13.7231C4 13.1718 4.14233 12.6634 4.427 12.1981C4.71167 11.7328 5.113 11.3938 5.631 11.1811C6.74867 10.7451 7.90333 10.4264 9.095 10.2251C10.2867 10.0238 11.4908 9.9231 12.7075 9.9231C14.7542 9.9231 16.7377 10.2193 18.658 10.8116C20.5783 11.4039 22.3795 12.2834 24.0615 13.4501C25.7102 12.2834 27.4903 11.4039 29.402 10.8116C31.3133 10.2193 33.2768 9.9231 35.2925 9.9231C36.5065 9.9231 37.708 10.0238 38.897 10.2251C40.0863 10.4264 41.2398 10.7451 42.3575 11.1811C42.8755 11.3888 43.2788 11.7264 43.5675 12.1941C43.8558 12.6621 44 13.1718 44 13.7231V32.6041C44 33.4824 43.6313 34.1643 42.894 34.6496C42.157 35.1346 41.3962 35.2078 40.6115 34.8691C39.7345 34.6078 38.8498 34.4123 37.9575 34.2826C37.0652 34.1533 36.1768 34.0886 35.2925 34.0886C33.2628 34.0886 31.3022 34.3873 29.4105 34.9846C27.5188 35.5823 25.7295 36.4336 24.0425 37.5386Z" fill="#F5F5F5"/>
</g>
</svg>
