<svg width="48" height="48" viewBox="0 0 48 48" fill="none" xmlns="http://www.w3.org/2000/svg">
<mask id="mask0_124_587" style="mask-type:alpha" maskUnits="userSpaceOnUse" x="0" y="0" width="48" height="48">
<rect width="48" height="48" fill="#D9D9D9"/>
</mask>
<g mask="url(#mask0_124_587)">
<path d="M22.6182 6.05C22.8339 6.01667 23.0641 6 23.3087 6H24.7337C24.9824 6 25.2272 6.01667 25.4682 6.05L25.2952 7.5885C25.0799 7.55517 24.8639 7.5385 24.6472 7.5385H23.4202C23.2422 7.5385 23.0622 7.55517 22.8802 7.5885L22.6182 6.05ZM15.0147 8.404C15.4301 8.163 15.8492 7.9495 16.2722 7.7635C16.6952 7.5775 17.1351 7.39733 17.5917 7.223L18.0762 8.677C17.6866 8.818 17.3089 8.96733 16.9432 9.125C16.5779 9.28267 16.2209 9.46917 15.8722 9.6845L15.0147 8.404ZM32.2647 9.7345C31.9161 9.51917 31.5589 9.32633 31.1932 9.156C30.8279 8.98533 30.4504 8.8295 30.0607 8.6885L30.5337 7.223C30.9647 7.39733 31.3981 7.58383 31.8337 7.7825C32.2697 7.9815 32.6954 8.2015 33.1107 8.4425L32.2647 9.7345ZM37.5992 14.6925C37.3582 14.3435 37.1089 14.0197 36.8512 13.721C36.5936 13.4223 36.3366 13.1153 36.0802 12.8L37.1147 11.623C37.4044 11.9717 37.7069 12.337 38.0222 12.719C38.3376 13.1013 38.6324 13.4873 38.9067 13.877L37.5992 14.6925ZM9.13022 13.9C9.37889 13.536 9.65255 13.163 9.95122 12.781C10.2499 12.3987 10.5569 12.0332 10.8722 11.6845L11.9182 12.8115C11.6362 13.1012 11.3729 13.4082 11.1282 13.7325C10.8832 14.0568 10.6531 14.3807 10.4377 14.704L9.13022 13.9ZM6.19922 21.281C6.29155 20.8167 6.38705 20.3435 6.48572 19.8615C6.58439 19.3795 6.71705 18.9232 6.88372 18.4925L8.31072 19.0575C8.19539 19.4475 8.08772 19.8353 7.98772 20.221C7.88772 20.607 7.80439 21.0077 7.73772 21.423L6.19922 21.281ZM40.2722 21.523C40.2312 21.1077 40.1607 20.707 40.0607 20.321C39.9607 19.9353 39.8531 19.5475 39.7377 19.1575L41.2032 18.6425C41.3442 19.0988 41.4621 19.5552 41.5567 20.0115C41.6517 20.4678 41.7454 20.9282 41.8377 21.3925L40.2722 21.523ZM39.7377 28.8925C39.8531 28.5025 39.9544 28.1147 40.0417 27.729C40.1287 27.343 40.2184 26.9423 40.3107 26.527L41.7992 26.669C41.7069 27.1333 41.6132 27.5917 41.5182 28.044C41.4236 28.4967 41.3057 28.9512 41.1647 29.4075L39.7377 28.8925ZM7.73772 26.577C7.80439 26.9923 7.88772 27.393 7.98772 27.779C8.08772 28.1647 8.19539 28.5525 8.31072 28.9425L6.88372 29.496C6.71705 29.0397 6.58439 28.5768 6.48572 28.1075C6.38705 27.6385 6.29155 27.1718 6.19922 26.7075L7.73772 26.577ZM36.1417 35.1C36.4237 34.8103 36.6871 34.5013 36.9317 34.173C37.1767 33.845 37.4197 33.5065 37.6607 33.1575L38.9567 33.973C38.6824 34.3627 38.4024 34.7487 38.1167 35.131C37.8307 35.513 37.5301 35.8655 37.2147 36.1885L36.1417 35.1ZM10.9222 36.327C10.6069 36.004 10.2934 35.6513 9.98172 35.269C9.67039 34.887 9.37372 34.5012 9.09172 34.1115L10.4762 33.346C10.6916 33.6947 10.9301 34.0248 11.1917 34.3365C11.4531 34.6482 11.7119 34.9488 11.9682 35.2385L10.9222 36.327ZM30.1107 39.273C30.5004 39.132 30.8779 38.9743 31.2432 38.8C31.6089 38.6257 31.9661 38.4308 32.3147 38.2155L33.1607 39.5075C32.7454 39.7485 32.3197 39.9685 31.8837 40.1675C31.4481 40.3662 31.0147 40.5527 30.5837 40.727L30.1107 39.273ZM17.5532 40.8155C17.1222 40.6412 16.6972 40.4547 16.2782 40.256C15.8589 40.057 15.4416 39.837 15.0262 39.596L15.8722 38.3155C16.2209 38.5232 16.5716 38.7142 16.9242 38.8885C17.2769 39.0628 17.6481 39.2205 18.0377 39.3615L17.5532 40.8155ZM23.3087 42C23.0641 42 22.8339 41.9833 22.6182 41.95L22.8802 40.4115C23.1289 40.4448 23.5019 40.4615 23.9992 40.4615H24.6472C24.8639 40.4615 25.0799 40.4448 25.2952 40.4115L25.4682 41.95C25.2272 41.9833 24.9824 42 24.7337 42H23.3087ZM25.9992 34.769C24.9866 34.769 24.0609 34.4703 23.2222 33.873C22.3839 33.2757 21.8071 32.4743 21.4917 31.469C21.3584 31.059 21.1994 30.6783 21.0147 30.327C20.8301 29.9757 20.5916 29.6538 20.2992 29.3615L17.5992 26.65C16.8429 25.868 16.2589 24.9968 15.8472 24.0365C15.4359 23.0762 15.2302 22.064 15.2302 21C15.2302 18.8127 15.9866 16.971 17.4992 15.475C19.0119 13.979 20.8452 13.231 22.9992 13.231C24.9866 13.231 26.7116 13.8668 28.1742 15.1385C29.6369 16.4102 30.4849 17.9973 30.7182 19.9H29.1682C28.9016 18.395 28.1914 17.1637 27.0377 16.206C25.8837 15.248 24.5376 14.769 22.9992 14.769C21.2942 14.769 19.8296 15.373 18.6052 16.581C17.3806 17.7887 16.7682 19.2617 16.7682 21C16.7682 21.8437 16.9356 22.6583 17.2702 23.444C17.6049 24.23 18.0812 24.932 18.6992 25.55L21.3992 28.25C21.7812 28.632 22.0927 29.0622 22.3337 29.5405C22.5747 30.0185 22.7824 30.5153 22.9567 31.031C23.1747 31.659 23.5646 32.1827 24.1262 32.602C24.6876 33.0213 25.3119 33.231 25.9992 33.231C26.9042 33.231 27.6689 32.9103 28.2932 32.269C28.9179 31.628 29.2302 30.8717 29.2302 30H30.7682C30.7682 31.295 30.3056 32.4137 29.3802 33.356C28.4546 34.298 27.3276 34.769 25.9992 34.769ZM26.9992 26.769C26.5376 26.769 26.1272 26.5897 25.7682 26.231C25.4096 25.872 25.2302 25.4617 25.2302 25C25.2302 24.505 25.4096 24.0863 25.7682 23.744C26.1272 23.402 26.5376 23.231 26.9992 23.231C27.4942 23.231 27.9129 23.402 28.2552 23.744C28.5972 24.0863 28.7682 24.505 28.7682 25C28.7682 25.4617 28.5972 25.872 28.2552 26.231C27.9129 26.5897 27.4942 26.769 26.9992 26.769Z" fill="#F5F5F5"/>
</g>
</svg>
