<svg width="48" height="48" viewBox="0 0 48 48" fill="none" xmlns="http://www.w3.org/2000/svg">
<mask id="mask0_124_434" style="mask-type:alpha" maskUnits="userSpaceOnUse" x="0" y="0" width="48" height="48">
<rect width="48" height="48" fill="#D9D9D9"/>
</mask>
<g mask="url(#mask0_124_434)">
<path d="M28.753 40C27.551 40 26.5448 39.5888 25.7345 38.7665C24.9242 37.9438 24.519 36.945 24.519 35.77C24.519 34.595 24.9232 33.596 25.7315 32.773C26.5395 31.95 27.5382 31.5385 28.7275 31.5385C29.9168 31.5385 30.923 31.9497 31.746 32.772C32.5693 33.5947 32.981 34.5935 32.981 35.7685C32.981 36.9435 32.5698 37.9425 31.7475 38.7655C30.9255 39.5885 29.9273 40 28.753 40ZM28.722 38.4615C29.4663 38.4615 30.1058 38.1973 30.6405 37.669C31.1752 37.1407 31.4425 36.5105 31.4425 35.7785C31.4425 35.0468 31.1782 34.4137 30.6495 33.879C30.1212 33.3443 29.491 33.077 28.759 33.077C28.0017 33.077 27.3622 33.3412 26.8405 33.8695C26.3185 34.3978 26.0575 35.028 26.0575 35.76C26.0575 36.4917 26.3155 37.1248 26.8315 37.6595C27.3475 38.1942 27.9777 38.4615 28.722 38.4615ZM33.1315 25.769C30.6292 25.769 28.5202 24.9118 26.8045 23.1975C25.0888 21.4832 24.231 19.3775 24.231 16.8805C24.231 14.3832 25.0882 12.2788 26.8025 10.5675C28.5168 8.85583 30.6225 8 33.1195 8C35.6168 8 37.7212 8.85517 39.4325 10.5655C41.1442 12.2758 42 14.3768 42 16.8685C42 19.3708 41.1448 21.4798 39.4345 23.1955C37.7242 24.9112 35.6232 25.769 33.1315 25.769ZM33.1235 24.231C35.1788 24.231 36.9157 23.5218 38.334 22.1035C39.7523 20.6852 40.4615 18.9428 40.4615 16.8765C40.4615 14.8212 39.7545 13.0843 38.3405 11.666C36.9262 10.2477 35.1888 9.5385 33.1285 9.5385C31.0685 9.5385 29.327 10.2455 27.904 11.6595C26.4807 13.0738 25.769 14.8112 25.769 16.8715C25.769 18.9315 26.4782 20.673 27.8965 22.096C29.3148 23.5193 31.0572 24.231 33.1235 24.231ZM14.346 34.5345C12.5897 34.5345 11.093 33.916 9.856 32.679C8.61867 31.4417 8 29.9448 8 28.1885C8 26.4322 8.61867 24.9353 9.856 23.698C11.093 22.461 12.5897 21.8425 14.346 21.8425C16.1027 21.8425 17.5995 22.461 18.8365 23.698C20.0738 24.9353 20.6925 26.4322 20.6925 28.1885C20.6925 29.9448 20.0738 31.4417 18.8365 32.679C17.5995 33.916 16.1027 34.5345 14.346 34.5345ZM14.341 32.996C15.683 32.996 16.8207 32.5312 17.754 31.6015C18.6873 30.6715 19.154 29.5355 19.154 28.1935C19.154 26.8518 18.689 25.7143 17.759 24.781C16.8293 23.8477 15.6935 23.381 14.3515 23.381C13.0095 23.381 11.8718 23.8458 10.9385 24.7755C10.0052 25.7052 9.5385 26.841 9.5385 28.183C9.5385 29.525 10.0033 30.6627 10.933 31.596C11.863 32.5293 12.999 32.996 14.341 32.996Z" fill="#F5F5F5"/>
</g>
</svg>
