<svg width="48" height="48" viewBox="0 0 48 48" fill="none" xmlns="http://www.w3.org/2000/svg">
<mask id="mask0_123_806" style="mask-type:alpha" maskUnits="userSpaceOnUse" x="0" y="0" width="48" height="48">
<rect width="48" height="48" fill="#D9D9D9"/>
</mask>
<g mask="url(#mask0_123_806)">
<path d="M10 40V38.4615H38V40H10ZM16.05 32.923C14.348 32.923 12.9142 32.3583 11.7485 31.229C10.5828 30.0993 10 28.7153 10 27.077V8H39.077C39.8807 8 40.5688 8.2745 41.1415 8.8235C41.7138 9.3725 42 10.0338 42 10.8075V16.1925C42 16.9662 41.7138 17.6275 41.1415 18.1765C40.5688 18.7255 39.8807 19 39.077 19H34.7V27.077C34.7 28.7153 34.1172 30.0993 32.9515 31.229C31.7858 32.3583 30.352 32.923 28.65 32.923H16.05ZM16.05 31.3845H28.651C29.873 31.3845 30.9303 30.9557 31.823 30.098C32.7153 29.24 33.1615 28.2278 33.1615 27.0615V9.5385H11.5385V27.076C11.5385 28.2433 11.9867 29.2533 12.883 30.106C13.7793 30.9583 14.835 31.3845 16.05 31.3845ZM34.7 17.4615H39.077C39.4617 17.4615 39.7885 17.3397 40.0575 17.096C40.3268 16.8527 40.4615 16.5515 40.4615 16.1925V10.8075C40.4615 10.4485 40.3268 10.1473 40.0575 9.904C39.7885 9.66033 39.4617 9.5385 39.077 9.5385H34.7V17.4615ZM16.05 31.3845H11.5385H33.1615H16.05Z" fill="#F5F5F5"/>
</g>
</svg>
