<svg width="48" height="48" viewBox="0 0 48 48" fill="none" xmlns="http://www.w3.org/2000/svg">
<path d="M6 32.766L19.3043 36.5478M28.6957 39.2181L42 43M6 43L42 32.766M24 32.766C18.8129 32.766 14.6087 29.3809 14.6087 24.2245V23.8434C14.6087 22.7777 14.8197 21.7227 15.2292 20.7398C15.6388 19.757 16.2387 18.8659 16.9941 18.1187L20.9009 14.2345C22.8856 12.2617 24 8.78996 24 6C24 8.78996 25.1144 12.2617 27.0991 14.2345L31.0059 18.1187C31.7613 18.8659 32.3612 19.757 32.7708 20.7398C33.1803 21.7227 33.3913 22.7777 33.3913 23.8434V24.2245C33.3913 29.3809 29.1856 32.766 24 32.766ZM24 32.766C21.8384 32.766 20.087 31.3269 20.087 29.2045C20.087 28.3212 20.4454 27.3624 21.0809 26.7373L22.7087 25.1392C23.5351 24.3268 24 22.8988 24 21.751C24 22.9003 24.4649 24.3268 25.2913 25.1392L26.9191 26.7373C27.5562 27.3624 27.913 28.3212 27.913 29.2045C27.913 31.3269 26.16 32.766 24 32.766Z" stroke="#F5F5F5" stroke-width="1.5" stroke-linecap="round" stroke-linejoin="round"/>
</svg>
