<svg width="48" height="48" viewBox="0 0 48 48" fill="none" xmlns="http://www.w3.org/2000/svg">
<mask id="mask0_123_928" style="mask-type:alpha" maskUnits="userSpaceOnUse" x="0" y="0" width="48" height="48">
<rect width="48" height="48" fill="#D9D9D9"/>
</mask>
<g mask="url(#mask0_123_928)">
<path d="M9.5385 35.9155V39.231C9.5385 39.4487 9.46483 39.6313 9.3175 39.779C9.16983 39.9263 8.987 40 8.769 40C8.55133 40 8.36867 39.9263 8.221 39.779C8.07367 39.6313 8 39.4487 8 39.231V24.454L11.981 12.769C12.0707 12.5333 12.2263 12.3462 12.448 12.2075C12.67 12.0692 12.9103 12 13.169 12H34.9845C35.2322 12 35.4448 12.0663 35.6225 12.199C35.7998 12.3317 35.932 12.5217 36.019 12.769L40 24.454V39.231C40 39.4487 39.9263 39.6313 39.779 39.779C39.6313 39.9263 39.4487 40 39.231 40H39.219C38.982 40 38.7965 39.9263 38.6625 39.779C38.5285 39.6313 38.4615 39.4487 38.4615 39.231V35.9155H9.5385ZM10.15 22.9155H37.85L34.6 13.5385H13.4L10.15 22.9155ZM14.5215 31.531C15.1148 31.531 15.6122 31.3232 16.0135 30.9075C16.4148 30.4918 16.6155 29.9953 16.6155 29.418C16.6155 28.813 16.4077 28.3087 15.992 27.905C15.5763 27.5017 15.084 27.3 14.515 27.3C13.9183 27.3 13.414 27.5035 13.002 27.9105C12.5903 28.3178 12.3845 28.8223 12.3845 29.424C12.3845 30.026 12.5923 30.5277 13.008 30.929C13.4233 31.3303 13.9278 31.531 14.5215 31.531ZM33.524 31.531C34.113 31.531 34.6108 31.3232 35.0175 30.9075C35.4238 30.4918 35.627 29.9953 35.627 29.418C35.627 28.813 35.4218 28.3087 35.0115 27.905C34.6015 27.5017 34.1035 27.3 33.5175 27.3C32.9315 27.3 32.4315 27.5035 32.0175 27.9105C31.6032 28.3178 31.396 28.8223 31.396 29.424C31.396 30.026 31.6103 30.5277 32.039 30.929C32.4673 31.3303 32.9623 31.531 33.524 31.531ZM9.5385 34.377H38.4615V24.454H9.5385V34.377Z" fill="#F5F5F5"/>
</g>
</svg>
