<svg width="48" height="48" viewBox="0 0 48 48" fill="none" xmlns="http://www.w3.org/2000/svg">
<path d="M41.3606 6.92629C40.95 6.75175 40.4964 6.70509 40.0588 6.7924C39.6213 6.8797 39.2203 7.09691 38.9081 7.41566L38.8725 7.45316L35.2069 11.67C31.8941 9.44201 27.9923 8.252 24 8.252C20.0077 8.252 16.1059 9.44201 12.7931 11.67L9.1275 7.45316L9.09188 7.41566C8.77765 7.10109 8.37727 6.88666 7.94128 6.79946C7.50528 6.71226 7.05323 6.75619 6.64218 6.9257C6.23114 7.09521 5.87953 7.38271 5.63175 7.7519C5.38397 8.12109 5.25113 8.55541 5.25 9.00004V25.5C5.25 35.01 13.6613 42.75 24 42.75C34.3387 42.75 42.75 35.0119 42.75 25.5V9.00004C42.7535 8.55482 42.6229 8.11885 42.375 7.74896C42.1272 7.37907 41.7737 7.09239 41.3606 6.92629ZM41.25 25.5C41.25 33.9544 33.915 40.875 24.75 41.2332V36.3113L27.5306 33.5307C27.6031 33.4617 27.6611 33.3788 27.7011 33.287C27.7411 33.1953 27.7623 33.0964 27.7635 32.9963C27.7647 32.8962 27.7458 32.7969 27.708 32.7042C27.6702 32.6115 27.6143 32.5273 27.5434 32.4566C27.4726 32.3859 27.3883 32.33 27.2955 32.2924C27.2028 32.2548 27.1034 32.2361 27.0033 32.2375C26.9032 32.2388 26.8044 32.2602 26.7127 32.3004C26.621 32.3405 26.5383 32.3987 26.4694 32.4713L24 34.9407L21.5306 32.4713C21.4617 32.3987 21.379 32.3405 21.2873 32.3004C21.1956 32.2602 21.0968 32.2388 20.9967 32.2375C20.8966 32.2361 20.7972 32.2548 20.7045 32.2924C20.6117 32.33 20.5274 32.3859 20.4566 32.4566C20.3857 32.5273 20.3298 32.6115 20.292 32.7042C20.2542 32.7969 20.2353 32.8962 20.2365 32.9963C20.2377 33.0964 20.2589 33.1953 20.2989 33.287C20.3389 33.3788 20.3969 33.4617 20.4694 33.5307L23.25 36.3113V41.235C14.085 40.875 6.75 33.9563 6.75 25.5V9.00004C6.74806 8.85115 6.79128 8.70517 6.87395 8.58133C6.95662 8.45748 7.07488 8.36159 7.21313 8.30629C7.30863 8.2684 7.41038 8.24869 7.51312 8.24817C7.60603 8.24796 7.69807 8.26607 7.78397 8.30146C7.86987 8.33685 7.94795 8.38882 8.01375 8.45441L12.1088 13.1682C12.2326 13.3107 12.4057 13.4012 12.5933 13.4217C12.781 13.4422 12.9695 13.3912 13.1213 13.2788C14.39 12.3425 15.7786 11.5807 17.25 11.0138V16.5C17.25 16.699 17.329 16.8897 17.4697 17.0304C17.6103 17.171 17.8011 17.25 18 17.25C18.1989 17.25 18.3897 17.171 18.5303 17.0304C18.671 16.8897 18.75 16.699 18.75 16.5V10.5C20.2144 10.0723 21.7256 9.8248 23.25 9.76316V16.5C23.25 16.699 23.329 16.8897 23.4697 17.0304C23.6103 17.171 23.8011 17.25 24 17.25C24.1989 17.25 24.3897 17.171 24.5303 17.0304C24.671 16.8897 24.75 16.699 24.75 16.5V9.76691C26.2742 9.82733 27.7854 10.0735 29.25 10.5V16.5C29.25 16.699 29.329 16.8897 29.4697 17.0304C29.6103 17.171 29.8011 17.25 30 17.25C30.1989 17.25 30.3897 17.171 30.5303 17.0304C30.671 16.8897 30.75 16.699 30.75 16.5V11.0138C32.2201 11.581 33.6074 12.3428 34.875 13.2788C35.0267 13.3912 35.2152 13.4422 35.4029 13.4217C35.5906 13.4012 35.7636 13.3107 35.8875 13.1682L39.9825 8.46004C40.0886 8.35891 40.222 8.29107 40.3662 8.26493C40.5104 8.23878 40.6591 8.25545 40.794 8.3129C40.9288 8.37035 41.0439 8.46604 41.1249 8.58816C41.206 8.71028 41.2494 8.85347 41.25 9.00004V25.5ZM17.25 26.25C17.25 26.5467 17.162 26.8367 16.9972 27.0834C16.8324 27.3301 16.5981 27.5223 16.324 27.6359C16.0499 27.7494 15.7483 27.7791 15.4574 27.7212C15.1664 27.6633 14.8991 27.5205 14.6893 27.3107C14.4796 27.1009 14.3367 26.8336 14.2788 26.5427C14.2209 26.2517 14.2506 25.9501 14.3642 25.676C14.4777 25.4019 14.67 25.1677 14.9166 25.0028C15.1633 24.838 15.4533 24.75 15.75 24.75C16.1478 24.75 16.5294 24.9081 16.8107 25.1894C17.092 25.4707 17.25 25.8522 17.25 26.25ZM33.75 26.25C33.75 26.5467 33.662 26.8367 33.4972 27.0834C33.3324 27.3301 33.0981 27.5223 32.824 27.6359C32.5499 27.7494 32.2483 27.7791 31.9574 27.7212C31.6664 27.6633 31.3991 27.5205 31.1893 27.3107C30.9796 27.1009 30.8367 26.8336 30.7788 26.5427C30.7209 26.2517 30.7506 25.9501 30.8642 25.676C30.9777 25.4019 31.17 25.1677 31.4166 25.0028C31.6633 24.838 31.9533 24.75 32.25 24.75C32.6478 24.75 33.0294 24.9081 33.3107 25.1894C33.592 25.4707 33.75 25.8522 33.75 26.25Z" fill="#F5F5F5"/>
</svg>
