<svg width="48" height="48" viewBox="0 0 48 48" fill="none" xmlns="http://www.w3.org/2000/svg">
<path d="M42.7273 19.4909C43.1423 21.1365 42.8773 23.7864 41.9384 25.8265L41.3225 29.7251L39.4276 35.5174C39.2267 36.1333 38.6653 36.5483 38.036 36.5483H37.84C36.8405 36.5483 36.1327 35.5428 36.4425 34.5639L37.6718 29.2847C37.6718 29.2847 34.5464 23.4972 35.4043 20.8147M20.9458 18.4358L22.1025 24.5995L20.1846 36.0268C20.1442 36.3813 19.9779 36.7095 19.7158 36.9515C19.4537 37.1936 19.1134 37.3335 18.7568 37.3457L18.5245 37.3506C17.5166 37.3723 16.7869 36.3705 17.0943 35.3819C17.7186 33.3684 17.8372 30.1147 16.9116 27.8932C15.8552 25.357 16.3428 24.1482 16.3428 24.1482" stroke="#F5F5F5" stroke-width="1.21001" stroke-linecap="round" stroke-linejoin="round"/>
<path d="M24.4942 27.9831C24.4942 27.9831 33.6419 28.9753 36.1249 26.8953M46.7682 27.8935C46.7682 27.8935 45.1286 25.1238 45.8317 20.9082C46.7355 13.0117 39.3895 11.8864 40.9553 12.2603L40.6988 12.1611L23.1559 11.7206C22.4517 11.7029 21.7499 11.7319 21.0505 11.8078L15.067 12.4587M41.8955 26.0846L44.2792 28.9825L44.2308 35.2891C44.2308 35.9848 43.6839 36.5475 43.0087 36.5475H42.7606M3.35156 11.1882C4.85682 13.1061 6.3633 13.1061 6.3633 13.1061" stroke="#F5F5F5" stroke-width="1.21001" stroke-linecap="round" stroke-linejoin="round"/>
<path d="M11.8127 10C12.8848 12.1478 10.4974 13.2501 10.4974 13.2501C10.4974 13.2501 8.44282 10.3945 6.36522 13.1061L4.80551 14.9937C4.80551 14.9937 3.20828 17.617 2.09144 19.1198C1.78046 19.5397 2.3407 20.9529 2.60933 21.4006C3.10906 22.2355 6.65683 22.751 9.9626 21.5616C9.9626 21.5616 12.7202 21.8084 13.2381 26.8953C13.3373 27.8633 15.3085 29.1737 16.9311 28.9595" stroke="#F5F5F5" stroke-width="1.21001" stroke-linecap="round" stroke-linejoin="round"/>
<path d="M11.5721 18.1661C15.1682 19.3398 15.3498 16.3087 15.3498 16.3087V16.1139C13.6001 14.0291 11.9799 15.5271 11.9799 15.5271M10.5 13.2498C12.0246 13.8948 13.548 12.8239 15.0714 12.4585M24.4987 27.9828L21.5632 27.5581M41.3252 29.7252C41.8044 32 40.8206 36.5267 42.7651 36.5484M45.7248 21.7392C44.735 24.3589 43.3496 25.1478 41.9399 25.8266" stroke="#F5F5F5" stroke-width="1.21001" stroke-linecap="round" stroke-linejoin="round"/>
</svg>
