<svg width="48" height="48" viewBox="0 0 48 48" fill="none" xmlns="http://www.w3.org/2000/svg">
<mask id="mask0_123_818" style="mask-type:alpha" maskUnits="userSpaceOnUse" x="0" y="0" width="48" height="48">
<rect width="48" height="48" fill="#D9D9D9"/>
</mask>
<g mask="url(#mask0_123_818)">
<path d="M5 42.9999V28.7039L13.1345 25.1309V18.4654L23.231 13.3309V8.23088H19.231V6.69238H23.231V2.69238H24.769V6.69238H28.769V8.23088H24.769V13.3309L34.904 18.4654V25.1309L43 28.7039V42.9999H27.231V35.8459C27.231 34.9325 26.9217 34.1657 26.303 33.5454C25.6843 32.9254 24.9197 32.6154 24.009 32.6154C23.098 32.6154 22.3303 32.9254 21.706 33.5454C21.0813 34.1657 20.769 34.9325 20.769 35.8459V42.9999H5ZM6.5385 41.4614H19.231V35.8229C19.231 34.4872 19.695 33.3546 20.623 32.4249C21.551 31.4956 22.6778 31.0309 24.0035 31.0309C25.3295 31.0309 26.4553 31.4956 27.381 32.4249C28.3063 33.3546 28.769 34.4872 28.769 35.8229V41.4614H41.4615V29.6844L33.3655 26.0864V19.4229L24 14.6424L14.673 19.4229V26.0864L6.5385 29.6844V41.4614ZM24.005 26.0959C24.589 26.0959 25.0898 25.8917 25.5075 25.4834C25.9255 25.0747 26.1345 24.5786 26.1345 23.9949C26.1345 23.4109 25.9215 22.9101 25.4955 22.4924C25.0698 22.0744 24.565 21.8654 23.981 21.8654C23.3973 21.8654 22.9052 22.0784 22.5045 22.5044C22.1042 22.9301 21.904 23.4349 21.904 24.0189C21.904 24.6026 22.1082 25.0947 22.5165 25.4954C22.9252 25.8957 23.4213 26.0959 24.005 26.0959Z" fill="#F5F5F5"/>
</g>
</svg>
