<svg width="48" height="48" viewBox="0 0 48 48" fill="none" xmlns="http://www.w3.org/2000/svg">
<mask id="mask0_124_425" style="mask-type:alpha" maskUnits="userSpaceOnUse" x="0" y="0" width="48" height="48">
<rect width="48" height="48" fill="#D9D9D9"/>
</mask>
<g mask="url(#mask0_124_425)">
<path d="M31.6575 32.804L32.7925 31.669L24.8425 23.6685V13.696H23.304V24.331L31.6575 32.804ZM24.0065 42C21.5252 42 19.1953 41.5277 17.017 40.583C14.8387 39.6383 12.9307 38.348 11.293 36.712C9.65533 35.076 8.36383 33.1698 7.4185 30.9935C6.47283 28.8172 6 26.4882 6 24.0065C6 21.5252 6.47233 19.1953 7.417 17.017C8.36167 14.8387 9.652 12.9307 11.288 11.293C12.924 9.65533 14.8302 8.36383 17.0065 7.4185C19.1828 6.47283 21.5118 6 23.9935 6C26.4748 6 28.8047 6.47233 30.983 7.417C33.1613 8.36167 35.0693 9.652 36.707 11.288C38.3447 12.924 39.6362 14.8302 40.5815 17.0065C41.5272 19.1828 42 21.5118 42 23.9935C42 26.4748 41.5277 28.8047 40.583 30.983C39.6383 33.1613 38.348 35.0693 36.712 36.707C35.076 38.3447 33.1698 39.6362 30.9935 40.5815C28.8172 41.5272 26.4882 42 24.0065 42ZM24 40.4615C28.5383 40.4615 32.4165 38.8525 35.6345 35.6345C38.8525 32.4165 40.4615 28.5383 40.4615 24C40.4615 19.4617 38.8525 15.5835 35.6345 12.3655C32.4165 9.1475 28.5383 7.5385 24 7.5385C19.4617 7.5385 15.5835 9.1475 12.3655 12.3655C9.1475 15.5835 7.5385 19.4617 7.5385 24C7.5385 28.5383 9.1475 32.4165 12.3655 35.6345C15.5835 38.8525 19.4617 40.4615 24 40.4615Z" fill="#F5F5F5"/>
</g>
</svg>
