<svg width="48" height="48" viewBox="0 0 48 48" fill="none" xmlns="http://www.w3.org/2000/svg">
<mask id="mask0_123_824" style="mask-type:alpha" maskUnits="userSpaceOnUse" x="0" y="0" width="48" height="48">
<rect width="48" height="48" fill="#D9D9D9"/>
</mask>
<g mask="url(#mask0_123_824)">
<path d="M37.1557 41.9614C36.959 41.9614 36.7838 41.9281 36.6302 41.8614C36.4762 41.7947 36.3287 41.6909 36.1877 41.5499L25.3567 30.7189C25.2157 30.5779 25.1055 30.4319 25.0262 30.2809C24.9465 30.1296 24.9067 29.9589 24.9067 29.7689C24.9067 29.5792 24.9465 29.4076 25.0262 29.2539C25.1055 29.0999 25.2157 28.9524 25.3567 28.8114L28.6837 25.4844C28.8247 25.3434 28.9733 25.2332 29.1297 25.1539C29.2857 25.0742 29.4613 25.0344 29.6567 25.0344C29.8427 25.0344 30.0097 25.0742 30.1577 25.1539C30.306 25.2332 30.4635 25.3434 30.6302 25.4844L41.4607 36.3154C41.6017 36.4564 41.7055 36.6056 41.7722 36.7629C41.8388 36.9199 41.8722 37.0967 41.8722 37.2934C41.8722 37.4901 41.8388 37.6652 41.7722 37.8189C41.7055 37.9729 41.6017 38.1204 41.4607 38.2614L38.1337 41.5499C37.9927 41.6909 37.8435 41.7947 37.6862 41.8614C37.5292 41.9281 37.3523 41.9614 37.1557 41.9614ZM37.1607 40.3999L40.2722 37.2884L29.6182 26.6344L26.5067 29.7459L37.1607 40.3999ZM10.7827 41.9614C10.586 41.9614 10.4088 41.9281 10.2512 41.8614C10.0935 41.7947 9.94417 41.6909 9.80317 41.5499L6.48767 38.2729C6.34667 38.1319 6.24284 37.98 6.17617 37.8174C6.10951 37.6547 6.07617 37.4759 6.07617 37.2809C6.07617 37.0859 6.10951 36.9051 6.17617 36.7384C6.24284 36.5717 6.34351 36.4211 6.47817 36.2864L17.0837 25.6809H21.2567L22.8877 24.0499L14.1762 15.3384H11.3262L6.19167 10.2039L10.1417 6.25389L15.2762 11.3884V14.2384L23.9877 22.9499L30.3337 16.6039L26.0992 12.3689L28.3607 10.1074H23.8262L23.2337 9.55388L28.5952 4.19238L29.1492 4.74588V9.31888L31.4107 7.05739L39.9762 15.5459C40.4242 15.9799 40.7643 16.487 40.9967 17.0674C41.229 17.648 41.3452 18.2602 41.3452 18.9039C41.3452 19.3012 41.2882 19.712 41.1742 20.1364C41.0602 20.5607 40.9057 20.9589 40.7107 21.3309L36.6147 17.2344L33.7762 20.0729L31.4067 17.7039L22.3182 26.7924V31.0309L11.7512 41.5594C11.6165 41.694 11.4705 41.7947 11.3132 41.8614C11.1558 41.9281 10.979 41.9614 10.7827 41.9614ZM10.7877 40.3614L21.3262 29.8229V26.7114H18.2147L7.67617 37.2499L10.7877 40.3614Z" fill="#F5F5F5"/>
</g>
</svg>
