<svg width="48" height="48" viewBox="0 0 48 48" fill="none" xmlns="http://www.w3.org/2000/svg">
<path d="M35.176 31.013H21.97C12.958 31.013 4.5 26.161 4.5 19.159H16.458C13.651 16.143 14.171 11.36 14.171 11.36C18.85 16.039 35.176 15.727 35.176 31.013ZM35.176 31.013V36.975M29.318 31.013V36.975M24.643 31.013L18.766 36.891" stroke="#F5F5F5" stroke-width="1.5" stroke-linecap="round" stroke-linejoin="round"/>
<path d="M34.4883 18.188H40.2863C40.7084 18.188 41.1265 18.2712 41.5165 18.4327C41.9065 18.5943 42.2608 18.8311 42.5593 19.1297C42.8577 19.4283 43.0945 19.7827 43.2559 20.1727C43.4174 20.5628 43.5004 20.9808 43.5003 21.403V29.904C43.5003 29.904 34.4883 27.2 34.4883 18.188Z" stroke="#F5F5F5" stroke-width="1.5" stroke-linecap="round" stroke-linejoin="round"/>
<path d="M37.0633 11.025C34.9833 13.209 34.4883 15.069 34.4883 18.188" stroke="#F5F5F5" stroke-width="1.5" stroke-linecap="round" stroke-linejoin="round"/>
</svg>
