<svg width="48" height="48" viewBox="0 0 48 48" fill="none" xmlns="http://www.w3.org/2000/svg">
<mask id="mask0_124_428" style="mask-type:alpha" maskUnits="userSpaceOnUse" x="0" y="0" width="48" height="48">
<rect width="48" height="48" fill="#D9D9D9"/>
</mask>
<g mask="url(#mask0_124_428)">
<path d="M21.4313 41.6155C20.1336 41.6155 19.1476 41.2314 18.4733 40.463C17.7989 39.6944 17.4618 38.8189 17.4618 37.8365C17.4618 37.1815 17.6021 36.5354 17.8828 35.898C18.1638 35.261 18.6144 34.7399 19.2348 34.3345C19.9938 33.8165 20.6343 33.1082 21.1563 32.2095C21.6779 31.3109 22.0683 30.2039 22.3273 28.8885C22.0633 28.8202 21.8223 28.7242 21.6043 28.6005C21.3863 28.4772 21.1541 28.309 20.9078 28.096L15.6848 29.954C15.1951 30.1284 14.7313 30.2694 14.2933 30.377C13.8549 30.4847 13.4031 30.5385 12.9378 30.5385C11.2128 30.5385 9.68943 29.7655 8.36777 28.2195C7.04577 26.6735 6.38477 24.4107 6.38477 21.431C6.38477 20.1334 6.76677 19.1474 7.53077 18.473C8.29477 17.7987 9.1526 17.4615 10.1043 17.4615C10.7913 17.4615 11.4553 17.6019 12.0963 17.8825C12.7373 18.1635 13.2604 18.6142 13.6658 19.2345C14.1838 19.9935 14.9061 20.6442 15.8328 21.1865C16.7598 21.7289 17.8528 22.109 19.1118 22.327C19.1938 22.0714 19.2951 21.8222 19.4158 21.5795C19.5361 21.3369 19.6989 21.109 19.9043 20.896L18.0463 15.6845C17.8719 15.2205 17.7309 14.7604 17.6233 14.304C17.5156 13.8474 17.4618 13.4037 17.4618 12.973C17.4618 10.9424 18.3464 9.33669 20.1158 8.15602C21.8848 6.97502 24.0359 6.38452 26.5693 6.38452C27.8669 6.38452 28.8529 6.76469 29.5273 7.52502C30.2016 8.28502 30.5388 9.13852 30.5388 10.0855C30.5388 10.7335 30.3984 11.3845 30.1178 12.0385C29.8368 12.6922 29.3861 13.2217 28.7658 13.627C27.9248 14.1937 27.2498 14.9629 26.7408 15.9345C26.2318 16.9065 25.8798 17.9694 25.6848 19.123C25.9744 19.2334 26.2314 19.3469 26.4558 19.4635C26.6798 19.5802 26.8959 19.7437 27.1043 19.954L32.3158 17.996C32.8054 17.8217 33.2624 17.689 33.6868 17.598C34.1108 17.507 34.5554 17.4615 35.0208 17.4615C37.2378 17.4615 38.8913 18.3987 39.9813 20.273C41.0709 22.1474 41.6158 24.246 41.6158 26.569C41.6158 27.8667 41.2106 28.8527 40.4003 29.527C39.5899 30.2014 38.6911 30.5385 37.7038 30.5385C37.0708 30.5385 36.4523 30.3982 35.8483 30.1175C35.2446 29.8365 34.7401 29.3859 34.3348 28.7655C33.8168 28.0065 33.1084 27.366 32.2098 26.844C31.3111 26.3224 30.2041 25.9154 28.8888 25.623C28.8041 25.895 28.6941 26.1512 28.5588 26.3915C28.4234 26.6319 28.2526 26.8694 28.0463 27.104L29.9543 32.3155C30.1213 32.7759 30.2604 33.2147 30.3718 33.632C30.4831 34.049 30.5388 34.4602 30.5388 34.8655C30.5208 36.5962 29.7446 38.1539 28.2103 39.5385C26.6759 40.9232 24.4163 41.6155 21.4313 41.6155ZM24.0093 27.6155C25.0159 27.6155 25.8688 27.2632 26.5678 26.5585C27.2664 25.8535 27.6158 24.9977 27.6158 23.991C27.6158 22.9844 27.2634 22.1315 26.5588 21.4325C25.8538 20.7339 24.9979 20.3845 23.9913 20.3845C22.9846 20.3845 22.1318 20.7369 21.4328 21.4415C20.7341 22.1465 20.3848 23.0024 20.3848 24.009C20.3848 25.0157 20.7371 25.8685 21.4418 26.5675C22.1468 27.2662 23.0026 27.6155 24.0093 27.6155ZM21.1003 19.673C21.5773 19.4294 22.0748 19.2345 22.5928 19.0885C23.1104 18.9422 23.6283 18.8485 24.1463 18.8075C24.4129 17.4102 24.8598 16.1435 25.4868 15.0075C26.1138 13.8719 26.9131 12.9885 27.8848 12.3575C28.2438 12.0985 28.5194 11.7795 28.7118 11.4005C28.9041 11.0212 29.0003 10.589 29.0003 10.104C29.0003 9.49169 28.8061 8.97519 28.4178 8.55452C28.0291 8.13352 27.4129 7.92302 26.5693 7.92302C25.1556 7.92302 23.5581 8.27102 21.7768 8.96702C19.9954 9.66302 19.0699 10.9979 19.0003 12.9715C19.0003 13.3419 19.0483 13.693 19.1443 14.025C19.2406 14.357 19.3259 14.6435 19.4003 14.8845L21.1003 19.673ZM12.9233 29C13.3643 29 14.0181 28.8667 14.8848 28.6L19.7118 26.9C19.4194 26.459 19.1958 25.9795 19.0408 25.4615C18.8854 24.9435 18.8078 24.4077 18.8078 23.854C17.4104 23.5874 16.1438 23.1405 15.0078 22.5135C13.8721 21.8865 12.9888 21.0872 12.3578 20.1155C12.0988 19.7565 11.7566 19.4809 11.3313 19.2885C10.9056 19.0962 10.4966 19 10.1043 19C9.3846 19 8.8411 19.1942 8.47377 19.5825C8.10677 19.9712 7.92327 20.5874 7.92327 21.431C7.92327 23.4344 8.35043 25.1967 9.20477 26.718C10.0588 28.2394 11.2983 29 12.9233 29ZM21.4313 40.077C23.1409 40.077 24.8234 39.6809 26.4788 38.8885C28.1341 38.0962 28.9746 36.7795 29.0003 34.9385C29.0003 34.5765 28.9541 34.2482 28.8618 33.9535C28.7694 33.6589 28.6823 33.3795 28.6003 33.1155L26.9003 28.2885C26.4156 28.5912 25.8969 28.8155 25.3443 28.9615C24.7919 29.1079 24.2953 29.1849 23.8543 29.1925C23.5876 30.5899 23.1408 31.8565 22.5138 32.9925C21.8868 34.1282 21.0874 35.0115 20.1158 35.6425C19.7901 35.8682 19.5228 36.1957 19.3138 36.625C19.1048 37.0544 19.0003 37.4652 19.0003 37.8575C19.0079 38.4345 19.2041 38.9487 19.5888 39.4C19.9734 39.8514 20.5876 40.077 21.4313 40.077ZM37.7478 29C38.3771 29 38.9226 28.827 39.3843 28.481C39.8463 28.1347 40.0773 27.4974 40.0773 26.569C40.0773 25.139 39.7439 23.5307 39.0773 21.744C38.4109 19.9574 37.0498 19.0427 34.9938 19C34.6161 19 34.2753 19.0334 33.9713 19.1C33.6676 19.1667 33.3824 19.25 33.1158 19.35L28.3273 21.1C28.5709 21.495 28.7761 21.9777 28.9428 22.548C29.1094 23.1187 29.1928 23.6514 29.1928 24.146C30.5901 24.4127 31.8568 24.8595 32.9928 25.4865C34.1284 26.1135 35.0118 26.9129 35.6428 27.8845C35.8428 28.2025 36.1433 28.468 36.5443 28.681C36.9453 28.8937 37.3464 29 37.7478 29Z" fill="#F5F5F5"/>
</g>
</svg>
