<svg width="48" height="48" viewBox="0 0 48 48" fill="none" xmlns="http://www.w3.org/2000/svg">
<mask id="mask0_123_836" style="mask-type:alpha" maskUnits="userSpaceOnUse" x="0" y="0" width="48" height="48">
<rect width="48" height="48" fill="#D9D9D9"/>
</mask>
<g mask="url(#mask0_123_836)">
<path d="M7.0575 18.5499C6.83017 18.5499 6.651 18.4764 6.52 18.3294C6.38867 18.1824 6.323 18.0054 6.323 17.7984C6.323 17.5918 6.38867 17.4089 6.52 17.2499C6.651 17.0909 6.83017 17.0114 7.0575 17.0114H13.931C14.456 17.0114 14.9288 17.1556 15.3495 17.4439C15.7705 17.7326 16.1155 18.1013 16.3845 18.5499H7.0575ZM11.2225 36.9229C13.0792 36.9229 14.6602 36.2731 15.9655 34.9734C17.2705 33.6738 17.923 32.0956 17.923 30.2389C17.923 28.3823 17.2732 26.8013 15.9735 25.4959C14.6738 24.1909 13.0957 23.5384 11.239 23.5384C9.38233 23.5384 7.80133 24.1883 6.496 25.4879C5.191 26.7876 4.5385 28.3658 4.5385 30.2224C4.5385 32.0791 5.18833 33.6601 6.488 34.9654C7.78767 36.2704 9.36583 36.9229 11.2225 36.9229ZM39.126 36.9229C40.319 36.9229 41.3398 36.5016 42.1885 35.6589C43.0372 34.8159 43.4615 33.7851 43.4615 32.5664C43.4615 31.3734 43.0402 30.3526 42.1975 29.5039C41.3545 28.6553 40.3365 28.2309 39.1435 28.2309C37.9248 28.2309 36.8912 28.6523 36.0425 29.4949C35.1935 30.3379 34.769 31.3559 34.769 32.5489C34.769 33.7676 35.1905 34.8013 36.0335 35.6499C36.8762 36.4986 37.907 36.9229 39.126 36.9229ZM11.23 32.6924C10.546 32.6924 9.96483 32.4529 9.4865 31.9739C9.00817 31.4953 8.769 30.9139 8.769 30.2299C8.769 29.5459 9.0085 28.9648 9.4875 28.4864C9.96617 28.0081 10.5475 27.7689 11.2315 27.7689C11.9155 27.7689 12.4967 28.0084 12.975 28.4874C13.4533 28.9661 13.6925 29.5474 13.6925 30.2314C13.6925 30.9154 13.453 31.4966 12.974 31.9749C12.4953 32.4533 11.914 32.6924 11.23 32.6924ZM40.154 26.7539C40.454 26.8436 40.7077 26.9259 40.915 27.0009C41.122 27.0759 41.3812 27.1819 41.6925 27.3189V16.3189C41.6925 15.5356 41.4267 14.8783 40.895 14.3469C40.3637 13.8156 39.7063 13.5499 38.923 13.5499H28.169L25.9115 11.2539L28.8575 8.30743L27.6885 7.13843L20.6 14.2269L21.8075 15.4074L24.7425 12.4729L27 14.7104V18.0729C27 19.7053 26.4192 21.1153 25.2575 22.3029C24.0962 23.4906 22.6808 24.0844 21.0115 24.0844H16.754C17.0387 24.3974 17.2687 24.6551 17.444 24.8574C17.6197 25.0601 17.8307 25.3153 18.077 25.6229H21.0115C23.1012 25.6229 24.8782 24.8779 26.3425 23.3879C27.8065 21.8983 28.5385 20.1266 28.5385 18.0729V15.0884H38.923C39.282 15.0884 39.5768 15.2103 39.8075 15.4539C40.0385 15.6973 40.154 15.9856 40.154 16.3189V26.7539ZM33.4575 30.9999C33.5808 30.6513 33.6922 30.3683 33.7915 30.1509C33.8908 29.9336 34.027 29.6999 34.2 29.4499H19.4385C19.4538 29.7439 19.4615 29.9961 19.4615 30.2064C19.4615 30.4164 19.4538 30.6809 19.4385 30.9999H33.4575ZM39.1405 38.4614C37.5008 38.4614 36.106 37.8973 34.956 36.7689C33.806 35.6403 33.231 34.2609 33.231 32.6309C33.231 30.9709 33.8057 29.5661 34.955 28.4164C36.1047 27.2671 37.5093 26.6924 39.169 26.6924C40.7993 26.6924 42.1788 27.2679 43.3075 28.4189C44.4358 29.5703 45 30.9563 45 32.5769C45 34.2333 44.4333 35.6281 43.3 36.7614C42.1667 37.8948 40.7802 38.4614 39.1405 38.4614ZM11.1555 38.4614C8.88017 38.4614 6.952 37.6589 5.371 36.0539C3.79033 34.4489 3 32.5079 3 30.2309C3 27.9536 3.80067 26.0124 5.402 24.4074C7.00333 22.8024 8.94367 21.9999 11.223 21.9999C13.5023 21.9999 15.4452 22.8033 17.0515 24.4099C18.6582 26.0163 19.4615 27.9591 19.4615 30.2384C19.4615 32.5178 18.6627 34.4581 17.065 36.0594C15.4673 37.6608 13.4975 38.4614 11.1555 38.4614Z" fill="#F5F5F5"/>
</g>
</svg>
