<svg width="48" height="48" viewBox="0 0 48 48" fill="none" xmlns="http://www.w3.org/2000/svg">
<mask id="mask0_122_274" style="mask-type:alpha" maskUnits="userSpaceOnUse" x="0" y="0" width="48" height="48">
<rect width="48" height="48" fill="#D9D9D9"/>
</mask>
<g mask="url(#mask0_122_274)">
<path d="M16.535 42V34.2425H3.76953L12.5275 21.4655H8.16203L18.0005 7.46155L24.0005 16L30.0005 7.46155L39.839 21.4655H35.5235L44.2315 34.2425H31.4775V42H28.535V34.2425H19.4775V42H16.535ZM31.1545 32.704H41.2505L32.5315 19.927H36.7505L30.0005 10.319L25.039 17.4155L27.839 21.4655H23.5235L31.1545 32.704ZM6.76203 32.704H29.2505L20.5315 19.927H24.7505L18.0005 10.319L11.2505 19.927H15.4815L6.76203 32.704ZM6.76203 32.704H15.4815H11.2505H24.7505H20.5315H29.2505H6.76203ZM31.1545 32.704H23.5235H27.839H25.039H36.7505H32.5315H41.2505H31.1545Z" fill="#F5F5F5"/>
</g>
</svg>
