<svg width="48" height="48" viewBox="0 0 48 48" fill="none" xmlns="http://www.w3.org/2000/svg">
<mask id="mask0_122_263" style="mask-type:alpha" maskUnits="userSpaceOnUse" x="0" y="0" width="48" height="48">
<rect width="48" height="48" fill="#D9D9D9"/>
</mask>
<g mask="url(#mask0_122_263)">
<path d="M23.9995 40.0385C22.0788 40.0385 20.3691 39.4725 18.8705 38.3405C17.3718 37.2085 16.2045 35.7603 15.3685 33.996L11.0995 36.423L10.3305 35.0655L14.734 32.554C14.5673 32.013 14.4238 31.4592 14.3035 30.8925C14.1828 30.3258 14.0891 29.7463 14.0225 29.154H8.73047V27.6155H13.984C13.9993 26.8948 14.0736 26.1872 14.207 25.4925C14.3403 24.7975 14.516 24.1153 14.734 23.446L10.292 20.8845L11.061 19.5655L15.3185 22.0425C15.5675 21.5348 15.8496 21.0495 16.165 20.5865C16.4803 20.1238 16.8123 19.6887 17.161 19.281C17.12 19.0653 17.0828 18.871 17.0495 18.698C17.0161 18.525 16.9995 18.3308 16.9995 18.1155C16.9995 17.1822 17.1681 16.3058 17.5055 15.4865C17.8425 14.6672 18.3148 13.9332 18.9225 13.2845L16.507 10.919L17.5685 9.8075L20.157 12.346C20.7236 11.9357 21.3263 11.628 21.965 11.423C22.6033 11.218 23.2815 11.1155 23.9995 11.1155C24.7175 11.1155 25.4021 11.2245 26.0535 11.4425C26.7048 11.6602 27.301 11.9613 27.842 12.346L30.4305 9.8075L31.492 10.919L29.038 13.373C29.6123 14.0217 30.0745 14.7473 30.4245 15.55C30.7745 16.3527 30.9495 17.2078 30.9495 18.1155C30.9495 18.3308 30.9411 18.5232 30.9245 18.6925C30.9078 18.8615 30.8918 19.041 30.8765 19.231C31.2251 19.6387 31.5425 20.0675 31.8285 20.5175C32.1141 20.9675 32.3815 21.4592 32.6305 21.9925L36.861 19.577L37.6305 20.896L33.265 23.396C33.465 24.014 33.6296 24.6383 33.759 25.269C33.8886 25.9 33.974 26.554 34.015 27.231H39.2685V28.769H34.015C33.974 29.4127 33.8886 30.0518 33.759 30.6865C33.6296 31.3212 33.465 31.9475 33.265 32.5655L37.707 35.1155L36.938 36.4345L32.6685 33.9575C31.8328 35.7218 30.6591 37.1763 29.1475 38.321C27.6361 39.466 25.9201 40.0385 23.9995 40.0385ZM18.511 17.877C19.3033 17.264 20.1546 16.7915 21.065 16.4595C21.9753 16.1275 22.9535 15.9615 23.9995 15.9615C25.0201 15.9615 25.99 16.1275 26.909 16.4595C27.8283 16.7915 28.6713 17.2473 29.438 17.827C29.3663 16.4193 28.7958 15.2052 27.7265 14.1845C26.6571 13.1642 25.4148 12.654 23.9995 12.654C22.5841 12.654 21.34 13.1642 20.267 14.1845C19.1936 15.2052 18.6083 16.436 18.511 17.877ZM23.9995 38.5C26.4891 38.5 28.5283 37.4205 30.117 35.2615C31.7053 33.1025 32.4995 30.682 32.4995 28C32.4995 25.577 31.7553 23.2212 30.267 20.9325C28.7783 18.6442 26.6891 17.5 23.9995 17.5C21.2841 17.5 19.1886 18.6442 17.713 20.9325C16.2373 23.2212 15.4995 25.577 15.4995 28C15.4995 30.682 16.2936 33.1025 17.882 35.2615C19.4706 37.4205 21.5098 38.5 23.9995 38.5ZM23.2305 33V23.9615H24.7685V33H23.2305Z" fill="#F5F5F5"/>
</g>
</svg>
