<svg width="48" height="48" viewBox="0 0 48 48" fill="none" xmlns="http://www.w3.org/2000/svg">
<path fill-rule="evenodd" clip-rule="evenodd" d="M38.6006 29.1745C38.1118 28.8923 37.5171 28.9483 37.0949 29.2701C36.0008 29.1784 34.7565 29.3801 33.4395 29.7188C32.7193 29.5938 31.7941 29.7242 30.5831 30.2168C30.3861 30.298 30.1812 30.3873 29.9669 30.4873C30.1498 29.8772 30.2304 29.2783 30.2162 28.6886C30.2084 28.4253 30.1832 28.1647 30.139 27.9092C30.6945 27.9487 31.2594 27.9553 31.8361 27.9304C32.6627 27.8933 33.5081 27.7903 34.3735 27.603C35.2488 27.415 36.2926 27.1678 37.2721 26.7716C38.2875 26.3578 39.2228 25.7891 39.8216 24.9623C40.4501 24.095 40.4431 23.4487 39.9076 22.9926C39.8027 22.9033 39.6746 22.8262 39.5246 22.7651C40.0236 22.526 40.5043 22.2636 40.9404 21.9786C41.5727 21.5641 42.1126 21.0994 42.4766 20.5906C42.8786 20.0272 43.0643 19.4123 42.9392 18.749C42.8819 18.4443 42.7566 18.1356 42.552 17.8258C41.8253 16.716 39.1759 14.9851 37.4066 13.8326C37.0606 13.6073 36.7492 13.4052 36.4813 13.2217C36.1202 11.7 35.469 10.88 34.5787 10.6567C33.7422 10.4453 32.7529 10.7975 31.6403 11.6121C31.5164 11.5502 31.392 11.4944 31.2677 11.4385C28.9341 10.3948 26.2421 10.0547 23.4633 10.4184C23.4118 9.64428 23.3128 8.98008 23.1454 8.42334C22.9164 7.67447 22.5633 7.11278 22.0251 6.74453C21.1954 6.17283 20.0731 6.15753 18.938 6.41915C17.4521 6.76261 15.9071 7.5959 15.0431 8.23453C13.559 9.33305 11.8984 11.4511 10.4991 14.0076C9.25548 16.2834 8.20865 18.9156 7.67068 21.4965C7.29835 22.1027 6.93965 22.7295 6.60039 23.3835C6.40826 23.755 6.22193 24.1331 6.04141 24.5177L5.82123 24.9433C5.73269 25.0967 5.73078 25.2937 5.83029 25.4534C5.84797 25.4892 5.87322 25.5229 5.90124 25.5519C6.24069 26.0098 6.63872 26.3387 7.07622 26.5881C7.52571 26.8444 8.00446 27.0058 8.4916 27.1305C8.99966 27.2577 9.4056 27.3515 9.75052 27.4292C11.2355 27.7625 11.436 27.808 13.1199 29.5566C13.274 29.7159 13.4127 29.863 13.5278 29.9902C13.6429 30.1174 13.7716 30.2652 13.9164 30.435C14.2592 30.8374 14.5721 31.2417 14.8551 31.648C15.1051 32.0064 15.3392 32.3811 15.5575 32.7723C15.5716 32.8476 15.6042 32.9239 15.6536 32.9876C16.3608 33.8879 16.931 34.7763 17.3311 35.6495C17.708 36.4741 17.9285 37.282 17.9627 38.075C17.8288 38.1797 17.7105 38.3127 17.6191 38.4709C17.2428 39.1227 17.4656 39.9542 18.1174 40.3305C18.7692 40.7068 19.6032 40.4854 19.9795 39.8336C20.3558 39.1818 20.1306 38.3489 19.4788 37.9726C19.3063 37.873 19.1188 37.8158 18.9329 37.7948C18.8622 36.9488 18.6195 36.0962 18.2259 35.2395C18.1042 34.9744 17.9678 34.7071 17.819 34.4391C18.404 34.8535 18.9434 35.264 19.4242 35.6598C20.3468 36.4193 21.0425 37.1181 21.4364 37.681C21.3265 37.7773 21.2316 37.8918 21.1541 38.026C20.7778 38.6778 21.003 39.5107 21.6524 39.8857C22.3042 40.262 23.1381 40.0406 23.5144 39.3888C23.8908 38.737 23.6669 37.9016 23.0151 37.5253C22.8162 37.4105 22.5979 37.3515 22.3851 37.3437C22.3722 37.3107 22.3569 37.2763 22.3365 37.2453C21.9063 36.5848 21.1099 35.7672 20.054 34.8955C19.7267 34.6267 19.3775 34.3516 19.0013 34.0737C19.4468 34.2095 19.8691 34.3415 20.2642 34.4706C21.4424 34.8537 22.3371 35.1913 22.7858 35.4599C22.8074 35.4724 22.8265 35.4834 22.8471 35.4921C22.8133 35.9934 23.0609 36.4942 23.5258 36.7626C24.1776 37.1389 25.0129 36.9151 25.3878 36.2657C25.7642 35.6139 25.5403 34.7786 24.8885 34.4023C24.3518 34.0924 23.6889 34.1889 23.2639 34.5985C22.8987 34.3845 22.3328 34.1472 21.6132 33.8883C22.1455 33.8186 22.6454 33.6887 23.0562 33.4753C23.2867 33.3528 23.4922 33.2127 23.6755 33.0501C23.8588 32.8876 24.0161 32.7036 24.1536 32.4986C24.2175 32.4045 24.2756 32.3039 24.3303 32.1981C24.3823 32.0971 24.4298 31.9871 24.4749 31.8758C24.5117 31.7788 24.5461 31.6805 24.5754 31.5855C24.9124 32.269 25.3021 32.9444 25.748 33.6109C25.898 33.8381 26.2056 33.8974 26.4328 33.7474L26.4393 33.7416C27.4405 33.048 28.3257 32.4887 29.1071 32.0485C29.1888 32.0286 29.2645 31.986 29.3252 31.9252C29.9266 31.5919 30.4652 31.3341 30.9493 31.1375C31.8516 30.7702 32.5327 30.6363 33.0501 30.6698C33.552 31.2727 33.8589 31.7981 33.9561 32.244C34.0358 32.6096 33.9527 32.9195 33.6911 33.1678C33.6753 33.1842 33.6594 33.2006 33.6459 33.2184C33.2386 33.2708 32.8577 33.5046 32.6363 33.888C32.26 34.5398 32.4828 35.3713 33.1346 35.7476C33.7864 36.1239 34.6193 35.8987 34.9943 35.2493C35.3318 34.6646 35.1862 33.9319 34.6818 33.5161C34.9623 33.0966 35.041 32.6116 34.9298 32.0682L35.8158 32.7363C35.6161 33.3367 35.8591 34.0169 36.4271 34.3448C37.0888 34.7205 37.9204 34.4977 38.2967 33.8459C38.673 33.1941 38.4502 32.3626 37.7984 31.9862C37.3694 31.7386 36.8604 31.7514 36.4565 31.9751L34.4828 30.4905C35.2224 30.3329 35.9261 30.2375 36.5644 30.2386C36.5189 30.7491 36.7668 31.2661 37.2413 31.54C37.8931 31.9163 38.7284 31.6925 39.1033 31.0431C39.4776 30.3837 39.2524 29.5508 38.6006 29.1745ZM37.7109 23.5104C38.5154 23.4892 39.0591 23.5603 39.269 23.739C39.3552 23.8111 39.2832 24.0188 39.0211 24.3787C38.5466 25.0345 37.7648 25.5033 36.9021 25.8519C36.0037 26.2182 35.0091 26.4523 34.1678 26.6312C33.344 26.8073 32.5545 26.9075 31.7914 26.9398C31.1327 26.9684 30.4878 26.9508 29.8604 26.892C29.7074 26.4874 29.5104 26.0925 29.2647 25.7046C29.1199 25.474 28.814 25.4061 28.5858 25.5523C28.3552 25.6971 28.2873 26.003 28.4335 26.2312C28.6895 26.6346 28.8863 27.0517 29.0183 27.4762C29.0213 27.4875 29.0244 27.4989 29.0274 27.5102C29.1465 27.9017 29.213 28.3011 29.2222 28.7058C29.2417 29.4966 29.0496 30.3219 28.6277 31.1742C27.9296 31.5699 27.157 32.0504 26.2977 32.6311C25.5828 31.4898 25.033 30.3225 24.6309 29.1319C24.5931 28.9982 24.5491 28.8641 24.5036 28.7325C24.057 27.2925 23.822 25.818 23.7597 24.3155C23.7475 24.0433 23.5185 23.8312 23.2439 23.842C22.9717 23.8542 22.7596 24.0832 22.7704 24.3578C22.7967 24.9928 22.8529 25.626 22.9418 26.2524C22.7718 26.0488 22.6004 25.8476 22.4276 25.6488C21.5695 24.6613 20.6404 23.8246 19.6302 23.1615C18.6128 22.4942 17.5202 22.0071 16.3356 21.729C14.9776 21.4082 13.5027 21.3619 11.8964 21.6262C10.6918 21.8254 9.41343 22.2024 8.05522 22.7729C8.15068 22.6076 8.24614 22.4422 8.3464 22.2796C8.46958 22.2102 8.56106 22.0905 8.58848 21.9433L8.60501 21.8538C11.3462 17.4713 14.9499 14.4558 18.6893 12.7935C22.9332 10.9048 27.3465 10.7594 30.8598 12.3277C31.065 12.4206 31.265 12.5169 31.4598 12.6166C31.6365 12.709 31.8463 12.6832 31.9934 12.5668C32.9646 11.8144 33.7555 11.4627 34.3308 11.6063C34.8755 11.7419 35.2921 12.3817 35.5563 13.6174C35.5832 13.748 35.6599 13.853 35.7599 13.9235C36.0182 14.1014 36.4155 14.3595 36.8676 14.6556C38.5663 15.7642 41.1096 17.4243 41.7239 18.3637C41.8521 18.5623 41.9312 18.7517 41.9674 18.9324C42.0382 19.3024 41.9171 19.667 41.6705 20.0166C41.3849 20.4173 40.9343 20.7993 40.3987 21.1515C38.6735 22.2801 36.1383 23.0466 35.0185 23.2595C34.0969 23.4335 33.2524 23.4795 32.4684 23.4263C31.6882 23.372 30.9609 23.2205 30.2765 22.9947C30.0188 22.9098 29.7388 23.0517 29.6539 23.3094C29.569 23.5671 29.7109 23.8471 29.9686 23.932C30.726 24.1808 31.5304 24.3481 32.4033 24.4079C33.27 24.4674 34.2003 24.4166 35.206 24.2241C35.7776 24.1195 36.6999 23.8724 37.7109 23.5104ZM6.8407 25.1421C6.87188 25.0771 6.90066 25.0106 6.93184 24.9455L7.32164 24.1929C9.03382 23.3635 10.6084 22.8443 12.0595 22.6054C13.5295 22.3614 14.8743 22.4062 16.1089 22.6972C17.1796 22.9511 18.1709 23.3925 19.0942 23.9958C20.0209 24.6043 20.8816 25.3824 21.6864 26.3072C22.3857 27.1103 23.074 27.9326 23.4658 28.7979C23.5019 28.8794 23.5379 28.9609 23.5687 29.0458L23.5823 29.0887C23.6164 29.2011 23.653 29.3149 23.6909 29.4263C23.8607 30.0674 23.8515 30.7586 23.5619 31.5148C23.5337 31.5912 23.4994 31.6672 23.4603 31.7405C23.4239 31.809 23.3838 31.8785 23.3375 31.9476C23.2491 32.0787 23.1452 32.1976 23.0246 32.3069C22.9016 32.4148 22.7632 32.5106 22.6057 32.5954C22.1898 32.8122 21.6244 32.9171 21.0236 32.9504C20.1503 33.0022 19.2113 32.9074 18.5172 32.8037C18.1879 32.7542 17.8608 32.6899 17.5296 32.6106C17.2492 32.5317 16.9616 32.4488 16.6702 32.3668C16.5863 32.3407 16.5013 32.3108 16.4163 32.2809C16.1912 31.8794 15.9401 31.4788 15.6638 31.0829C15.3511 30.6339 15.0212 30.2038 14.6726 29.7949C14.5568 29.6577 14.4199 29.502 14.2618 29.3276C14.106 29.1547 13.9639 29.0023 13.8321 28.8655C11.9463 26.9077 11.709 26.8538 9.96967 26.463C9.62715 26.3867 9.22361 26.2943 8.73886 26.1709C8.32131 26.0641 7.92138 25.9322 7.56774 25.7312C7.30276 25.5814 7.05891 25.3895 6.8407 25.1421ZM22.4848 10.5692C21.0892 10.8338 19.678 11.2747 18.2883 11.8942C15.0723 13.3251 11.9553 15.7078 9.3595 19.0528C9.89549 17.4549 10.5878 15.896 11.3632 14.481C12.6985 12.0409 14.2591 10.0408 15.633 9.02242C16.414 8.4445 17.8132 7.68675 19.1606 7.37838C20.0494 7.17263 20.8965 7.16645 21.4669 7.55647C21.8049 7.78999 22.0397 8.17474 22.2 8.70502C22.3522 9.20506 22.4387 9.83008 22.4848 10.5692ZM27.8391 19.3637C28.0864 19.4777 28.3793 19.3689 28.4933 19.1216C28.6073 18.8743 28.4985 18.5814 28.2512 18.4674C26.2184 17.5334 24.0399 17.1063 21.7212 17.1767C19.4187 17.2467 16.9787 17.8094 14.4045 18.8536C14.1504 18.9561 14.029 19.2439 14.1329 19.4956C14.2354 19.7496 14.5232 19.8711 14.7749 19.7672C17.2422 18.7698 19.5691 18.2314 21.7549 18.1642C23.9209 18.0984 25.9499 18.4966 27.8391 19.3637ZM34.1703 16.8206C33.6838 16.5397 33.1294 16.4817 32.6291 16.6178C32.1264 16.7525 31.6754 17.0799 31.3959 17.564C31.115 18.0504 31.057 18.6048 31.1931 19.1051C31.3278 19.6078 31.6552 20.0589 32.1393 20.3383C32.6257 20.6192 33.1801 20.6773 33.6804 20.5412C34.1831 20.4065 34.6342 20.079 34.9136 19.595C35.1945 19.1085 35.2526 18.5541 35.1165 18.0538C34.9828 17.5549 34.6567 17.1014 34.1703 16.8206ZM32.884 17.5764C33.141 17.5076 33.4244 17.537 33.676 17.6822C33.9252 17.8261 34.0923 18.0568 34.1636 18.3152C34.2325 18.5723 34.2031 18.8556 34.0578 19.1072C33.9139 19.3564 33.6832 19.5236 33.4248 19.5948C33.1678 19.6637 32.8844 19.6343 32.6328 19.489C32.3836 19.3452 32.2165 19.1145 32.1452 18.8561C32.0763 18.599 32.1057 18.3157 32.251 18.0641C32.3963 17.8125 32.627 17.6453 32.884 17.5764Z" fill="#F5F5F5"/>
</svg>
