<svg width="48" height="48" viewBox="0 0 48 48" fill="none" xmlns="http://www.w3.org/2000/svg">
<mask id="mask0_123_778" style="mask-type:alpha" maskUnits="userSpaceOnUse" x="0" y="0" width="48" height="48">
<rect width="48" height="48" fill="#D9D9D9"/>
</mask>
<g mask="url(#mask0_123_778)">
<path d="M18.1272 43.3039C16.5786 43.3039 15.2196 42.8032 14.0502 41.8019C12.8809 40.8006 12.1232 39.5499 11.7772 38.0499C11.3719 38.7882 10.8181 39.3607 10.1157 39.7674C9.41305 40.1737 8.63089 40.3769 7.76922 40.3769C6.43355 40.3769 5.30672 39.9112 4.38872 38.9799C3.47072 38.0489 3.01172 36.9209 3.01172 35.5959C3.01172 34.2702 3.45589 33.1517 4.34422 32.2404C5.23289 31.3287 6.37072 30.8947 7.75772 30.9384C7.02972 30.3231 6.44772 29.5544 6.01172 28.6324C5.57572 27.7107 5.35772 26.7614 5.35772 25.7844C5.35772 24.7161 5.61872 23.7106 6.14072 22.7679C6.66239 21.8252 7.40789 21.0589 8.37722 20.4689C8.49355 20.6742 8.61889 20.9044 8.75322 21.1594C8.88722 21.4147 9.01055 21.6487 9.12322 21.8614C8.40522 22.3461 7.86105 22.9457 7.49072 23.6604C7.12005 24.3747 6.93472 25.1032 6.93472 25.8459C6.93472 27.9999 7.72389 29.3929 9.30222 30.0249C10.8802 30.6569 12.5091 31.1357 14.1887 31.4614L14.4312 31.9884C14.0566 33.0781 13.7571 33.9979 13.5327 34.7479C13.3084 35.4979 13.1962 36.1896 13.1962 36.8229C13.1962 38.1256 13.6824 39.2686 14.6547 40.2519C15.6267 41.2352 16.7881 41.7269 18.1387 41.7269C19.5824 41.7269 20.7779 41.1904 21.7252 40.1174C22.6726 39.0441 23.4406 37.7607 24.0292 36.2674C24.6176 34.7737 25.0746 33.2314 25.4002 31.6404C25.7259 30.0494 26.0016 28.7526 26.2272 27.7499L27.7427 28.2039C27.4937 29.4832 27.1821 30.9896 26.8077 32.7229C26.4334 34.4562 25.9034 36.1044 25.2177 37.6674C24.5317 39.2301 23.6227 40.5601 22.4907 41.6574C21.3587 42.7551 19.9042 43.3039 18.1272 43.3039ZM7.78122 38.8384C8.68622 38.8384 9.45089 38.5262 10.0752 37.9019C10.6996 37.2776 11.0117 36.5127 11.0117 35.6074C11.0117 34.7281 10.6996 33.9697 10.0752 33.3324C9.45089 32.6954 8.68622 32.3769 7.78122 32.3769C6.90155 32.3769 6.14322 32.6954 5.50622 33.3324C4.86889 33.9697 4.55022 34.7281 4.55022 35.6074C4.55022 36.5127 4.86889 37.2776 5.50622 37.9019C6.14322 38.5262 6.90155 38.8384 7.78122 38.8384ZM20.3192 29.8769C18.9732 28.6716 17.7477 27.5517 16.6427 26.5174C15.5374 25.4827 14.5784 24.4602 13.7657 23.4499C12.9531 22.4396 12.3274 21.4396 11.8887 20.4499C11.4504 19.4602 11.2312 18.4166 11.2312 17.3189C11.2312 15.4979 11.8604 13.9644 13.1187 12.7184C14.3774 11.4727 15.9046 10.8499 17.7002 10.8499C18.1286 10.8499 18.5337 10.8711 18.9157 10.9134C19.2977 10.9557 19.6477 11.0359 19.9657 11.1539C19.7171 10.7409 19.5324 10.3514 19.4117 9.9854C19.2914 9.6194 19.2312 9.25373 19.2312 8.8884C19.2312 7.55573 19.6924 6.42773 20.6147 5.5044C21.5374 4.58073 22.6644 4.1189 23.9957 4.1189C25.3271 4.1189 26.4556 4.58073 27.3812 5.5044C28.3066 6.42773 28.7692 7.55573 28.7692 8.8884C28.7692 9.25506 28.7109 9.62106 28.5942 9.9864C28.4776 10.3517 28.2911 10.7409 28.0347 11.1539C28.3527 11.0359 28.7027 10.9557 29.0847 10.9134C29.4667 10.8711 29.8719 10.8499 30.3002 10.8499C31.7642 10.8499 33.0392 11.2596 34.1252 12.0789C35.2112 12.8979 35.9567 13.9639 36.3617 15.2769C36.1294 15.2692 35.8611 15.2672 35.5567 15.2709C35.2524 15.2749 34.9822 15.2974 34.7462 15.3384C34.4002 14.4411 33.8349 13.7251 33.0502 13.1904C32.2656 12.6557 31.3546 12.3884 30.3172 12.3884C29.0469 12.3884 28.0277 12.7109 27.2597 13.3559C26.4917 14.0006 25.4949 15.0357 24.2692 16.4614H23.6812C22.4479 14.9947 21.4472 13.9492 20.6792 13.3249C19.9112 12.7006 18.9182 12.3884 17.7002 12.3884C16.2889 12.3884 15.1142 12.8574 14.1762 13.7954C13.2382 14.7331 12.7692 15.9076 12.7692 17.3189C12.7692 18.1016 12.9667 18.9076 13.3617 19.7369C13.7567 20.5662 14.3266 21.4494 15.0712 22.3864C15.8162 23.3237 16.7252 24.3174 17.7982 25.3674C18.8712 26.4174 20.0822 27.5501 21.4312 28.7654L20.3192 29.8769ZM24.0002 12.1189C24.9052 12.1189 25.6699 11.8067 26.2942 11.1824C26.9189 10.5581 27.2312 9.7934 27.2312 8.8884C27.2312 7.9834 26.9189 7.21856 26.2942 6.5939C25.6699 5.96956 24.9052 5.6574 24.0002 5.6574C23.0952 5.6574 22.3306 5.96956 21.7062 6.5939C21.0816 7.21856 20.7692 7.9834 20.7692 8.8884C20.7692 9.7934 21.0816 10.5581 21.7062 11.1824C22.3306 11.8067 23.0952 12.1189 24.0002 12.1189ZM29.7462 43.3539C29.2719 43.3539 28.8029 43.2929 28.3392 43.1709C27.8752 43.0486 27.4276 42.8736 26.9962 42.6459C27.1072 42.4472 27.2376 42.2136 27.3872 41.9449C27.5366 41.6759 27.6589 41.4289 27.7542 41.2039C28.0989 41.3832 28.4456 41.5216 28.7942 41.6189C29.1432 41.7166 29.4939 41.7654 29.8462 41.7654C31.1926 41.7654 32.3509 41.2749 33.3212 40.2939C34.2919 39.3129 34.7772 38.1559 34.7772 36.8229C34.7772 36.1896 34.6567 35.5024 34.4157 34.7614C34.1747 34.0204 33.8837 33.1089 33.5427 32.0269L33.8232 31.5384C35.5619 31.2204 37.2056 30.7389 38.7542 30.0939C40.3029 29.4492 41.0772 28.0499 41.0772 25.8959C41.0772 24.2242 40.4926 22.9724 39.3232 22.1404C38.1539 21.3084 36.8167 20.8924 35.3117 20.8924C33.9677 20.8924 32.3876 21.1206 30.5712 21.5769C28.7546 22.0332 26.6694 22.6524 24.3157 23.4344L23.9117 21.9189C26.1631 21.1882 28.2124 20.5652 30.0597 20.0499C31.9067 19.5346 33.5806 19.2769 35.0812 19.2769C37.0349 19.2769 38.7791 19.8481 40.3137 20.9904C41.8484 22.1327 42.6157 23.7641 42.6157 25.8844C42.6157 26.8504 42.4106 27.7759 42.0002 28.6609C41.5899 29.5459 41.0079 30.3089 40.2542 30.9499C41.6336 30.9319 42.7694 31.3742 43.6617 32.2769C44.5541 33.1796 45.0002 34.2897 45.0002 35.6074C45.0002 36.9281 44.5412 38.0614 43.6232 39.0074C42.7052 39.9537 41.5784 40.4269 40.2427 40.4269C39.3887 40.4269 38.6066 40.2237 37.8962 39.8174C37.1862 39.4107 36.6324 38.8254 36.2347 38.0614C35.8554 39.5614 35.0747 40.8184 33.8927 41.8324C32.7104 42.8467 31.3282 43.3539 29.7462 43.3539ZM40.2812 38.8884C41.1529 38.8884 41.9009 38.5697 42.5252 37.9324C43.1496 37.2954 43.4617 36.5371 43.4617 35.6574C43.4617 34.7857 43.1412 34.0211 42.5002 33.3634C41.8592 32.7057 41.1029 32.3769 40.2312 32.3769C39.3592 32.3769 38.6027 32.6974 37.9617 33.3384C37.3207 33.9794 37.0002 34.7357 37.0002 35.6074C37.0002 36.4794 37.3291 37.2442 37.9867 37.9019C38.6444 38.5596 39.4092 38.8884 40.2812 38.8884Z" fill="#F5F5F5"/>
</g>
</svg>
