<svg width="48" height="48" viewBox="0 0 48 48" fill="none" xmlns="http://www.w3.org/2000/svg">
<mask id="mask0_122_362" style="mask-type:alpha" maskUnits="userSpaceOnUse" x="0" y="0" width="48" height="48">
<rect width="48" height="48" fill="#D9D9D9"/>
</mask>
<g mask="url(#mask0_122_362)">
<path d="M27.631 43.2345C27.4437 43.3498 27.2442 43.373 27.0325 43.304C26.8212 43.2347 26.6707 43.0937 26.581 42.881L22.977 35.7115C22.8873 35.5245 22.8752 35.3252 22.9405 35.1135C23.0058 34.9018 23.132 34.7512 23.319 34.6615C23.5063 34.5718 23.7058 34.568 23.9175 34.65C24.1288 34.732 24.2922 34.8667 24.4075 35.054L28.0115 42.1845C28.1012 42.3718 28.107 42.5712 28.029 42.7825C27.9507 42.9942 27.818 43.1448 27.631 43.2345ZM39.669 43.223C39.482 43.3127 39.2827 43.323 39.071 43.254C38.8597 43.1847 38.709 43.0563 38.619 42.869L35.0155 35.7C34.9258 35.5127 34.9137 35.3133 34.979 35.102C35.0443 34.8903 35.1705 34.7397 35.3575 34.65C35.5448 34.5347 35.7443 34.518 35.956 34.6C36.1673 34.682 36.3307 34.8167 36.446 35.004L40.05 42.173C40.1397 42.3603 40.1455 42.5597 40.0675 42.771C39.9892 42.9827 39.8563 43.1333 39.669 43.223ZM15.631 43.223C15.4437 43.3127 15.2378 43.3313 15.0135 43.279C14.7892 43.2263 14.6322 43.0937 14.5425 42.881L10.9385 35.7115C10.8488 35.5245 10.845 35.3252 10.927 35.1135C11.009 34.9018 11.1437 34.7512 11.331 34.6615C11.518 34.5718 11.7173 34.5597 11.929 34.625C12.1403 34.6903 12.291 34.8167 12.381 35.004L15.9845 42.1845C16.0742 42.3718 16.0845 42.5693 16.0155 42.777C15.9462 42.9847 15.818 43.1333 15.631 43.223ZM14.769 30.5385C12.0743 30.5385 9.7725 29.584 7.8635 27.675C5.9545 25.766 5 23.464 5 20.769C5 18.2383 5.8775 16.0358 7.6325 14.1615C9.38783 12.2872 11.6142 11.2372 14.3115 11.0115C15.3012 9.14483 16.6327 7.67633 18.306 6.606C19.979 5.53533 21.877 5 24 5C26.8793 5 29.312 5.952 31.298 7.856C33.284 9.75967 34.4462 12.1282 34.7845 14.9615C37.4178 15.0692 39.4455 15.8903 40.8675 17.425C42.2892 18.9597 43 20.741 43 22.769C43 24.923 42.2455 26.7563 40.7365 28.269C39.2275 29.782 37.3923 30.5385 35.231 30.5385H14.769ZM14.769 29H35.231C36.9437 29 38.4103 28.3878 39.631 27.1635C40.8513 25.9392 41.4615 24.4743 41.4615 22.769C41.4615 21.0563 40.8513 19.5897 39.631 18.369C38.4103 17.1487 36.9437 16.5385 35.231 16.5385H33.231V15.769C33.231 13.223 32.329 11.048 30.525 9.244C28.721 7.44033 26.546 6.5385 24 6.5385C22.146 6.5385 20.453 7.04167 18.921 8.048C17.389 9.05433 16.2512 10.405 15.5075 12.1L15.3385 12.5385H14.669C12.423 12.6052 10.5063 13.434 8.919 15.025C7.332 16.616 6.5385 18.5307 6.5385 20.769C6.5385 23.041 7.34233 24.9808 8.95 26.5885C10.5577 28.1962 12.4973 29 14.769 29Z" fill="#F5F5F5"/>
<path d="M33.7628 43.6856C33.5754 43.8009 33.3759 43.8241 33.1643 43.7551C32.9529 43.6858 32.8024 43.5448 32.7128 43.3321L29.1088 36.1626C29.0191 35.9756 29.0069 35.7763 29.0723 35.5646C29.1376 35.3529 29.2638 35.2023 29.4508 35.1126C29.6381 35.0229 29.8376 35.0191 30.0493 35.1011C30.2606 35.1831 30.4239 35.3178 30.5393 35.5051L34.1433 42.6356C34.2329 42.8229 34.2388 43.0223 34.1608 43.2336C34.0824 43.4453 33.9498 43.5959 33.7628 43.6856ZM45.8008 43.6741C45.6138 43.7638 45.4144 43.7741 45.2028 43.7051C44.9914 43.6358 44.8408 43.5074 44.7508 43.3201L41.1473 36.1511C41.0576 35.9638 41.0454 35.7644 41.1108 35.5531C41.1761 35.3414 41.3023 35.1908 41.4893 35.1011C41.6766 34.9858 41.8761 34.9691 42.0878 35.0511C42.2991 35.1331 42.4624 35.2678 42.5778 35.4551L46.1818 42.6241C46.2714 42.8114 46.2773 43.0108 46.1993 43.2221C46.1209 43.4338 45.9881 43.5844 45.8008 43.6741ZM21.7628 43.6741C21.5754 43.7638 21.3696 43.7824 21.1453 43.7301C20.9209 43.6774 20.7639 43.5448 20.6743 43.3321L17.0703 36.1626C16.9806 35.9756 16.9768 35.7763 17.0588 35.5646C17.1408 35.3529 17.2754 35.2023 17.4628 35.1126C17.6498 35.0229 17.8491 35.0108 18.0608 35.0761C18.2721 35.1414 18.4228 35.2678 18.5128 35.4551L22.1163 42.6356C22.2059 42.8229 22.2163 43.0204 22.1473 43.2281C22.0779 43.4358 21.9498 43.5844 21.7628 43.6741Z" fill="#F5F5F5"/>
</g>
</svg>
