<svg width="48" height="48" viewBox="0 0 48 48" fill="none" xmlns="http://www.w3.org/2000/svg">
<path d="M24.7528 18.75C24.7528 19.0467 24.6648 19.3367 24.5 19.5834C24.3351 19.83 24.1009 20.0223 23.8268 20.1358C23.5527 20.2493 23.2511 20.2791 22.9601 20.2212C22.6692 20.1633 22.4019 20.0204 22.1921 19.8107C21.9823 19.6009 21.8395 19.3336 21.7816 19.0426C21.7237 18.7517 21.7534 18.4501 21.8669 18.176C21.9805 17.9019 22.1727 17.6676 22.4194 17.5028C22.6661 17.338 22.9561 17.25 23.2528 17.25C23.6506 17.25 24.0321 17.408 24.3134 17.6893C24.5947 17.9706 24.7528 18.3522 24.7528 18.75ZM42.7528 24.2662C42.6712 29.1243 40.7124 33.7621 37.2869 37.2079C33.8614 40.6536 29.2352 42.6397 24.3778 42.75H23.9859C19.3876 42.782 14.9398 41.1124 11.4984 38.0625C11.4245 37.9968 11.3643 37.9171 11.3212 37.8281C11.2782 37.7391 11.253 37.6425 11.2473 37.5438C11.2357 37.3444 11.3037 37.1486 11.4365 36.9994C11.5693 36.8502 11.7559 36.7599 11.9553 36.7483C12.1546 36.7367 12.3505 36.8047 12.4996 36.9375C13.8401 38.1362 15.3654 39.1106 17.0165 39.8231L22.8946 31.74C18.1771 29.3025 12.779 30.2212 10.1184 30.6712C9.15001 30.8402 8.1536 30.7324 7.24376 30.3603C6.33393 29.9881 5.54761 29.3667 4.97527 28.5675C4.96589 28.5544 4.95651 28.5412 4.94901 28.5281L2.36339 24.4031C2.31127 24.3203 2.27615 24.2278 2.26005 24.1313C2.24396 24.0347 2.24722 23.9359 2.26964 23.8406C2.2919 23.7442 2.33301 23.6532 2.39061 23.5727C2.44822 23.4923 2.52117 23.424 2.60526 23.3719L21.7528 11.58V6C21.7528 5.80109 21.8318 5.61032 21.9724 5.46967C22.1131 5.32902 22.3039 5.25 22.5028 5.25H24.0028C26.4876 5.24975 28.9477 5.74341 31.2401 6.70229C33.5325 7.66118 35.6114 9.06615 37.356 10.8355C39.1007 12.6049 40.4762 14.7035 41.4027 17.0091C42.3291 19.3148 42.788 21.7816 42.7528 24.2662ZM36.2878 11.8912C34.6871 10.2574 32.7753 8.96078 30.6654 8.07777C28.5555 7.19476 26.29 6.74329 24.0028 6.75H23.2528V12C23.2529 12.1281 23.2203 12.2542 23.1579 12.3661C23.0956 12.478 23.0056 12.5721 22.8965 12.6394L4.03964 24.2419L6.21089 27.7144C6.62098 28.2794 7.18143 28.7179 7.82847 28.9801C8.47551 29.2423 9.18316 29.3176 9.87089 29.1975C12.8109 28.6987 18.8859 27.6731 24.194 30.7444C26.3494 30.6954 28.4 29.8046 29.9068 28.2627C31.4137 26.7208 32.2571 24.6503 32.2565 22.4944C32.2565 22.2955 32.3355 22.1047 32.4762 21.964C32.6168 21.8234 32.8076 21.7444 33.0065 21.7444C33.2054 21.7444 33.3962 21.8234 33.5368 21.964C33.6775 22.1047 33.7565 22.2955 33.7565 22.4944C33.7571 25.0151 32.7826 27.4384 31.0368 29.2568C29.2911 31.0753 26.9096 32.1478 24.3909 32.25L18.4734 40.3875C20.3703 41.0038 22.3576 41.2954 24.3515 41.25C27.7235 41.1827 31.0017 40.1284 33.7807 38.2175C36.5598 36.3067 38.7177 33.6231 39.9876 30.4987C41.2575 27.3743 41.5837 23.9462 40.9258 20.6384C40.2679 17.3305 38.6547 14.2882 36.2859 11.8875L36.2878 11.8912Z" fill="#F5F5F5"/>
</svg>
