<svg width="48" height="48" viewBox="0 0 48 48" fill="none" xmlns="http://www.w3.org/2000/svg">
<mask id="mask0_124_391" style="mask-type:alpha" maskUnits="userSpaceOnUse" x="0" y="0" width="48" height="48">
<rect width="48" height="48" fill="#D9D9D9"/>
</mask>
<g mask="url(#mask0_124_391)">
<path d="M8.769 36C8.00067 36 7.347 35.7302 6.808 35.1905C6.26933 34.6508 6 33.9977 6 33.231V14.769C6 14.0007 6.26933 13.347 6.808 12.808C7.347 12.2693 8.00067 12 8.769 12H39.231C39.9993 12 40.653 12.2693 41.192 12.808C41.7307 13.347 42 14.0007 42 14.769V33.231C42 33.9977 41.7307 34.6508 41.192 35.1905C40.653 35.7302 39.9993 36 39.231 36H8.769ZM8.769 34.4615H39.231C39.5387 34.4615 39.8207 34.3333 40.077 34.077C40.3333 33.8207 40.4615 33.5387 40.4615 33.231V14.769C40.4615 14.4613 40.3333 14.1793 40.077 13.923C39.8207 13.6667 39.5387 13.5385 39.231 13.5385H8.769C8.46133 13.5385 8.17933 13.6667 7.923 13.923C7.66667 14.1793 7.5385 14.4613 7.5385 14.769V33.231C7.5385 33.5387 7.66667 33.8207 7.923 34.077C8.17933 34.3333 8.46133 34.4615 8.769 34.4615ZM16 31.404H32V28.7885H16V31.404ZM10.5345 25.3075H13.15V22.6925H10.5345V25.3075ZM16.619 25.3075H19.2345V22.6925H16.619V25.3075ZM22.6925 25.3075H25.3075V22.6925H22.6925V25.3075ZM28.777 25.3075H31.3925V22.6925H28.777V25.3075ZM34.85 25.3075H37.4655V22.6925H34.85V25.3075ZM10.5345 19.173H13.15V16.5575H10.5345V19.173ZM16.619 19.173H19.2345V16.5575H16.619V19.173ZM22.6925 19.173H25.3075V16.5575H22.6925V19.173ZM28.777 19.173H31.3925V16.5575H28.777V19.173ZM34.85 19.173H37.4655V16.5575H34.85V19.173Z" fill="#F5F5F5"/>
</g>
</svg>
