<svg width="48" height="48" viewBox="0 0 48 48" fill="none" xmlns="http://www.w3.org/2000/svg">
<mask id="mask0_123_848" style="mask-type:alpha" maskUnits="userSpaceOnUse" x="0" y="0" width="48" height="48">
<rect width="48" height="48" fill="#D9D9D9"/>
</mask>
<g mask="url(#mask0_123_848)">
<path d="M32.4003 17.0615V10.769H15.6003V17.0615H14.0618V9.23047H33.9388V17.0615H32.4003ZM35.6618 23.4655C36.1515 23.4655 36.572 23.2896 36.9233 22.938C37.2746 22.586 37.4503 22.1718 37.4503 21.6955C37.4503 21.2191 37.2745 20.8053 36.9228 20.454C36.5711 20.1026 36.1573 19.927 35.6813 19.927C35.1786 19.927 34.758 20.1028 34.4193 20.4545C34.081 20.8061 33.9118 21.2203 33.9118 21.697C33.9118 22.1733 34.081 22.5871 34.4193 22.9385C34.758 23.2898 35.1721 23.4655 35.6618 23.4655ZM32.4003 38.4615V28.631H15.6003V38.4615H32.4003ZM33.9388 40H14.0618V31.623H7.1543V20.7075C7.1543 19.6958 7.5088 18.8351 8.2178 18.1255C8.9268 17.4161 9.80046 17.0615 10.8388 17.0615H37.1618C38.2058 17.0615 39.081 17.4161 39.7873 18.1255C40.4933 18.8351 40.8463 19.6958 40.8463 20.7075V31.623H33.9388V40ZM39.3078 30.0845V20.697C39.3078 20.1143 39.1021 19.6191 38.6908 19.2115C38.2795 18.8038 37.7698 18.6 37.1618 18.6H10.8388C10.2308 18.6 9.72113 18.8076 9.3098 19.223C8.89846 19.638 8.6928 20.1328 8.6928 20.7075V30.0845H14.0618V27.0925H33.9388V30.0845H39.3078Z" fill="#F5F5F5"/>
</g>
</svg>
