<svg width="48" height="48" viewBox="0 0 48 48" fill="none" xmlns="http://www.w3.org/2000/svg">
<mask id="mask0_123_634" style="mask-type:alpha" maskUnits="userSpaceOnUse" x="0" y="0" width="48" height="48">
<rect width="48" height="48" fill="#D9D9D9"/>
</mask>
<g mask="url(#mask0_123_634)">
<path d="M24.006 42C20.107 42 16.798 40.62 14.079 37.86C11.3597 35.0997 10 31.7567 10 27.831V18.273C10 14.708 11.3948 11.7713 14.1845 9.463C16.9742 7.15433 20.246 6 24 6C27.5743 6 30.8013 7.12383 33.681 9.3715C36.5603 11.6195 38 14.5835 38 18.2635V42H24.006ZM24 40.4615H31.027C29.627 39.5642 28.516 38.3745 27.694 36.8925C26.8723 35.4102 26.4615 33.7793 26.4615 32V30.319C26.0598 30.3857 25.6582 30.4318 25.2565 30.4575C24.8548 30.4832 24.4423 30.496 24.019 30.496C21.4913 30.496 19.1287 29.9338 16.931 28.8095C14.7333 27.6852 12.9602 26.0807 11.6115 23.996L11.5385 27.831C11.5385 31.3243 12.7437 34.3028 15.154 36.7665C17.564 39.2298 20.5127 40.4615 24 40.4615ZM28 32C28 34.3283 28.8282 36.3207 30.4845 37.977C32.1408 39.6333 34.1332 40.4615 36.4615 40.4615L36.3885 24.0345C35.3878 25.5592 34.1723 26.814 32.742 27.799C31.3113 28.7843 29.7307 29.5103 28 29.977V32ZM23.231 20.169C23.231 17.7537 22.3578 15.7108 20.6115 14.0405C18.8655 12.3698 16.7612 11.5088 14.2985 11.4575C13.4455 12.3528 12.7723 13.3765 12.279 14.5285C11.7853 15.6808 11.5385 16.929 11.5385 18.273C11.5385 21.432 12.7872 24.0025 15.2845 25.9845C17.7818 27.9665 20.688 28.9575 24.003 28.9575C27.318 28.9575 30.2232 27.9665 32.7185 25.9845C35.2138 24.0025 36.4615 21.432 36.4615 18.273C36.4615 16.9023 36.2078 15.6423 35.7005 14.493C35.1932 13.3437 34.4917 12.319 33.596 11.419C31.1763 11.526 29.1003 12.4088 27.368 14.0675C25.6353 15.7262 24.769 17.76 24.769 20.169H23.231ZM17.377 19.504C17.0383 19.504 16.753 19.3853 16.521 19.148C16.289 18.9107 16.173 18.6165 16.173 18.2655C16.173 17.9398 16.2917 17.6545 16.529 17.4095C16.7663 17.1648 17.0605 17.0425 17.4115 17.0425C17.7372 17.0425 18.0225 17.1673 18.2675 17.417C18.5122 17.667 18.6345 17.9612 18.6345 18.2995C18.6345 18.6382 18.5097 18.9237 18.26 19.156C18.01 19.388 17.7157 19.504 17.377 19.504ZM30.608 19.504C30.2693 19.504 29.984 19.3853 29.752 19.148C29.52 18.9107 29.404 18.6165 29.404 18.2655C29.404 17.9398 29.5227 17.6545 29.76 17.4095C29.9973 17.1648 30.2913 17.0425 30.642 17.0425C30.968 17.0425 31.2533 17.1673 31.498 17.417C31.743 17.667 31.8655 17.9612 31.8655 18.2995C31.8655 18.6382 31.7405 18.9237 31.4905 19.156C31.2408 19.388 30.9467 19.504 30.608 19.504ZM15.8885 10.0575C17.7295 10.3962 19.3628 11.1193 20.7885 12.227C22.2142 13.3347 23.2847 14.6923 24 16.3C24.6897 14.6847 25.7518 13.3315 27.1865 12.2405C28.6212 11.1495 30.2462 10.4218 32.0615 10.0575C30.9178 9.26017 29.6652 8.641 28.3035 8.2C26.9422 7.759 25.5073 7.5385 23.999 7.5385C22.491 7.5385 21.0417 7.759 19.651 8.2C18.2607 8.641 17.0065 9.26017 15.8885 10.0575ZM24 40.4615C20.5127 40.4615 17.564 39.2298 15.154 36.7665C12.7437 34.3028 11.5385 31.3243 11.5385 27.831H11.6115C11.5705 31.341 12.7577 34.3237 15.173 36.779C17.5887 39.234 20.531 40.4615 24 40.4615ZM28 32C28 34.3283 28.8198 36.3207 30.4595 37.977C32.0992 39.6333 34.0755 40.4615 36.3885 40.4615H36.4615C34.1332 40.4615 32.1408 39.6333 30.4845 37.977C28.8282 36.3207 28 34.3283 28 32Z" fill="#F5F5F5"/>
</g>
</svg>
