<svg width="48" height="48" viewBox="0 0 48 48" fill="none" xmlns="http://www.w3.org/2000/svg">
<mask id="mask0_123_766" style="mask-type:alpha" maskUnits="userSpaceOnUse" x="0" y="0" width="48" height="48">
<rect width="48" height="48" fill="#D9D9D9"/>
</mask>
<g mask="url(#mask0_123_766)">
<path d="M8.7742 25.6075C8.27854 25.6075 7.84604 25.426 7.4767 25.063C7.10737 24.6997 6.9227 24.2702 6.9227 23.7745C6.9227 23.2789 7.10437 22.8464 7.4677 22.477C7.83104 22.1077 8.26054 21.923 8.7562 21.923C9.25187 21.923 9.68437 22.1047 10.0537 22.468C10.4227 22.8314 10.6072 23.2609 10.6072 23.7565C10.6072 24.2522 10.4257 24.6847 10.0627 25.054C9.69937 25.423 9.26987 25.6075 8.7742 25.6075ZM7.3922 43V35.3155H5.8457V27.9885C5.8457 27.7739 5.92654 27.6042 6.0882 27.4795C6.24987 27.3549 6.4502 27.2925 6.6892 27.2925H10.8352C11.0742 27.2925 11.2755 27.3549 11.4392 27.4795C11.6025 27.6042 11.6842 27.7739 11.6842 27.9885V35.3155H10.1572V41.4615H29.5187V28.2345H24.7382C23.0135 28.2345 21.5497 27.662 20.3467 26.517C19.1437 25.372 18.5422 24.001 18.5422 22.404C18.5422 21.0577 18.9877 19.7935 19.8787 18.6115C20.7697 17.4295 21.9715 16.5424 23.4842 15.95C23.5125 13.7707 24.2369 12.029 25.6572 10.725C27.0779 9.42104 28.6414 8.76904 30.3477 8.76904C32.054 8.76904 33.6155 9.42104 35.0322 10.725C36.4489 12.029 37.1752 13.7707 37.2112 15.95C38.7242 16.5424 39.9262 17.4295 40.8172 18.6115C41.7082 19.7935 42.1537 21.0577 42.1537 22.404C42.1537 24.001 41.5517 25.372 40.3477 26.517C39.144 27.662 37.6767 28.2345 35.9457 28.2345H31.0572V41.4615H41.2997V43H7.3922ZM24.7382 26.696H35.9457C37.1867 26.696 38.2752 26.2887 39.2112 25.474C40.1472 24.659 40.6152 23.6395 40.6152 22.4155C40.6152 21.2649 40.237 20.249 39.4807 19.368C38.724 18.4867 37.8112 17.8332 36.7422 17.4075L35.5957 16.9655L35.6727 15.9925C35.724 14.4155 35.2225 13.0739 34.1682 11.9675C33.1142 10.8609 31.8365 10.3075 30.3352 10.3075C28.8342 10.3075 27.5607 10.8609 26.5147 11.9675C25.4687 13.0739 24.9714 14.4155 25.0227 15.9925L25.0997 16.9655L23.9922 17.4075C22.8972 17.8332 21.9715 18.4867 21.2152 19.368C20.4589 20.249 20.0807 21.2649 20.0807 22.4155C20.0807 23.6395 20.5467 24.659 21.4787 25.474C22.4107 26.2887 23.4972 26.696 24.7382 26.696Z" fill="#F5F5F5"/>
</g>
</svg>
