<svg width="48" height="48" viewBox="0 0 48 48" fill="none" xmlns="http://www.w3.org/2000/svg">
<mask id="mask0_124_584" style="mask-type:alpha" maskUnits="userSpaceOnUse" x="0" y="0" width="48" height="48">
<rect width="48" height="48" fill="#D9D9D9"/>
</mask>
<g mask="url(#mask0_124_584)">
<path d="M24 42C22.054 42 20.2015 41.7063 18.4425 41.119C16.6835 40.532 15.068 39.7142 13.596 38.6655L14.681 37.5425C16.0143 38.4525 17.4713 39.1665 19.052 39.6845C20.6327 40.2025 22.282 40.4615 24 40.4615C25.7513 40.4615 27.411 40.2025 28.979 39.6845C30.547 39.1665 31.9937 38.4525 33.319 37.5425L34.404 38.6655C32.932 39.7142 31.3165 40.532 29.5575 41.119C27.7985 41.7063 25.946 42 24 42ZM9.346 34.404C8.29733 32.932 7.4775 31.3165 6.8865 29.5575C6.2955 27.7985 6 25.946 6 24C6 22.054 6.29367 20.2015 6.881 18.4425C7.468 16.6835 8.28583 15.068 9.3345 13.596L10.4575 14.681C9.5475 16.0063 8.8335 17.453 8.3155 19.021C7.7975 20.589 7.5385 22.2487 7.5385 24C7.5385 25.7513 7.78917 27.411 8.2905 28.979C8.79183 30.547 9.51417 31.9977 10.4575 33.331L9.346 34.404ZM38.6655 34.404L37.5425 33.319C38.4525 31.9857 39.1665 30.537 39.6845 28.973C40.2025 27.409 40.4615 25.7513 40.4615 24C40.4615 22.2487 40.2108 20.5872 39.7095 19.0155C39.2082 17.4435 38.5025 15.9947 37.5925 14.669L38.6655 13.596C39.7142 15.068 40.532 16.6835 41.119 18.4425C41.7063 20.2015 42 22.054 42 24C42 25.946 41.7063 27.7985 41.119 29.5575C40.532 31.3165 39.7142 32.932 38.6655 34.404ZM14.681 10.4575L13.596 9.3345C15.068 8.28583 16.6835 7.468 18.4425 6.881C20.2015 6.29367 22.054 6 24 6C25.946 6 27.7985 6.29367 29.5575 6.881C31.3165 7.468 32.932 8.28583 34.404 9.3345L33.331 10.4075C31.9977 9.4975 30.547 8.79183 28.979 8.2905C27.411 7.78917 25.7513 7.5385 24 7.5385C22.2487 7.5385 20.591 7.7975 19.027 8.3155C17.463 8.8335 16.0143 9.5475 14.681 10.4575ZM26 34.769C24.9873 34.769 24.0617 34.4703 23.223 33.873C22.3847 33.2757 21.8078 32.4743 21.4925 31.469C21.3592 31.059 21.2002 30.6783 21.0155 30.327C20.8308 29.9757 20.5923 29.6538 20.3 29.3615L17.6 26.65C16.8437 25.868 16.2597 24.9968 15.848 24.0365C15.4367 23.0762 15.231 22.064 15.231 21C15.231 18.8127 15.9873 16.971 17.5 15.475C19.0127 13.979 20.846 13.231 23 13.231C24.9873 13.231 26.7123 13.8668 28.175 15.1385C29.6377 16.4102 30.4857 17.9973 30.719 19.9H29.169C28.9023 18.395 28.1922 17.1637 27.0385 16.206C25.8845 15.248 24.5383 14.769 23 14.769C21.295 14.769 19.8303 15.373 18.606 16.581C17.3813 17.7887 16.769 19.2617 16.769 21C16.769 21.8437 16.9363 22.6583 17.271 23.444C17.6057 24.23 18.082 24.932 18.7 25.55L21.4 28.25C21.782 28.632 22.0935 29.0622 22.3345 29.5405C22.5755 30.0185 22.7832 30.5153 22.9575 31.031C23.1755 31.659 23.5653 32.1827 24.127 32.602C24.6883 33.0213 25.3127 33.231 26 33.231C26.905 33.231 27.6697 32.9103 28.294 32.269C28.9187 31.628 29.231 30.8717 29.231 30H30.769C30.769 31.295 30.3063 32.4137 29.381 33.356C28.4553 34.298 27.3283 34.769 26 34.769ZM27 26.769C26.5383 26.769 26.128 26.5897 25.769 26.231C25.4103 25.872 25.231 25.4617 25.231 25C25.231 24.505 25.4103 24.0863 25.769 23.744C26.128 23.402 26.5383 23.231 27 23.231C27.495 23.231 27.9137 23.402 28.256 23.744C28.598 24.0863 28.769 24.505 28.769 25C28.769 25.4617 28.598 25.872 28.256 26.231C27.9137 26.5897 27.495 26.769 27 26.769Z" fill="#F5F5F5"/>
</g>
</svg>
