<svg width="48" height="48" viewBox="0 0 48 48" fill="none" xmlns="http://www.w3.org/2000/svg">
<mask id="mask0_124_481" style="mask-type:alpha" maskUnits="userSpaceOnUse" x="0" y="0" width="48" height="48">
<rect width="48" height="48" fill="#D9D9D9"/>
</mask>
<g mask="url(#mask0_124_481)">
<path d="M8.769 42C8.00067 42 7.347 41.7307 6.808 41.192C6.26933 40.653 6 39.9994 6 39.231V16.9885C6 16.1269 6.29483 15.3634 6.8845 14.698C7.47417 14.0327 8.17933 13.541 9 13.223L29.569 4.91553L30.096 6.30003L10.9925 14H39.231C39.9993 14 40.653 14.2694 41.192 14.808C41.7307 15.347 42 16.0007 42 16.769V39.231C42 39.9994 41.7307 40.653 41.192 41.192C40.653 41.7307 39.9993 42 39.231 42H8.769ZM8.769 40.4615H39.231C39.5387 40.4615 39.8207 40.3334 40.077 40.077C40.3333 39.8207 40.4615 39.5387 40.4615 39.231V24.846H7.5385V39.231C7.5385 39.5387 7.66667 39.8207 7.923 40.077C8.17933 40.3334 8.46133 40.4615 8.769 40.4615ZM15.6945 36.696C16.8468 36.696 17.8257 36.289 18.631 35.475C19.436 34.661 19.8385 33.6777 19.8385 32.525C19.8385 31.3724 19.4315 30.3935 18.6175 29.5885C17.8032 28.7835 16.8198 28.381 15.6675 28.381C14.5148 28.381 13.536 28.788 12.731 29.602C11.9257 30.416 11.523 31.3994 11.523 32.552C11.523 33.7047 11.9302 34.6835 12.7445 35.4885C13.5585 36.2935 14.5418 36.696 15.6945 36.696ZM7.5385 23.3075H33.4615V20.077H35V23.3075H40.4615V16.769C40.4615 16.4614 40.3333 16.1794 40.077 15.923C39.8207 15.6667 39.5387 15.5385 39.231 15.5385H8.769C8.46133 15.5385 8.17933 15.6667 7.923 15.923C7.66667 16.1794 7.5385 16.4614 7.5385 16.769V23.3075Z" fill="#F5F5F5"/>
</g>
</svg>
