<svg width="48" height="48" viewBox="0 0 48 48" fill="none" xmlns="http://www.w3.org/2000/svg">
<path d="M6 46.4615V38.777L22.769 16.2155L20.5 13.2075L22.123 12L24 14.5575L25.9155 12L27.5 13.2075L25.269 16.2155L42 38.777V46.4615H6ZM24 17.9115L8 39.423V44.4615H14.5L24 31.1925L33.5 44.4615H40V39.423L24 17.9115ZM16.977 44.4615H31.023L24 34.6305L16.977 44.4615Z" fill="#F5F5F5"/>
<path d="M6.99805 16.1396L8.18407 22.363" stroke="#F5F5F5" stroke-width="0.5" stroke-linecap="round"/>
<path d="M8.6582 24.8523L9.84423 31.0757" stroke="#F5F5F5" stroke-width="0.5" stroke-linecap="round"/>
<path d="M14.9922 16.4188L15.7038 20.1529" stroke="#F5F5F5" stroke-width="0.5" stroke-linecap="round"/>
<path d="M16.0625 22.02L16.7741 25.7541" stroke="#F5F5F5" stroke-width="0.5" stroke-linecap="round"/>
<path d="M34.9805 17.1168L35.6921 20.8509" stroke="#F5F5F5" stroke-width="0.5" stroke-linecap="round"/>
<path d="M37.1152 28.319L37.8268 32.053" stroke="#F5F5F5" stroke-width="0.5" stroke-linecap="round"/>
<path d="M36.0508 22.718L36.7624 26.4521" stroke="#F5F5F5" stroke-width="0.5" stroke-linecap="round"/>
<path d="M10.9961 16.2792L13.8425 31.2153" stroke="#F5F5F5" stroke-width="0.5" stroke-linecap="round"/>
<path d="M30.9824 16.9772L34 31" stroke="#F5F5F5" stroke-width="0.5" stroke-linecap="round"/>
<path d="M3 16L5.84645 30.9362" stroke="#F5F5F5" stroke-width="0.5" stroke-linecap="round"/>
<path d="M27.0008 17L29.0014 24" stroke="#F5F5F5" stroke-width="0.5" stroke-linecap="round"/>
<path d="M38.9785 17.2563L41.825 32.1925" stroke="#F5F5F5" stroke-width="0.5" stroke-linecap="round"/>
</svg>
