<svg width="48" height="48" viewBox="0 0 48 48" fill="none" xmlns="http://www.w3.org/2000/svg">
<path d="M8.73684 38.217H4L39.2632 9.78327C38.7368 8.33748 39.7105 5 43.5 5L43.4737 9.78327V12.1929H40.8421L13.4737 34.3774L8.73684 38.217Z" fill="#F5F5F5"/>
<path d="M43.4737 9.78327V12.1929H40.8421L8.73684 38.217H4L39.2632 9.78327M43.4737 9.78327H39.2632M43.4737 9.78327L43.5 5C39.7105 5 38.7368 8.33748 39.2632 9.78327M34.5263 44.0001V31.47H43.4737M37.6842 44.0001V34.3616H43.4737M13.4737 44.0001V34.3774" stroke="#F5F5F5"/>
<path d="M11.8945 22.3134H12.8945V27.1326L11.8945 28.0965V22.3134Z" fill="#F5F5F5"/>
<path d="M7 26.4941H8V31.3134L7 32.2773V26.4941Z" fill="#F5F5F5"/>
<path d="M11.8945 15.5663H12.8945V19.4217H11.8945V15.5663Z" fill="#F5F5F5"/>
<path d="M7 19.7471H8V23.6025H7V19.7471Z" fill="#F5F5F5"/>
<path d="M17.1562 11.7108H18.1562V15.5662H17.1562V11.7108Z" fill="#F5F5F5"/>
<path d="M22.4219 6.8916H23.4219V10.747H22.4219V6.8916Z" fill="#F5F5F5"/>
<path d="M27.6836 4H28.6836V6.89157H27.6836V4Z" fill="#F5F5F5"/>
<path d="M11.8945 8.81921H12.8945V12.6746H11.8945V8.81921Z" fill="#F5F5F5"/>
<path d="M7 6H8V9.85542H7V6Z" fill="#F5F5F5"/>
<path d="M7 13H8V16.8554H7V13Z" fill="#F5F5F5"/>
<path d="M17.1562 4H18.1562V8.81928H17.1562V4Z" fill="#F5F5F5"/>
<path d="M17.1562 18.4576H18.1562V23.2769L17.1562 24.2408V18.4576Z" fill="#F5F5F5"/>
<path d="M22.4219 13.6387H23.4219V18.4579L22.4219 19.4218V13.6387Z" fill="#F5F5F5"/>
<path d="M27.6836 9.78296H28.6836V14.6022L27.6836 15.5661V9.78296Z" fill="#F5F5F5"/>
<path d="M32.9492 5.92761H33.9492V10.7469L32.9492 11.7107V5.92761Z" fill="#F5F5F5"/>
</svg>
