<svg width="48" height="48" viewBox="0 0 48 48" fill="none" xmlns="http://www.w3.org/2000/svg">
<g clip-path="url(#clip0_123_458)">
<rect x="0.619307" y="0.76478" width="32.5995" height="32.5995" transform="matrix(0.999391 0.0348995 -0.173648 0.984808 12.0492 10.99)" stroke="#F5F5F5" stroke-width="1.5"/>
<rect x="0.206436" y="0.254927" width="30.9764" height="30.9764" transform="matrix(0.999391 0.0348995 -0.173648 0.984808 13.0424 12.3343)" stroke="#F5F5F5" stroke-width="0.5"/>
<rect x="0.270744" y="0.334341" width="0.655759" height="30.8207" transform="matrix(0.999391 0.0348995 -0.173648 0.984808 28.1324 12.8594)" stroke="#F5F5F5" stroke-width="0.655759"/>
<rect x="0.384615" y="-0.311455" width="0.655759" height="30.8207" transform="matrix(0.173648 -0.984808 0.999391 0.0348995 10.7795 28.5604)" stroke="#F5F5F5" stroke-width="0.655759"/>
<path d="M7.99805 4.13965L9.93327 14.2943" stroke="#F5F5F5" stroke-width="0.5" stroke-linecap="round"/>
<path d="M10.707 18.3561L12.6423 28.5107" stroke="#F5F5F5" stroke-width="0.5" stroke-linecap="round"/>
<path d="M23.9883 4.698L25.9235 14.8527" stroke="#F5F5F5" stroke-width="0.5" stroke-linecap="round"/>
<path d="M26.6973 18.9144L28.6325 29.0691" stroke="#F5F5F5" stroke-width="0.5" stroke-linecap="round"/>
<path d="M15.9922 4.41882L17.1533 10.5116" stroke="#F5F5F5" stroke-width="0.5" stroke-linecap="round"/>
<path d="M19.4766 22.6973L20.6377 28.7901" stroke="#F5F5F5" stroke-width="0.5" stroke-linecap="round"/>
<path d="M17.7344 13.558L18.8955 19.6508" stroke="#F5F5F5" stroke-width="0.5" stroke-linecap="round"/>
<path d="M35.9805 5.11682L37.1416 11.2096" stroke="#F5F5F5" stroke-width="0.5" stroke-linecap="round"/>
<path d="M39.4648 23.3953L40.626 29.4881" stroke="#F5F5F5" stroke-width="0.5" stroke-linecap="round"/>
<path d="M37.7227 14.256L38.8838 20.3488" stroke="#F5F5F5" stroke-width="0.5" stroke-linecap="round"/>
<path d="M11.9961 4.27917L16.6406 28.6504" stroke="#F5F5F5" stroke-width="0.5" stroke-linecap="round"/>
<path d="M31.9824 4.97717L36.627 29.3483" stroke="#F5F5F5" stroke-width="0.5" stroke-linecap="round"/>
<path d="M4 4L8.64453 28.3712" stroke="#F5F5F5" stroke-width="0.5" stroke-linecap="round"/>
<path d="M19.9902 4.55835L24.6348 28.9295" stroke="#F5F5F5" stroke-width="0.5" stroke-linecap="round"/>
<path d="M27.9863 4.83765L32.6309 29.2088" stroke="#F5F5F5" stroke-width="0.5" stroke-linecap="round"/>
<path d="M39.9785 5.25635L44.623 29.6275" stroke="#F5F5F5" stroke-width="0.5" stroke-linecap="round"/>
</g>
<defs>
<clipPath id="clip0_123_458">
<rect width="48" height="48" fill="white"/>
</clipPath>
</defs>
</svg>
