<svg width="48" height="48" viewBox="0 0 48 48" fill="none" xmlns="http://www.w3.org/2000/svg">
<mask id="mask0_75_242" style="mask-type:alpha" maskUnits="userSpaceOnUse" x="0" y="0" width="48" height="48">
<rect width="48" height="48" fill="#D9D9D9"/>
</mask>
<g mask="url(#mask0_75_242)">
<path d="M5 34.219V32.604C6.036 32.4757 6.8815 32.1115 7.5365 31.5115C8.1915 30.9115 9.21783 30.6115 10.6155 30.6115C12.0898 30.6115 13.218 30.9974 14 31.769C14.782 32.541 15.8743 32.927 17.277 32.927C18.6797 32.927 19.7822 32.541 20.5845 31.769C21.3872 30.9974 22.5257 30.6115 24 30.6115C25.5 30.6115 26.6365 30.9974 27.4095 31.769C28.1825 32.541 29.2703 32.927 30.673 32.927C32.0757 32.927 33.1763 32.541 33.975 31.769C34.7737 30.9974 35.9102 30.6115 37.3845 30.6115C38.7822 30.6115 39.8085 30.9115 40.4635 31.5115C41.1185 32.1115 41.964 32.4757 43 32.604V34.219C41.946 34.0654 41.044 33.682 40.294 33.069C39.544 32.4564 38.5742 32.15 37.3845 32.15C36.0408 32.15 34.9613 32.5359 34.146 33.3075C33.3307 34.0795 32.173 34.4655 30.673 34.4655C29.1987 34.4655 28.0667 34.0795 27.277 33.3075C26.4873 32.5359 25.395 32.15 24 32.15C22.6307 32.15 21.5428 32.5359 20.7365 33.3075C19.9302 34.0795 18.777 34.4655 17.277 34.4655C15.8027 34.4655 14.6597 34.0795 13.848 33.3075C13.0367 32.5359 11.9592 32.15 10.6155 32.15C9.40017 32.15 8.43033 32.4564 7.706 33.069C6.98133 33.682 6.07933 34.0654 5 34.219ZM5 26.681V25.0655C6.036 24.9372 6.8815 24.573 7.5365 23.973C8.1915 23.373 9.21783 23.073 10.6155 23.073C12.0898 23.073 13.218 23.459 14 24.231C14.782 25.0027 15.8743 25.3885 17.277 25.3885C18.6797 25.3885 19.7822 25.0027 20.5845 24.231C21.3872 23.459 22.5257 23.073 24 23.073C25.5 23.073 26.6365 23.459 27.4095 24.231C28.1825 25.0027 29.2832 25.3885 30.7115 25.3885C32.1142 25.3885 33.2083 25.0027 33.994 24.231C34.78 23.459 35.9102 23.073 37.3845 23.073C38.8075 23.073 39.8402 23.373 40.4825 23.973C41.1248 24.573 41.964 24.9372 43 25.0655V26.681C41.946 26.527 41.044 26.1437 40.294 25.531C39.544 24.918 38.5742 24.6115 37.3845 24.6115C36.0408 24.6115 34.9613 24.9974 34.146 25.769C33.3307 26.541 32.173 26.927 30.673 26.927C29.1987 26.927 28.0667 26.541 27.277 25.769C26.4873 24.9974 25.395 24.6115 24 24.6115C22.6307 24.6115 21.5365 24.9974 20.7175 25.769C19.8982 26.541 18.7513 26.927 17.277 26.927C15.8027 26.927 14.6597 26.541 13.848 25.769C13.0367 24.9974 11.9592 24.6115 10.6155 24.6115C9.3745 24.6115 8.40467 24.918 7.706 25.531C7.007 26.1437 6.105 26.527 5 26.681ZM5 19.1425V17.527C6.036 17.3987 6.8815 17.0345 7.5365 16.4345C8.1915 15.8345 9.21783 15.5345 10.6155 15.5345C12.0898 15.5345 13.218 15.9205 14 16.6925C14.782 17.4642 15.8743 17.85 17.277 17.85C18.6797 17.85 19.7822 17.4642 20.5845 16.6925C21.3872 15.9205 22.5257 15.5345 24 15.5345C25.5 15.5345 26.6365 15.9205 27.4095 16.6925C28.1825 17.4642 29.2832 17.85 30.7115 17.85C32.1142 17.85 33.2083 17.4642 33.994 16.6925C34.78 15.9205 35.9102 15.5345 37.3845 15.5345C38.8075 15.5345 39.8402 15.8345 40.4825 16.4345C41.1248 17.0345 41.964 17.3987 43 17.527V19.1425C41.946 18.9885 41.044 18.6052 40.294 17.9925C39.544 17.3795 38.5742 17.073 37.3845 17.073C36.0408 17.073 34.9613 17.459 34.146 18.231C33.3307 19.0027 32.173 19.3885 30.673 19.3885C29.1987 19.3885 28.0667 19.0027 27.277 18.231C26.4873 17.459 25.395 17.073 24 17.073C22.6307 17.073 21.5365 17.459 20.7175 18.231C19.8982 19.0027 18.7513 19.3885 17.277 19.3885C15.8027 19.3885 14.6597 19.0027 13.848 18.231C13.0367 17.459 11.9592 17.073 10.6155 17.073C9.3745 17.073 8.39183 17.3795 7.6675 17.9925C6.94317 18.6052 6.054 18.9885 5 19.1425Z" fill="#F5F5F5"/>
</g>
</svg>
