<svg width="48" height="48" viewBox="0 0 48 48" fill="none" xmlns="http://www.w3.org/2000/svg">
<path d="M35.3412 6.32798C32.613 6.36736 29.8005 8.50486 28.9474 14.9249C28.788 16.1061 28.1599 17.2499 27.2412 18.3467C27.9068 18.0655 28.563 17.8967 29.2099 17.8967C29.6787 17.8967 30.1287 17.9811 30.5693 18.1686C32.3599 18.9561 33.4662 20.0155 33.9818 21.2155C34.4974 22.4155 34.3849 23.6624 34.0474 24.7405C33.7099 25.8092 33.1474 26.7467 32.6318 27.4499C32.1255 28.1624 31.7318 28.5842 31.488 28.7999C28.338 31.6686 22.5912 32.3061 17.5943 32.428C13.5349 32.5874 9.50367 32.1467 5.4893 31.6592C5.4893 31.6592 2.57086 32.5967 1.55273 33.0186C6.4268 34.5092 10.563 34.0499 14.6412 33.4217C19.5162 35.0436 30.1849 36.3842 37.2443 29.9342C40.7693 27.0374 40.638 21.8624 38.8849 15.6655L41.313 10.6967C41.0599 8.62017 38.2474 6.28486 35.3412 6.32798ZM37.6755 9.42173C38.088 9.42173 38.4255 9.75923 38.4255 10.1717C38.4255 10.5842 38.088 10.9217 37.6755 10.9217C37.263 10.9217 36.9255 10.5842 36.9255 10.1717C36.9255 9.75923 37.263 9.42173 37.6755 9.42173ZM43.0755 10.7905L41.5005 13.5936C42.0818 13.5842 42.6537 13.5561 43.0849 13.4905C44.3693 13.2092 45.1474 12.6936 46.4412 12.7124C45.813 11.6436 44.6505 11.0436 43.0755 10.7905ZM29.1443 19.5655C28.7224 19.5842 28.2255 19.7249 27.5974 20.0342C26.5474 20.5405 25.2255 21.478 23.5755 22.6874C20.7162 24.7874 16.863 27.6842 11.4255 30.5905C13.0568 30.6936 15.213 30.7874 17.5568 30.7405C22.413 30.628 27.9162 29.7655 30.3537 27.5436H30.363C30.3537 27.553 30.8224 27.0749 31.263 26.4655C31.7037 25.8561 32.1818 25.0499 32.4349 24.2342C32.6974 23.4092 32.7443 22.6124 32.4349 21.8811C32.1162 21.1405 31.4224 20.3811 29.8943 19.7249C29.7443 19.6499 29.5849 19.6124 29.4255 19.5842C29.3318 19.5749 29.238 19.5655 29.1443 19.5655ZM28.9568 35.7842C28.3849 35.9249 27.8224 36.0374 27.2693 36.1217V39.6936C26.7255 39.6842 26.163 39.6936 25.5818 39.7405V36.2905C25.0099 36.328 24.4474 36.3374 23.8943 36.328V39.9374C23.4912 40.003 23.088 40.078 22.6755 40.1717V41.6717H32.4255C31.6755 40.7249 30.4568 40.1342 28.9568 39.8717V35.7842Z" fill="#F5F5F5"/>
</svg>
