<svg width="48" height="48" viewBox="0 0 48 48" fill="none" xmlns="http://www.w3.org/2000/svg">
<mask id="mask0_124_459" style="mask-type:alpha" maskUnits="userSpaceOnUse" x="0" y="0" width="48" height="48">
<rect width="48" height="48" fill="#D9D9D9"/>
</mask>
<g mask="url(#mask0_124_459)">
<path d="M15.6475 33.3115C15.2875 33.3115 14.9768 33.1863 14.7155 32.936C14.4538 32.6853 14.323 32.3737 14.323 32.001C14.323 31.6287 14.4548 31.318 14.7185 31.069C14.9822 30.8203 15.2872 30.696 15.6335 30.696C16.0062 30.696 16.3168 30.8213 16.5655 31.072C16.8142 31.3223 16.9385 31.6338 16.9385 32.0065C16.9385 32.3792 16.8132 32.6898 16.5625 32.9385C16.3122 33.1872 16.0072 33.3115 15.6475 33.3115ZM23.9975 33.3115C23.6248 33.3115 23.3142 33.1863 23.0655 32.936C22.8168 32.6853 22.6925 32.3737 22.6925 32.001C22.6925 31.6287 22.8177 31.318 23.068 31.069C23.3187 30.8203 23.6302 30.696 24.0025 30.696C24.3752 30.696 24.6858 30.8213 24.9345 31.072C25.1832 31.3223 25.3075 31.6338 25.3075 32.0065C25.3075 32.3792 25.1823 32.6898 24.932 32.9385C24.6813 33.1872 24.3698 33.3115 23.9975 33.3115ZM32.3665 33.3115C31.9938 33.3115 31.6832 33.1863 31.4345 32.936C31.1858 32.6853 31.0615 32.3737 31.0615 32.001C31.0615 31.6287 31.1868 31.318 31.4375 31.069C31.6878 30.8203 31.9928 30.696 32.3525 30.696C32.7125 30.696 33.0232 30.8213 33.2845 31.072C33.5462 31.3223 33.677 31.6338 33.677 32.0065C33.677 32.3792 33.5452 32.6898 33.2815 32.9385C33.0178 33.1872 32.7128 33.3115 32.3665 33.3115ZM12 25.696V24.1575C12 21.0012 13.0993 18.2692 15.298 15.9615C17.4967 13.6538 20.141 12.3808 23.231 12.1425V8H24.769V12.1425C27.859 12.3808 30.5033 13.6538 32.702 15.9615C34.9007 18.2692 36 21.0012 36 24.1575V25.696H12ZM13.5385 24.1575H34.4615C34.4615 21.2782 33.443 18.8148 31.406 16.7675C29.3693 14.7198 26.906 13.696 24.016 13.696C21.126 13.696 18.6572 14.716 16.6095 16.756C14.5622 18.796 13.5385 21.2632 13.5385 24.1575ZM15.6475 39.6925C15.2875 39.6925 14.9768 39.5672 14.7155 39.3165C14.4538 39.0662 14.323 38.7547 14.323 38.382C14.323 38.0093 14.4548 37.6987 14.7185 37.45C14.9822 37.2013 15.2872 37.077 15.6335 37.077C16.0062 37.077 16.3168 37.2022 16.5655 37.4525C16.8142 37.7032 16.9385 38.0148 16.9385 38.3875C16.9385 38.7598 16.8132 39.0703 16.5625 39.319C16.3122 39.568 16.0072 39.6925 15.6475 39.6925ZM23.9975 39.6925C23.6248 39.6925 23.3142 39.5672 23.0655 39.3165C22.8168 39.0662 22.6925 38.7547 22.6925 38.382C22.6925 38.0093 22.8177 37.6987 23.068 37.45C23.3187 37.2013 23.6302 37.077 24.0025 37.077C24.3752 37.077 24.6858 37.2022 24.9345 37.4525C25.1832 37.7032 25.3075 38.0148 25.3075 38.3875C25.3075 38.7598 25.1823 39.0703 24.932 39.319C24.6813 39.568 24.3698 39.6925 23.9975 39.6925ZM32.3665 39.6925C31.9938 39.6925 31.6832 39.5672 31.4345 39.3165C31.1858 39.0662 31.0615 38.7547 31.0615 38.382C31.0615 38.0093 31.1868 37.6987 31.4375 37.45C31.6878 37.2013 31.9928 37.077 32.3525 37.077C32.7125 37.077 33.0232 37.2022 33.2845 37.4525C33.5462 37.7032 33.677 38.0148 33.677 38.3875C33.677 38.7598 33.5452 39.0703 33.2815 39.319C33.0178 39.568 32.7128 39.6925 32.3665 39.6925Z" fill="#F5F5F5"/>
</g>
</svg>
