<svg width="48" height="48" viewBox="0 0 48 48" fill="none" xmlns="http://www.w3.org/2000/svg">
<mask id="mask0_122_221" style="mask-type:alpha" maskUnits="userSpaceOnUse" x="0" y="0" width="48" height="48">
<rect width="48" height="48" fill="#D9D9D9"/>
</mask>
<g mask="url(#mask0_122_221)">
<path d="M23.231 43V32.6345L15.281 40.546L14.169 39.446L23.231 30.3845V24.769H17.6155L8.6385 33.746L7.5155 32.6575L15.3655 24.769H5V23.231H15.3655L7.4425 15.269L8.554 14.1575L17.6155 23.231H23.231V17.604L14.254 8.627L15.354 7.504L23.231 15.3155V5H24.769V15.3155L32.731 7.431L33.831 8.5425L24.769 17.604V23.231H30.396L39.3845 14.2425L40.496 15.3425L32.6845 23.231H43V24.769H32.6845L40.546 32.719L39.4575 33.831L30.396 24.769H24.769V30.3845L33.831 39.4575L32.7425 40.569L24.769 32.6345V43H23.231Z" fill="#F5F5F5"/>
</g>
</svg>
