<svg width="48" height="48" viewBox="0 0 48 48" fill="none" xmlns="http://www.w3.org/2000/svg">
<path d="M26.8063 20.865C24.7237 22.5785 24.0795 23.775 22.5078 25.7188L31.642 25.1795C29.4928 24.748 27.3436 22.1234 26.8063 20.865Z" fill="#F5F5F5"/>
<path d="M22.5078 25.7188L22.3134 25.5616L21.9575 26.0017L22.5225 25.9684L22.5078 25.7188ZM26.8063 20.865L27.0362 20.7668L26.9051 20.4599L26.6474 20.6719L26.8063 20.865ZM31.642 25.1795L31.6568 25.4291C31.7822 25.4216 31.8827 25.3222 31.8914 25.1969C31.9002 25.0715 31.8145 24.9591 31.6912 24.9344L31.642 25.1795ZM22.7022 25.876C24.2931 23.9085 24.9087 22.7501 26.9651 21.058L26.6474 20.6719C24.5388 22.4069 23.8659 23.6416 22.3134 25.5616L22.7022 25.876ZM26.5764 20.9632C26.8613 21.6305 27.5552 22.6273 28.4435 23.5097C29.3299 24.3903 30.4472 25.1946 31.5928 25.4246L31.6912 24.9344C30.6876 24.7329 29.6558 24.0092 28.7959 23.155C27.9379 22.3026 27.2885 21.3578 27.0362 20.7668L26.5764 20.9632ZM22.5225 25.9684L31.6568 25.4291L31.6273 24.9299L22.4931 25.4692L22.5225 25.9684Z" fill="#F5F5F5"/>
<path d="M37.5531 26.7971C24.7707 29.9004 17.9336 29.7643 4.77734 26.7971L5.31465 29.4937C17.6115 32.4967 24.0878 32.6235 36.4785 29.4937L37.5531 26.7971Z" fill="#F5F5F5" stroke="#F5F5F5" stroke-width="0.5"/>
<path d="M38.6274 9L38.7057 8.90253L38.6036 8.82055L38.5264 8.92634L38.6274 9ZM44.0005 13.3145L44.0868 13.4049L44.1899 13.3063L44.0787 13.217L44.0005 13.3145ZM34.2039 24.6401C34.2039 24.7091 34.2599 24.7651 34.3289 24.7651C34.398 24.7651 34.4539 24.7091 34.4539 24.6401H34.2039ZM37.9585 9.91826L37.8574 9.8447L37.9585 9.91826ZM42.1178 15.0869L42.0473 15.1901L42.13 15.2467L42.2032 15.1782L42.1178 15.0869ZM38.5491 9.09747L43.9222 13.412L44.0787 13.217L38.7057 8.90253L38.5491 9.09747ZM26.8244 20.9886C28.6659 20.7246 30.2467 19.6563 31.9769 17.8215C33.7057 15.9881 35.5988 13.3727 38.0596 9.99182L37.8574 9.8447C35.3924 13.2314 33.5103 15.831 31.795 17.65C30.0811 19.4675 28.5489 20.4888 26.7889 20.7411L26.8244 20.9886ZM38.0596 9.99182C38.2779 9.69185 38.5007 9.38579 38.7284 9.07366L38.5264 8.92634C38.2987 9.23858 38.0758 9.54471 37.8574 9.8447L38.0596 9.99182ZM43.9141 13.2241C43.5648 13.558 43.2056 13.897 42.8403 14.2398L43.0114 14.4221C43.3769 14.0791 43.7368 13.7394 44.0868 13.4049L43.9141 13.2241ZM42.8403 14.2398C40.8634 16.0947 38.7092 18.0593 37.0508 19.8682C36.2213 20.7728 35.5121 21.6425 35.0096 22.4437C34.509 23.2421 34.2039 23.9873 34.2039 24.6401H34.4539C34.4539 24.0584 34.7287 23.3622 35.2214 22.5765C35.7123 21.7938 36.4101 20.9369 37.235 20.0371C38.8853 18.2372 41.0296 16.2816 43.0114 14.4221L42.8403 14.2398ZM37.8641 10.0002C39.6323 12.0382 40.7404 12.987 42.8553 14.4341L42.9964 14.2277C40.8978 12.7918 39.806 11.857 38.0529 9.83635L37.8641 10.0002ZM37.2443 10.8517C39.0109 12.888 39.9305 13.7417 42.0473 15.1901L42.1884 14.9837C40.0917 13.5491 39.1877 12.7103 37.4331 10.6879L37.2443 10.8517ZM42.2032 15.1782L43.0113 14.4222L42.8405 14.2396L42.0324 14.9956L42.2032 15.1782Z" fill="#F5F5F5"/>
<path d="M38.0896 23.0222C38.0896 44.0554 4 44.5947 4 23.0222M38.0896 23.0222C36.4777 19.7864 5.85119 19.247 4 23.0222M38.0896 23.0222C31.6419 27.3368 9.07503 26.7974 4 23.0222" stroke="#F5F5F5" stroke-width="0.5"/>
</svg>
