<svg width="48" height="48" viewBox="0 0 48 48" fill="none" xmlns="http://www.w3.org/2000/svg">
<mask id="mask0_123_812" style="mask-type:alpha" maskUnits="userSpaceOnUse" x="0" y="0" width="48" height="48">
<rect width="48" height="48" fill="#D9D9D9"/>
</mask>
<g mask="url(#mask0_123_812)">
<path d="M5 43V23H6.5385V27H12.8885L19.181 6.1845V3H20.719V7H27.231V3H28.769V5.9345L35.1115 27H41.4615V23H43V43H27.231V32.769H20.769V43H5ZM15.75 23H32.25L30.2885 16.5385H17.7115L15.75 23ZM18.15 15H29.85L27.8885 8.5385H20.1115L18.15 15ZM6.5385 41.4615H19.231V31.231H28.769V41.4615H41.4615V28.5385H33.8885L32.6885 24.5385H15.3115L14.1115 28.5385H6.5385V41.4615Z" fill="#F5F5F5"/>
</g>
</svg>
