<svg width="48" height="48" viewBox="0 0 48 48" fill="none" xmlns="http://www.w3.org/2000/svg">
<path d="M25.2925 47L29.4155 42.3425L25.4155 40.3425L30.0615 35H32.7075L28.5845 39.6575L32.5845 41.6575L27.9385 47H25.2925ZM13.2925 47L17.4155 42.3425L13.4155 40.3425L18.0615 35H20.7075L16.5845 39.6575L20.5845 41.6575L15.9385 47H13.2925ZM15 31C12.223 31 9.86217 30.0275 7.9175 28.0825C5.9725 26.1378 5 23.777 5 21C5 18.4127 5.87183 16.1755 7.6155 14.2885C9.35917 12.4012 11.5425 11.3127 14.1655 11.023C15.1552 9.14867 16.5108 7.67633 18.2325 6.606C19.9545 5.53533 21.877 5 24 5C26.8717 5 29.339 5.952 31.402 7.856C33.4647 9.75967 34.6653 12.132 35.004 14.973C37.4577 15.1217 39.4038 15.9755 40.8425 17.5345C42.2808 19.0935 43 20.9153 43 23C43 25.218 42.2212 27.1058 40.6635 28.6635C39.1058 30.2212 37.218 31 35 31H15ZM15 29H35C36.6563 29 38.0705 28.4142 39.2425 27.2425C40.4142 26.0705 41 24.6563 41 23C41 21.3437 40.4142 19.9295 39.2425 18.7575C38.0705 17.5858 36.6563 17 35 17H33V16C33 13.518 32.1205 11.3975 30.3615 9.6385C28.6025 7.8795 26.482 7 24 7C22.195 7 20.5508 7.491 19.0675 8.473C17.5842 9.455 16.4707 10.7692 15.727 12.4155L15.496 13H14.9C12.718 13.0667 10.8558 13.8712 9.3135 15.4135C7.77117 16.9558 7 18.818 7 21C7 23.2153 7.7795 25.1025 9.3385 26.6615C10.8975 28.2205 12.7847 29 15 29Z" fill="#F5F5F5"/>
</svg>
