<svg width="48" height="48" viewBox="0 0 48 48" fill="none" xmlns="http://www.w3.org/2000/svg">
<mask id="mask0_123_736" style="mask-type:alpha" maskUnits="userSpaceOnUse" x="0" y="0" width="48" height="48">
<rect width="48" height="48" fill="#D9D9D9"/>
</mask>
<g mask="url(#mask0_123_736)">
<path d="M23.8761 35.377C24.4771 35.377 24.9904 35.1672 25.4161 34.7475C25.8417 34.3278 26.0546 33.8047 26.0546 33.178C26.0546 32.5773 25.8447 32.0642 25.4251 31.6385C25.0054 31.2128 24.4951 31 23.8941 31C23.2934 31 22.7802 31.2098 22.3546 31.6295C21.9289 32.0492 21.7161 32.5595 21.7161 33.1605C21.7161 33.7868 21.9259 34.3128 22.3456 34.7385C22.7652 35.1642 23.2754 35.377 23.8761 35.377ZM23.8761 26.169C24.4771 26.169 24.9904 25.9592 25.4161 25.5395C25.8417 25.1198 26.0546 24.6097 26.0546 24.009C26.0546 23.408 25.8447 22.8947 25.4251 22.469C25.0054 22.0437 24.4951 21.831 23.8941 21.831C23.2934 21.831 22.7802 22.0408 22.3546 22.4605C21.9289 22.8802 21.7161 23.3903 21.7161 23.991C21.7161 24.592 21.9259 25.1053 22.3456 25.531C22.7652 25.9563 23.2754 26.169 23.8761 26.169ZM23.8761 17C24.4771 17 24.9904 16.7902 25.4161 16.3705C25.8417 15.9508 26.0546 15.4405 26.0546 14.8395C26.0546 14.2132 25.8447 13.6872 25.4251 13.2615C25.0054 12.8358 24.4951 12.623 23.8941 12.623C23.2934 12.623 22.7802 12.8328 22.3546 13.2525C21.9289 13.6722 21.7161 14.1953 21.7161 14.822C21.7161 15.4227 21.9259 15.9358 22.3456 16.3615C22.7652 16.7872 23.2754 17 23.8761 17ZM15.7891 30.7655V25.304C14.4994 25.0397 13.5519 24.5237 12.9466 23.756C12.3416 22.988 12.0391 22.195 12.0391 21.377H15.7891V15.95C14.4994 15.7117 13.5519 15.2103 12.9466 14.446C12.3416 13.682 12.0391 12.891 12.0391 12.073H15.7891V9.681C15.7891 9.09633 15.9342 8.67 16.2246 8.402C16.5149 8.134 16.8826 8 17.3276 8H30.4816C30.9006 8 31.2617 8.134 31.5651 8.402C31.8681 8.67 32.0196 9.09633 32.0196 9.681V12.073H35.9621C35.9621 12.891 35.6211 13.682 34.9391 14.446C34.2571 15.2103 33.2839 15.7117 32.0196 15.95V21.377H35.9621C35.9621 22.195 35.6211 22.988 34.9391 23.756C34.2571 24.5237 33.2839 25.0397 32.0196 25.304V30.7655H35.9621C35.9621 31.5988 35.6211 32.3937 34.9391 33.15C34.2571 33.9063 33.2839 34.4038 32.0196 34.6425V38.4615C32.0196 38.9065 31.8681 39.2742 31.5651 39.5645C31.2617 39.8548 30.9006 40 30.4816 40H17.3276C16.8826 40 16.5149 39.8548 16.2246 39.5645C15.9342 39.2742 15.7891 38.9065 15.7891 38.4615V34.6425C14.4994 34.4038 13.5519 33.9063 12.9466 33.15C12.3416 32.3937 12.0391 31.5988 12.0391 30.7655H15.7891ZM17.3276 38.4615H30.4816V9.5385H17.3276V38.4615Z" fill="#F5F5F5"/>
</g>
</svg>
