<svg width="48" height="48" viewBox="0 0 48 48" fill="none" xmlns="http://www.w3.org/2000/svg">
<mask id="mask0_123_919" style="mask-type:alpha" maskUnits="userSpaceOnUse" x="0" y="0" width="48" height="48">
<rect width="48" height="48" fill="#D9D9D9"/>
</mask>
<g mask="url(#mask0_123_919)">
<path d="M10 30.231V12C10 10.864 10.3103 9.9095 10.931 9.1365C11.5513 8.3635 12.4557 7.74817 13.644 7.2905C14.8327 6.83283 16.3007 6.50333 18.048 6.302C19.7953 6.10067 21.7793 6 24 6C26.2257 6 28.2058 6.09867 29.9405 6.296C31.6752 6.49367 33.1392 6.82133 34.3325 7.279C35.5262 7.73667 36.4358 8.35 37.0615 9.119C37.6872 9.88833 38 10.8487 38 12V30.231C38 31.8387 37.4403 33.202 36.321 34.321C35.202 35.4403 33.8387 36 32.231 36L35.231 39V40H33.769L29.769 36H18.231L14.231 40H12.769V39L15.769 36C14.1613 36 12.798 35.4403 11.679 34.321C10.5597 33.202 10 31.8387 10 30.231ZM24 7.5385C19.8717 7.5385 16.8793 7.8225 15.023 8.3905C13.1667 8.9585 12.0218 9.854 11.5885 11.077H36.446C36.0513 9.895 34.8853 9.00967 32.948 8.421C31.011 7.83267 28.0283 7.5385 24 7.5385ZM11.5385 22.327H23.3155V12.6155H11.5385V22.327ZM24.854 22.327H36.4615V12.6155H24.854V22.327ZM16.904 31.327C17.4653 31.327 17.955 31.1243 18.373 30.719C18.791 30.314 19 29.818 19 29.231C19 28.6437 18.791 28.141 18.373 27.723C17.955 27.305 17.4653 27.096 16.904 27.096C16.3167 27.096 15.814 27.305 15.396 27.723C14.978 28.141 14.769 28.6437 14.769 29.231C14.769 29.818 14.978 30.314 15.396 30.719C15.814 31.1243 16.3167 31.327 16.904 31.327ZM31.1345 31.327C31.6962 31.327 32.186 31.1243 32.604 30.719C33.022 30.314 33.231 29.818 33.231 29.231C33.231 28.6437 33.022 28.141 32.604 27.723C32.186 27.305 31.6962 27.096 31.1345 27.096C30.5475 27.096 30.045 27.305 29.627 27.723C29.209 28.141 29 28.6437 29 29.231C29 29.818 29.209 30.314 29.627 30.719C30.045 31.1243 30.5475 31.327 31.1345 31.327ZM15.769 34.5575H32.231C33.4153 34.5575 34.4165 34.1345 35.2345 33.2885C36.0525 32.4422 36.4615 31.423 36.4615 30.231V23.8655H11.5385V30.231C11.5385 31.423 11.9475 32.4422 12.7655 33.2885C13.5835 34.1345 14.5847 34.5575 15.769 34.5575Z" fill="#F5F5F5"/>
</g>
</svg>
