<svg width="48" height="48" viewBox="0 0 48 48" fill="none" xmlns="http://www.w3.org/2000/svg">
<mask id="mask0_123_922" style="mask-type:alpha" maskUnits="userSpaceOnUse" x="0" y="0" width="48" height="48">
<rect width="48" height="48" fill="#D9D9D9"/>
</mask>
<g mask="url(#mask0_123_922)">
<path d="M5.46094 40.3076V7.34607L14.3649 1.53857L23.2304 7.34607V14.4041H42.5379V40.3076H5.46094ZM6.99944 38.7691H13.5954V32.1731H6.99944V38.7691ZM6.99944 30.6346H13.5954V24.0771H6.99944V30.6346ZM6.99944 22.5386H13.5954V15.9426H6.99944V22.5386ZM6.99944 14.4041H13.5954V7.84607H6.99944V14.4041ZM15.1339 14.4041H21.6919V7.84607H15.1339V14.4041ZM15.1339 38.7691H40.9994V15.9426H15.1339V38.7691ZM27.9994 24.0771V22.5386H34.9034V24.0771H27.9994ZM27.9994 32.1731V30.6346H34.9034V32.1731H27.9994ZM21.6919 24.0771V22.5386H23.2304V24.0771H21.6919ZM21.6919 32.1731V30.6346H23.2304V32.1731H21.6919Z" fill="#F5F5F5"/>
</g>
</svg>
