<svg width="48" height="48" viewBox="0 0 48 48" fill="none" xmlns="http://www.w3.org/2000/svg">
<path d="M30.9083 37.4973H17.0854C16.7275 37.4973 16.4375 37.746 16.4375 38.0527C16.4375 38.3594 16.7275 38.6081 17.0854 38.6081H30.9083C31.2663 38.6081 31.5563 38.3594 31.5563 38.0527C31.5563 37.746 31.2663 37.4973 30.9083 37.4973Z" fill="#F5F5F5"/>
<path d="M23.3081 35.1277C22.9502 35.1277 22.6602 35.3763 22.6602 35.6831C22.6602 35.9898 22.9502 36.2385 23.3081 36.2385H24.6904C25.0483 36.2385 25.3383 35.9898 25.3383 35.6831C25.3383 35.3763 25.0483 35.1277 24.6904 35.1277H23.3081Z" fill="#F5F5F5"/>
<path d="M27.4585 35.1277C27.1006 35.1277 26.8105 35.3763 26.8105 35.6831C26.8105 35.9898 27.1006 36.2385 27.4585 36.2385H28.8408C29.1987 36.2385 29.4887 35.9898 29.4887 35.6831C29.4887 35.3763 29.1987 35.1277 28.8408 35.1277H27.4585Z" fill="#F5F5F5"/>
<path d="M33.6313 35.6831C33.6313 35.3763 33.3413 35.1277 32.9834 35.1277H31.6011C31.2431 35.1277 30.9531 35.3763 30.9531 35.6831C30.9531 35.9898 31.2431 36.2385 31.6011 36.2385H32.9834C33.3413 36.2385 33.6313 35.9898 33.6313 35.6831Z" fill="#F5F5F5"/>
<path d="M37.1279 35.1277H35.7456C35.3877 35.1277 35.0977 35.3763 35.0977 35.6831C35.0977 35.9898 35.3877 36.2385 35.7456 36.2385H37.1279C37.4858 36.2385 37.7758 35.9898 37.7758 35.6831C37.7758 35.3763 37.4858 35.1277 37.1279 35.1277Z" fill="#F5F5F5"/>
<path d="M12.9067 35.6831C12.9067 35.3763 12.6167 35.1277 12.2588 35.1277H10.8765C10.5185 35.1277 10.2285 35.3763 10.2285 35.6831C10.2285 35.9898 10.5185 36.2385 10.8765 36.2385H12.2588C12.6167 36.2385 12.9067 35.9898 12.9067 35.6831Z" fill="#F5F5F5"/>
<path d="M17.0512 35.6831C17.0512 35.3763 16.7612 35.1277 16.4033 35.1277H15.021C14.6631 35.1277 14.373 35.3763 14.373 35.6831C14.373 35.9898 14.6631 36.2385 15.021 36.2385H16.4033C16.7612 36.2385 17.0512 35.9898 17.0512 35.6831Z" fill="#F5F5F5"/>
<path d="M19.1636 35.1277C18.8056 35.1277 18.5156 35.3763 18.5156 35.6831C18.5156 35.9898 18.8056 36.2385 19.1636 36.2385H20.5459C20.9038 36.2385 21.1938 35.9898 21.1938 35.6831C21.1938 35.3763 20.9038 35.1277 20.5459 35.1277H19.1636Z" fill="#F5F5F5"/>
<path d="M23.3081 31.4994H24.6904C25.0483 31.4994 25.3383 31.2508 25.3383 30.9441C25.3383 30.6373 25.0483 30.3887 24.6904 30.3887H23.3081C22.9502 30.3887 22.6602 30.6373 22.6602 30.9441C22.6602 31.2508 22.9502 31.4994 23.3081 31.4994Z" fill="#F5F5F5"/>
<path d="M27.4585 31.4992H28.8408C29.1987 31.4992 29.4887 31.2505 29.4887 30.9438C29.4887 30.6371 29.1987 30.3884 28.8408 30.3884H27.4585C27.1006 30.3884 26.8105 30.6371 26.8105 30.9438C26.8105 31.2505 27.1006 31.4992 27.4585 31.4992Z" fill="#F5F5F5"/>
<path d="M31.6011 31.4994H32.9834C33.3413 31.4994 33.6313 31.2508 33.6313 30.9441C33.6313 30.6373 33.3413 30.3887 32.9834 30.3887H31.6011C31.2431 30.3887 30.9531 30.6373 30.9531 30.9441C30.9531 31.2508 31.2431 31.4994 31.6011 31.4994Z" fill="#F5F5F5"/>
<path d="M35.7456 31.499H37.1279C37.4858 31.499 37.7758 31.2503 37.7758 30.9436C37.7758 30.6368 37.4858 30.3882 37.1279 30.3882H35.7456C35.3877 30.3882 35.0977 30.6368 35.0977 30.9436C35.0977 31.2503 35.3877 31.499 35.7456 31.499Z" fill="#F5F5F5"/>
<path d="M10.8765 31.4994H12.2588C12.6167 31.4994 12.9067 31.2508 12.9067 30.9441C12.9067 30.6373 12.6167 30.3887 12.2588 30.3887H10.8765C10.5185 30.3887 10.2285 30.6373 10.2285 30.9441C10.2285 31.2508 10.5185 31.4994 10.8765 31.4994Z" fill="#F5F5F5"/>
<path d="M15.021 31.4994H16.4033C16.7612 31.4994 17.0512 31.2508 17.0512 30.9441C17.0512 30.6373 16.7612 30.3887 16.4033 30.3887H15.021C14.6631 30.3887 14.373 30.6373 14.373 30.9441C14.373 31.2508 14.6631 31.4994 15.021 31.4994Z" fill="#F5F5F5"/>
<path d="M19.1636 31.4994H20.5459C20.9038 31.4994 21.1938 31.2508 21.1938 30.9441C21.1938 30.6373 20.9038 30.3887 20.5459 30.3887H19.1636C18.8056 30.3887 18.5156 30.6373 18.5156 30.9441C18.5156 31.2508 18.8056 31.4994 19.1636 31.4994Z" fill="#F5F5F5"/>
<path d="M24.7266 33.3137C24.7266 33.6204 25.0166 33.8691 25.3745 33.8691H26.7568C27.1147 33.8691 27.4047 33.6204 27.4047 33.3137C27.4047 33.007 27.1147 32.7583 26.7568 32.7583H25.3745C25.0166 32.7583 24.7266 33.007 24.7266 33.3137Z" fill="#F5F5F5"/>
<path d="M28.8945 33.3137C28.8945 33.6204 29.1846 33.8691 29.5425 33.8691H30.9248C31.2827 33.8691 31.5727 33.6204 31.5727 33.3137C31.5727 33.007 31.2827 32.7583 30.9248 32.7583H29.5425C29.1846 32.7583 28.8945 33.007 28.8945 33.3137Z" fill="#F5F5F5"/>
<path d="M33.0371 33.3137C33.0371 33.6204 33.3271 33.8691 33.6851 33.8691H35.0673C35.4253 33.8691 35.7153 33.6204 35.7153 33.3137C35.7153 33.007 35.4253 32.7583 35.0673 32.7583H33.6851C33.3271 32.7583 33.0371 33.007 33.0371 33.3137Z" fill="#F5F5F5"/>
<path d="M12.2891 33.3137C12.2891 33.6204 12.5791 33.8691 12.937 33.8691H14.3193C14.6772 33.8691 14.9672 33.6204 14.9672 33.3137C14.9672 33.007 14.6772 32.7583 14.3193 32.7583H12.937C12.5791 32.7583 12.2891 33.007 12.2891 33.3137Z" fill="#F5F5F5"/>
<path d="M10.8227 33.3137C10.8227 33.007 10.5327 32.7583 10.1748 32.7583H8.79248C8.43455 32.7583 8.14453 33.007 8.14453 33.3137C8.14453 33.6204 8.43455 33.8691 8.79248 33.8691H10.1748C10.5327 33.8691 10.8227 33.6204 10.8227 33.3137Z" fill="#F5F5F5"/>
<path d="M39.2138 32.7583H37.8315C37.4736 32.7583 37.1836 33.007 37.1836 33.3137C37.1836 33.6204 37.4736 33.8691 37.8315 33.8691H39.2138C39.5718 33.8691 39.8618 33.6204 39.8618 33.3137C39.8618 33.007 39.5718 32.7583 39.2138 32.7583Z" fill="#F5F5F5"/>
<path d="M35.0673 37.4973H33.6851C33.3271 37.4973 33.0371 37.746 33.0371 38.0527C33.0371 38.3594 33.3271 38.6081 33.6851 38.6081H35.0673C35.4253 38.6081 35.7153 38.3594 35.7153 38.0527C35.7153 37.746 35.4253 37.4973 35.0673 37.4973Z" fill="#F5F5F5"/>
<path d="M14.3193 37.4971H12.937C12.5791 37.4971 12.2891 37.7457 12.2891 38.0525C12.2891 38.3592 12.5791 38.6078 12.937 38.6078H14.3193C14.6772 38.6078 14.9672 38.3592 14.9672 38.0525C14.9672 37.7457 14.6772 37.4971 14.3193 37.4971Z" fill="#F5F5F5"/>
<path d="M16.4375 33.3137C16.4375 33.6204 16.7275 33.8691 17.0854 33.8691H18.4677C18.8257 33.8691 19.1157 33.6204 19.1157 33.3137C19.1157 33.007 18.8257 32.7583 18.4677 32.7583H17.0854C16.7275 32.7583 16.4375 33.007 16.4375 33.3137Z" fill="#F5F5F5"/>
<path d="M20.582 33.3137C20.582 33.6204 20.8721 33.8691 21.23 33.8691H22.6123C22.9702 33.8691 23.2602 33.6204 23.2602 33.3137C23.2602 33.007 22.9702 32.7583 22.6123 32.7583H21.23C20.8721 32.7583 20.582 33.007 20.582 33.3137Z" fill="#F5F5F5"/>
<path d="M41.2786 26.8352H37.7797V24.3915H38.6638C38.9349 25.0794 39.6945 25.5763 40.5875 25.5763C41.707 25.5763 42.6177 24.7956 42.6177 23.8361V21.4665C42.6177 20.5069 41.707 19.7262 40.5875 19.7262C39.6945 19.7262 38.9349 20.2231 38.6638 20.9111H35.7063V9.02585C35.7063 8.06629 34.7955 7.28564 33.676 7.28564H14.324C13.2045 7.28564 12.2937 8.06629 12.2937 9.02585V20.9111H9.33616C9.06505 20.2231 8.30549 19.7262 7.41253 19.7262C6.29305 19.7262 5.38229 20.5069 5.38229 21.4665V23.8361C5.38229 24.7956 6.29305 25.5763 7.41253 25.5763C8.30549 25.5763 9.06505 25.0794 9.33616 24.3915H10.2203V26.8352H6.72138C5.22082 26.8352 4 27.8816 4 29.1678V39.2387C4 40.5249 5.22082 41.5714 6.72138 41.5714H41.2786C42.7792 41.5714 44 40.5249 44 39.2387V29.1678C44 27.8816 42.7792 26.8352 41.2786 26.8352ZM9.44276 23.2807V22.0218H38.5572V23.2807H9.44276ZM30.8676 24.3915C30.6484 25.0981 30.0152 25.7613 29.028 26.2998C27.6947 27.027 25.909 27.4276 24 27.4276C22.091 27.4276 20.3053 27.027 18.9721 26.2998C17.9849 25.7613 17.3516 25.0982 17.1325 24.3915H30.8676ZM40.5875 20.837C40.9924 20.837 41.3218 21.1194 41.3218 21.4665V23.8361C41.3218 24.1832 40.9924 24.4655 40.5875 24.4655C40.1825 24.4655 39.8531 24.1832 39.8531 23.8361V21.4665C39.8531 21.1194 40.1825 20.837 40.5875 20.837ZM13.5896 9.02585C13.5896 8.67877 13.919 8.39641 14.324 8.39641H33.676C34.0809 8.39641 34.4104 8.67877 34.4104 9.02585V20.9111H13.5896V9.02585ZM7.41253 24.4655C7.0076 24.4655 6.67819 24.1832 6.67819 23.8361V21.4665C6.67819 21.1194 7.0076 20.837 7.41253 20.837C7.81745 20.837 8.14687 21.1194 8.14687 21.4665V23.8361C8.14687 24.1832 7.81745 24.4655 7.41253 24.4655ZM42.7041 39.2387C42.7041 39.9125 42.0647 40.4606 41.2786 40.4606H6.72138C5.93529 40.4606 5.2959 39.9125 5.2959 39.2387V29.1678C5.2959 28.4941 5.93529 27.9459 6.72138 27.9459H10.8683C11.2262 27.9459 11.5162 27.6973 11.5162 27.3906V24.3915H15.8052C16.0231 25.4807 16.881 26.4758 18.2764 27.2369C19.8149 28.0761 21.8476 28.5383 24 28.5383C26.1524 28.5383 28.1851 28.0761 29.7237 27.2369C31.1191 26.4758 31.977 25.4807 32.1949 24.3915H36.4838V27.3906C36.4838 27.6973 36.7738 27.9459 37.1317 27.9459H41.2786C42.0647 27.9459 42.7041 28.4941 42.7041 29.1678V39.2387Z" fill="#F5F5F5"/>
<path d="M30.9083 17.948H17.0854C16.7275 17.948 16.4375 18.1967 16.4375 18.5034C16.4375 18.8101 16.7275 19.0588 17.0854 19.0588H30.9083C31.2663 19.0588 31.5563 18.8101 31.5563 18.5034C31.5563 18.1967 31.2663 17.948 30.9083 17.948Z" fill="#F5F5F5"/>
<path d="M30.9083 14.9861H17.0854C16.7275 14.9861 16.4375 15.2347 16.4375 15.5415C16.4375 15.8482 16.7275 16.0969 17.0854 16.0969H30.9083C31.2663 16.0969 31.5563 15.8482 31.5563 15.5415C31.5563 15.2347 31.2663 14.9861 30.9083 14.9861Z" fill="#F5F5F5"/>
<path d="M30.9083 12.0239H17.0854C16.7275 12.0239 16.4375 12.2726 16.4375 12.5793C16.4375 12.886 16.7275 13.1347 17.0854 13.1347H30.9083C31.2663 13.1347 31.5563 12.886 31.5563 12.5793C31.5563 12.2726 31.2663 12.0239 30.9083 12.0239Z" fill="#F5F5F5"/>
</svg>
