<svg width="48" height="48" viewBox="0 0 48 48" fill="none" xmlns="http://www.w3.org/2000/svg">
<mask id="mask0_124_462" style="mask-type:alpha" maskUnits="userSpaceOnUse" x="0" y="0" width="48" height="48">
<rect width="48" height="48" fill="#D9D9D9"/>
</mask>
<g mask="url(#mask0_124_462)">
<path d="M24.1425 37.2155C24.4962 37.1898 24.7633 37.1155 24.944 36.9925C25.125 36.8692 25.2155 36.6851 25.2155 36.4405C25.2155 36.2161 25.1215 36.0488 24.9335 35.9385C24.7455 35.8281 24.478 35.773 24.131 35.773C22.7563 35.8243 21.2415 35.3698 19.5865 34.4095C17.9315 33.4491 16.904 31.8523 16.504 29.619C16.463 29.319 16.3717 29.103 16.23 28.971C16.0887 28.839 15.9252 28.773 15.7395 28.773C15.5182 28.773 15.3397 28.857 15.204 29.025C15.068 29.193 15.0205 29.427 15.0615 29.727C15.5615 32.4243 16.7833 34.3531 18.727 35.5135C20.6707 36.6738 22.4758 37.2411 24.1425 37.2155ZM23.993 42C19.995 42 16.6633 40.6243 13.998 37.873C11.3327 35.122 10 31.6976 10 27.6C10 24.7283 11.1583 21.552 13.475 18.071C15.7917 14.5903 19.3 10.7718 24 6.61548C28.7 10.7718 32.2083 14.5903 34.525 18.071C36.8417 21.552 38 24.7283 38 27.6C38 31.6976 36.665 35.122 33.995 37.873C31.3247 40.6243 27.9907 42 23.993 42ZM24.002 40.4615C27.58 40.4615 30.5512 39.2371 32.9155 36.7885C35.2795 34.3398 36.4615 31.2758 36.4615 27.5965C36.4615 25.0681 35.4045 22.2058 33.2905 19.0095C31.1762 15.8135 28.0793 12.3745 24 8.69248C19.9207 12.3745 16.8238 15.8135 14.7095 19.0095C12.5955 22.2058 11.5385 25.0681 11.5385 27.5965C11.5385 31.2758 12.7212 34.3398 15.0865 36.7885C17.4518 39.2371 20.4237 40.4615 24.002 40.4615Z" fill="#F5F5F5"/>
</g>
</svg>
