<svg width="48" height="48" viewBox="0 0 48 48" fill="none" xmlns="http://www.w3.org/2000/svg">
<mask id="mask0_75_248" style="mask-type:alpha" maskUnits="userSpaceOnUse" x="0" y="0" width="48" height="48">
<rect width="48" height="48" fill="#D9D9D9"/>
</mask>
<g mask="url(#mask0_75_248)">
<path d="M5 40.923V39.3845C5.91033 39.2922 6.82567 39.0487 7.746 38.654C8.66667 38.259 9.63467 37.7128 10.65 37.0155C11.709 37.7898 12.8135 38.3827 13.9635 38.794C15.1135 39.2057 16.2423 39.4115 17.35 39.4115C18.468 39.4115 19.6225 39.2057 20.8135 38.794C22.0045 38.3827 23.0833 37.8155 24.05 37.0925C25.0987 37.8642 26.1813 38.4437 27.298 38.831C28.4147 39.218 29.5653 39.4115 30.75 39.4115C31.9013 39.4115 32.9975 39.2205 34.0385 38.8385C35.0795 38.4565 36.2167 37.845 37.45 37.004C38.4373 37.691 39.3932 38.23 40.3175 38.621C41.2418 39.012 42.136 39.2665 43 39.3845V40.923C42.1793 40.8307 41.2845 40.6178 40.3155 40.2845C39.3462 39.9512 38.391 39.5012 37.45 38.9345C36.3167 39.6268 35.1833 40.1442 34.05 40.4865C32.9167 40.8288 31.8167 41 30.75 41C29.709 41 28.609 40.8225 27.45 40.4675C26.291 40.1122 25.1448 39.5883 24.0115 38.896C22.9782 39.5883 21.893 40.1122 20.756 40.4675C19.6187 40.8225 18.4833 41 17.35 41C16.2757 41 15.1718 40.8288 14.0385 40.4865C12.9052 40.1442 11.7757 39.6268 10.65 38.9345C9.76033 39.4498 8.81617 39.8807 7.8175 40.227C6.8185 40.573 5.87933 40.805 5 40.923ZM5 33.6925V29C5 26.0383 5.59033 23.2748 6.771 20.7095C7.952 18.1442 9.57 15.9223 11.625 14.044C13.68 12.166 16.1082 10.6892 18.9095 9.6135C21.7108 8.53783 24.741 8 28 8C28.7283 8 29.4648 8.02883 30.2095 8.0865C30.9545 8.14417 31.6333 8.21783 32.246 8.3075C31.7667 9.26417 31.4007 10.243 31.148 11.244C30.8953 12.2453 30.769 13.2037 30.769 14.119C30.769 16.291 31.5397 18.186 33.081 19.804C34.622 21.422 36.4783 22.231 38.65 22.231H43V23.769H38.65C36.0217 23.769 33.7947 22.8178 31.969 20.9155C30.1437 19.0128 29.231 16.7473 29.231 14.119C29.231 13.4473 29.3148 12.673 29.4825 11.796C29.6505 10.9193 29.8692 10.127 30.1385 9.419C26.8178 9.98333 24.0928 11.4628 21.9635 13.8575C19.8338 16.2525 18.769 18.9795 18.769 22.0385C18.769 23.6898 19.0068 25.2373 19.4825 26.681C19.9582 28.1243 20.7025 29.6178 21.7155 31.1615C22.1002 30.9538 22.502 30.7243 22.921 30.473C23.3403 30.2217 23.7128 29.9793 24.0385 29.746C25.0718 30.5027 26.1903 31.0977 27.394 31.531C28.598 31.9643 29.7167 32.181 30.75 32.181C31.75 32.181 32.8455 31.9623 34.0365 31.525C35.2275 31.0877 36.3653 30.4947 37.45 29.746C38.4167 30.428 39.3705 30.9703 40.3115 31.373C41.2525 31.7757 42.1487 32.036 43 32.154V33.6925C42.2563 33.6002 41.4127 33.3808 40.469 33.0345C39.5257 32.6885 38.5193 32.2065 37.45 31.5885C36.2397 32.3322 35.08 32.8815 33.971 33.2365C32.862 33.5915 31.7883 33.769 30.75 33.769C29.7373 33.769 28.6245 33.573 27.4115 33.181C26.1988 32.7887 25.0783 32.2578 24.05 31.5885C22.7783 32.4088 21.627 32.9755 20.596 33.2885C19.5653 33.6012 18.4833 33.7613 17.35 33.769C16.2063 33.769 15.107 33.6068 14.052 33.2825C12.9967 32.9582 11.8627 32.432 10.65 31.704C9.76033 32.2193 8.81617 32.65 7.8175 32.996C6.8185 33.3423 5.87933 33.5745 5 33.6925ZM17.25 32.181C17.732 32.181 18.2487 32.1387 18.8 32.054C19.3513 31.9693 19.836 31.8718 20.254 31.7615C19.1897 30.0615 18.4197 28.4493 17.944 26.925C17.4687 25.4007 17.231 23.7718 17.231 22.0385C17.231 19.0282 18.0937 16.3397 19.819 13.973C21.5447 11.6063 23.9255 9.90383 26.9615 8.8655V9.5925C23.8588 9.80017 21.0582 10.4373 18.5595 11.504C16.0608 12.5707 13.9237 13.9668 12.148 15.6925C10.3723 17.4182 9.00317 19.427 8.0405 21.719C7.0775 24.0113 6.57683 26.4947 6.5385 29.169V31.7075C7.2795 31.4795 8.027 31.1982 8.781 30.8635C9.53467 30.5288 10.1577 30.191 10.65 29.85C11.8243 30.6653 12.9198 31.2577 13.9365 31.627C14.9532 31.9963 16.0577 32.181 17.25 32.181Z" fill="#F5F5F5"/>
</g>
</svg>
