<svg width="48" height="48" viewBox="0 0 48 48" fill="none" xmlns="http://www.w3.org/2000/svg">
<mask id="mask0_75_269" style="mask-type:alpha" maskUnits="userSpaceOnUse" x="0" y="0" width="48" height="48">
<rect width="48" height="48" fill="#D9D9D9"/>
</mask>
<g mask="url(#mask0_75_269)">
<path d="M23.1345 38.5385C21.8732 38.5385 20.8137 38.2065 19.956 37.5425C19.098 36.8782 18.5537 35.9294 18.323 34.6961H20.146C20.3257 35.4347 20.6712 36.0034 21.1825 36.402C21.6942 36.8007 22.3448 37 23.1345 37C24.1115 37 24.8942 36.7039 25.4825 36.1115C26.0712 35.5192 26.3655 34.7141 26.3655 33.6961C26.3655 32.6781 26.0712 31.8607 25.4825 31.244C24.8942 30.6274 24.1115 30.319 23.1345 30.319H5V28.781H23.1345C24.5755 28.781 25.7307 29.2155 26.6 30.0845C27.4693 30.9539 27.904 32.1577 27.904 33.6961C27.904 35.1861 27.4693 36.3655 26.6 37.2345C25.7307 38.1039 24.5755 38.5385 23.1345 38.5385ZM5 19.2925V17.7541H31.169C32.4793 17.7541 33.5205 17.3662 34.2925 16.5905C35.0642 15.8149 35.45 14.7437 35.45 13.377C35.45 12.0104 35.0642 10.9392 34.2925 10.1635C33.5205 9.38788 32.4793 9.00005 31.169 9.00005C30.0307 9.00005 29.1077 9.30972 28.4 9.92905C27.6923 10.548 27.2487 11.3359 27.069 12.2925H25.454C25.6847 10.8462 26.3128 9.67955 27.3385 8.79255C28.3642 7.90521 29.641 7.46155 31.169 7.46155C32.8947 7.46155 34.296 8.00188 35.373 9.08255C36.45 10.1636 36.9885 11.595 36.9885 13.377C36.9885 15.159 36.45 16.5904 35.373 17.671C34.296 18.752 32.8947 19.2925 31.169 19.2925H5ZM38.2925 34.9845V33.369C39.2795 33.164 40.0545 32.6917 40.6175 31.952C41.1802 31.2124 41.4615 30.2771 41.4615 29.146C41.4615 27.828 41.0635 26.7832 40.2675 26.0115C39.4712 25.2399 38.4383 24.854 37.169 24.854H5V23.3155H37.169C38.928 23.3155 40.3397 23.854 41.404 24.931C42.468 26.0077 43 27.4127 43 29.146C43 30.7154 42.591 32.0231 41.773 33.069C40.955 34.1154 39.7948 34.7539 38.2925 34.9845Z" fill="#F5F5F5"/>
</g>
</svg>
