<svg width="48" height="48" viewBox="0 0 48 48" fill="none" xmlns="http://www.w3.org/2000/svg">
<path d="M11.8102 13.1399C11.2768 13.2828 10.9602 13.8312 11.1031 14.3646C11.2461 14.8981 11.7944 15.2147 12.3279 15.0718L11.8102 13.1399ZM23.4013 10.0341L11.8102 13.1399L12.3279 15.0718L23.919 11.9659L23.4013 10.0341Z" fill="#F5F5F5"/>
<path d="M35.0101 13.1399C35.5436 13.2828 35.8601 13.8312 35.7172 14.3646C35.5742 14.8981 35.0259 15.2147 34.4924 15.0718L35.0101 13.1399ZM23.419 10.0341L35.0101 13.1399L34.4924 15.0718L22.9013 11.9659L23.419 10.0341Z" fill="#F5F5F5"/>
<rect x="23" y="4" width="1" height="8" fill="#F5F5F5"/>
<line x1="23.5" y1="14" x2="23.5" y2="38" stroke="#F5F5F5"/>
<line x1="18.5" y1="16" x2="18.5" y2="25" stroke="#F5F5F5"/>
<line x1="28.5" y1="16" x2="28.5" y2="25" stroke="#F5F5F5"/>
<line x1="13.5" y1="18" x2="13.5" y2="27" stroke="#F5F5F5"/>
<line x1="33.5" y1="19" x2="33.5" y2="28" stroke="#F5F5F5"/>
<circle cx="23.5" cy="40.5" r="2.5" stroke="#F5F5F5" stroke-width="2"/>
<rect x="13" y="29" width="1" height="8" stroke="#F5F5F5"/>
<rect x="33" y="30" width="1" height="8" stroke="#F5F5F5"/>
<rect x="18" y="27" width="1" height="8" stroke="#F5F5F5"/>
<rect x="28" y="27" width="1" height="8" stroke="#F5F5F5"/>
</svg>
