<svg width="48" height="48" viewBox="0 0 48 48" fill="none" xmlns="http://www.w3.org/2000/svg">
<g clip-path="url(#clip0_123_656)">
<path d="M9.00628 22.3697C9.1131 22.4231 9.40684 22.1027 9.46025 22.0493C9.54036 21.9425 9.54036 21.8623 9.51366 21.7555C9.46025 21.4618 9.64718 21.3283 9.7807 21.0879C9.86081 20.9544 9.91422 20.7141 10.0477 20.6607C10.1012 20.634 10.1279 20.6607 10.1813 20.6607C10.3148 20.634 10.4216 20.5271 10.5284 20.4737C10.6352 20.3936 11.0358 20.0465 10.7688 19.9664C10.8489 19.6726 11.2227 19.459 11.4898 19.3522C11.7034 19.2453 11.9437 19.1652 12.1574 19.0584C12.1841 19.0317 12.3977 18.9783 12.4244 18.9249C12.5312 18.7914 12.3443 18.8715 12.2909 18.7914C12.2108 18.6846 12.5846 18.4709 12.638 18.4442C12.7182 18.3908 12.7716 18.4175 12.825 18.3908C12.9051 18.3641 12.9852 18.2573 13.0386 18.2039C13.1721 18.0971 13.2522 17.9902 13.3056 17.8567C13.3858 17.6698 13.546 17.563 13.7062 17.4028C14.0267 17.0556 14.3204 16.7084 14.6676 16.4147C14.8011 16.2812 14.8812 16.121 15.0147 15.9874C15.2283 15.7738 15.4954 15.5335 15.7357 15.3732C15.9494 15.213 16.1897 15.0261 16.4567 15.0528C16.5903 15.0528 16.7238 15.0261 16.8573 14.9994C16.9908 14.9727 17.0709 14.9994 17.2045 15.0261C17.2312 14.9727 17.2312 14.9193 17.2579 14.8659C17.3113 14.7858 17.3914 14.7323 17.4448 14.6789C17.5516 14.5454 17.6317 14.2517 17.8187 14.2517C18.0323 14.1449 18.2459 14.038 18.4596 13.9579C18.4596 13.9312 18.4863 13.8778 18.513 13.8778C18.4863 13.9846 18.4061 14.038 18.3527 14.1449C18.2993 14.2517 18.2459 14.4653 18.2726 14.5988C18.4328 14.5988 18.5664 14.3852 18.7266 14.4119C18.7266 14.5721 18.5931 14.6789 18.6198 14.8392C18.6198 14.946 18.6732 15.0261 18.7533 15.0795C18.8334 15.1596 18.8868 15.1329 18.8601 15.2931C18.8334 15.3732 18.8067 15.4534 18.8601 15.5335C18.9669 15.4267 19.0203 15.2664 19.1272 15.1329C19.2874 14.946 19.4743 14.759 19.6612 14.5988C19.8749 14.3852 20.0885 14.225 20.3555 14.1181C20.4624 14.0647 20.5959 14.0113 20.7027 13.9579C20.8095 13.9045 20.8896 13.8244 20.9964 13.771C21.0499 13.7443 21.1834 13.7443 21.2101 13.6909C21.1567 13.6642 20.943 13.6642 20.8629 13.6642C20.9697 13.5307 21.2368 13.5307 21.397 13.4505C21.6106 13.3437 21.8243 13.2369 22.0379 13.1301C22.1981 13.05 22.3851 12.9966 22.5453 12.9165C22.8924 12.7562 23.2663 12.6494 23.6402 12.4892C23.7203 12.4625 23.8004 12.4091 23.9072 12.3824C24.014 12.3557 24.2276 12.329 24.2811 12.2489C24.2009 12.2222 24.0674 12.2756 23.9873 12.2489C23.8805 12.2489 23.7737 12.2222 23.6669 12.2222C23.5333 12.1954 23.3998 12.1687 23.2396 12.142C23.026 12.0886 22.7856 12.0619 22.572 12.0085C22.6521 11.9284 22.7589 11.875 22.8657 11.7949C23.0794 11.608 23.3464 11.4477 23.56 11.2608C23.747 11.1006 23.9072 10.9938 24.1475 10.9404C24.468 10.8335 24.735 10.4864 25.0021 10.2995C25.1089 10.2193 25.3759 9.97901 25.5094 10.0324C25.456 10.1926 25.2691 10.2995 25.1623 10.433C25.2691 10.4864 25.456 10.3262 25.5362 10.2728C25.7231 10.1659 25.9367 10.0591 26.1503 10.0057C26.364 9.9256 26.5509 9.84548 26.7378 9.76537C26.8981 9.68526 27.0583 9.68526 27.2452 9.63185C27.6191 9.55174 27.9929 9.63185 28.3668 9.63185C28.4469 9.63185 28.527 9.65856 28.6071 9.65856C28.7406 9.65856 28.8742 9.52503 29.0077 9.60515C29.5151 9.84548 29.8088 9.47163 30.0759 9.39151C30.3162 9.3114 30.5298 9.20459 30.7702 9.09777C31.3042 8.85743 31.8383 8.59039 32.3724 8.37676C33.0667 8.10972 33.761 7.89608 34.4553 7.68245C34.8292 7.54893 35.2031 7.49552 35.6036 7.41541C35.7905 7.362 36.0042 7.30859 36.1911 7.28189C36.2979 7.25518 36.4047 7.28189 36.5116 7.22848C36.4849 7.17507 36.1644 7.14837 36.111 7.14837C35.7638 7.09496 35.39 7.01485 35.0428 6.98814C34.8826 6.98814 34.7224 6.96144 34.5622 6.98814C34.5087 6.98814 34.4286 7.04155 34.3485 7.04155C34.2684 7.04155 34.1616 6.96144 34.0815 6.93473C34.0014 6.90803 33.9213 6.88132 33.8678 6.82792C33.8144 6.77451 33.8144 6.7478 33.761 6.6944C33.6809 6.64099 33.5741 6.61428 33.494 6.61428C33.3605 6.58758 33.2269 6.56087 33.0667 6.53417C32.9065 6.50747 32.9332 6.50747 32.9332 6.37395C32.9332 6.29383 32.9866 6.16031 32.9866 6.0802C32.7463 6.13361 32.5059 6.24043 32.2656 6.32054C32.052 6.37395 31.865 6.42735 31.6514 6.50747C31.4111 6.58758 31.144 6.6944 30.877 6.7478C30.7168 6.77451 30.5565 6.80121 30.3963 6.82792C30.2628 6.85462 30.156 6.90803 30.0224 6.93473C29.7287 6.98814 29.4617 7.06825 29.1946 7.17507C29.0611 7.22848 28.9276 7.33529 28.7941 7.362C28.7674 7.362 28.7674 7.3887 28.7406 7.3887C28.6605 7.3887 28.4736 7.25518 28.3935 7.22848C28.2867 7.06825 27.9929 6.93473 27.9662 6.82792C27.8861 6.90803 27.7526 6.96144 27.6458 7.01485C27.4588 7.12166 27.3253 7.22848 27.1651 7.33529C26.9782 7.46882 26.7378 7.52222 26.5776 7.65574C26.364 7.84267 26.0702 7.89608 25.8299 8.0296C25.6697 8.10972 25.4827 8.16312 25.3492 8.24324C25.2691 8.29664 25.189 8.37676 25.0822 8.37676C25.1623 8.21653 25.3759 8.13642 25.456 7.97619C25.2157 8.0296 25.0288 8.13642 24.8151 8.16312C24.6549 8.18983 24.4947 8.24324 24.3078 8.29664C24.2544 8.32335 24.1208 8.35005 24.0674 8.32335C24.0407 8.29664 23.9873 8.24324 23.9606 8.21653C23.9072 8.18983 23.8538 8.18983 23.8004 8.21653C23.6135 8.29664 23.6402 8.48357 23.5333 8.61709C23.4799 8.69721 23.3464 8.75061 23.2663 8.77732C23.1328 8.85743 23.026 8.93754 22.9191 9.01766C22.7856 9.12447 22.6521 9.20458 22.5453 9.3114C22.4919 9.36481 22.4652 9.41822 22.3851 9.47163C22.4118 9.33811 22.5186 9.20459 22.5987 9.07106C22.7055 8.93754 22.7589 8.77732 22.8657 8.6438C22.9458 8.53698 23.1328 8.40346 23.1328 8.26994C23.0794 8.26994 23.0527 8.32335 23.026 8.35005C22.9458 8.40346 22.839 8.45687 22.7589 8.51028C22.5987 8.61709 22.4118 8.69721 22.2782 8.80402C21.9578 9.07106 21.5839 9.17788 21.2101 9.33811C21.1033 9.39151 20.9964 9.41822 20.8896 9.44492C20.7294 9.47163 20.5692 9.55174 20.409 9.55174C20.2754 9.55174 20.1419 9.52503 20.0084 9.55174C19.7681 9.60515 19.5277 9.68526 19.3141 9.79208C19.1272 9.87219 18.9669 9.9523 18.8067 10.0591C18.8334 9.97901 18.8067 9.9256 18.8067 9.84548C18.8334 9.73867 18.9402 9.57844 19.047 9.52503C18.8067 9.55174 18.5664 9.57844 18.326 9.60515C18.2459 9.52503 18.2726 9.41822 18.2993 9.3114C18.2192 9.41822 18.1925 9.47163 18.0857 9.49833C17.9255 9.55174 17.7919 9.63185 17.6317 9.68526C17.3113 9.81878 17.0709 10.0057 16.7772 10.1926C16.5636 10.3262 16.3232 10.4063 16.1096 10.5131C16.0028 10.5665 15.8692 10.7 15.7624 10.7C15.709 10.7 15.6556 10.6466 15.6022 10.6466C15.3085 10.6466 15.0147 10.9938 14.8011 11.1807C14.6676 11.2875 14.534 11.421 14.4005 11.5545C14.3471 11.608 14.2937 11.6347 14.267 11.6881C14.4272 11.3943 14.6409 11.1807 14.8278 10.9137C14.5607 11.0739 14.3204 11.3142 14.1068 11.5011C13.8664 11.6881 13.6261 11.9017 13.4125 12.0886C13.1721 12.3023 12.9585 12.5693 12.7716 12.8363C12.5312 13.1301 12.2642 13.3704 11.9704 13.6108C11.7034 13.8511 11.4898 14.1181 11.3028 14.4119C10.8756 15.0261 10.3148 15.5335 9.96763 16.1744C9.62048 16.7886 9.32673 17.4295 8.92617 17.9902C8.71254 18.284 8.55231 18.5777 8.39209 18.8982C8.25857 19.1385 8.09834 19.3255 7.93812 19.5658C7.64437 19.9931 7.43074 20.5004 7.24381 21.0078C7.13699 21.2749 7.08358 21.5419 6.97677 21.7822C6.65632 22.4765 6.41598 23.1976 6.20235 23.9186C5.9353 24.7197 5.53474 25.4674 5.32111 26.2952C5.241 26.6424 5.21429 27.0697 5.18759 27.4168C5.16088 27.6839 5.16088 27.9509 5.13418 28.2179C5.08077 28.7787 5.13418 29.3395 5.16088 29.9003C5.29441 29.2594 5.42793 28.3782 5.72167 27.7106C5.80178 27.4969 5.9086 27.31 5.98871 27.0964C5.98871 26.9895 6.06883 26.8293 6.12223 26.6424C6.33587 26.1083 6.68302 25.6276 7.00347 25.147C7.27051 24.7197 7.64437 24.3725 7.91141 23.9453C8.01823 23.785 8.12504 23.6248 8.20516 23.4646C8.25857 23.3845 8.31197 23.3578 8.33868 23.2777C8.31197 23.2777 8.25857 23.251 8.23186 23.251C8.39209 22.9038 8.81935 22.6635 9.00628 22.3697Z" fill="#F5F5F5"/>
<path d="M13.8127 27.8174C13.9463 27.7106 14.1332 27.6305 14.24 27.4703C14.1332 27.4168 13.9997 27.4168 13.8929 27.4168C14.0798 27.1231 14.3468 26.8828 14.5872 26.6424C14.7741 26.4555 14.9343 26.2686 15.148 26.1083C15.6286 25.6811 16.1894 25.3339 16.7235 24.9868C17.1241 24.7464 17.4712 24.3726 17.8184 24.0788C18.5127 23.4913 19.2337 22.9306 19.9547 22.3431C20.1683 22.1561 20.4354 22.0226 20.6223 21.809C20.8092 21.622 21.0229 21.4618 21.2632 21.355C21.3166 21.4351 21.3166 21.5686 21.2899 21.6488C21.37 21.6755 21.5569 21.5419 21.6638 21.5152C21.7172 21.4885 21.7439 21.5152 21.7973 21.5152C21.9842 21.4618 22.1444 21.2482 22.3314 21.1414C22.7586 20.9277 23.1058 20.5806 23.5331 20.367C23.6666 20.4738 23.3995 20.6874 23.4529 20.8209C23.4796 20.901 23.5865 20.9277 23.6399 21.0079C23.6933 21.1147 23.6666 21.2749 23.6666 21.3817C23.6666 21.4885 23.72 21.6488 23.6933 21.7289C23.9069 21.5152 24.0938 21.2215 24.3609 21.088C24.6546 20.9277 25.0552 20.8209 25.4023 20.7408C25.7762 20.6607 26.0967 20.4738 26.4438 20.3135C26.6841 20.2067 26.9245 20.1266 27.1915 20.0465C27.2716 20.0198 27.3517 19.9931 27.4052 19.9397C27.3517 19.913 27.2983 19.8863 27.2716 19.8596C27.4319 19.6726 27.9392 19.6192 28.1529 19.5658C28.4466 19.459 28.7137 19.3255 29.0341 19.2721C29.2744 19.2454 29.4347 19.192 29.6483 19.0852C29.5148 18.8715 29.1676 18.8982 28.954 18.7647C28.8739 18.7113 28.7404 18.6846 28.6602 18.6312C28.7137 18.5511 28.8205 18.471 28.9006 18.4176C29.0875 18.284 29.3011 18.1505 29.5148 18.0704C29.8352 17.9369 30.1824 17.8301 30.5295 17.7767C30.7432 17.7499 30.9034 17.6965 31.0903 17.5897C31.3841 17.4295 31.7045 17.3761 31.9983 17.2159C32.1051 17.1358 32.2386 17.0289 32.3988 17.0022C32.4789 16.9755 32.5056 17.0289 32.5858 17.0289C32.7193 17.0289 32.7994 16.9755 32.9329 16.9221C33.1198 16.842 33.4403 16.6818 33.6539 16.6818C33.7073 16.6818 33.7607 16.7352 33.8141 16.7352C33.921 16.7352 34.0011 16.7085 34.1079 16.7085C34.0545 16.8153 33.921 16.8687 33.8676 16.9488C33.9477 16.9755 34.1346 16.8954 34.2414 16.8954C34.4818 16.8687 34.6954 16.8954 34.9357 16.9221C35.1761 16.9488 35.363 17.0022 35.5766 16.8954C36.1107 16.6551 36.6715 16.4414 37.2323 16.2812C37.5527 16.2011 37.7664 16.1477 38.0868 16.1477C38.2737 16.1477 38.247 16.121 38.3539 15.9875C38.434 15.854 38.5408 15.8005 38.6743 15.7471C38.9413 15.6403 39.2351 15.5335 39.5288 15.4801C39.7425 15.4534 39.9828 15.4801 40.1964 15.4267C40.7305 15.3199 41.2913 15.2398 41.8254 15.3733C41.4782 15.2932 41.2112 15.2131 40.4635 14.7858C40.4902 14.7858 40.4902 14.7591 40.4902 14.7324C40.1697 14.5722 39.8226 14.5187 39.4754 14.492C39.3419 14.492 39.155 14.4653 39.0482 14.3852C38.9413 14.3051 38.9948 14.1716 38.8879 14.0915C38.8078 14.0114 38.6209 14.0114 38.5408 13.9847C38.5141 13.9847 38.434 13.9313 38.4073 13.9313C38.3539 13.9313 38.3271 13.958 38.2737 13.958C38.0601 13.958 38.0601 13.9313 37.9533 13.7977C37.8732 13.7176 37.8732 13.6909 37.7397 13.6909C37.526 13.6909 37.3658 13.8511 37.1522 13.8244C36.9919 13.7977 36.9385 13.7443 36.7783 13.8244C36.4312 13.958 36.2175 14.0915 35.8437 14.0915C35.63 14.0915 35.4965 14.1182 35.2829 14.1716C35.1227 14.225 35.0158 14.1983 34.8556 14.1983C34.5886 14.1983 34.3215 14.225 34.0545 14.2517C33.9744 14.2517 33.7874 14.3051 33.734 14.2517C33.7874 14.1182 33.8141 14.0114 33.8141 13.8778C33.6806 13.8778 33.5471 14.0114 33.4403 14.0648C33.1732 14.1449 32.8795 14.1983 32.6392 14.3051C32.4789 14.3585 32.2653 14.5455 32.0784 14.5187C32.025 14.5187 31.9983 14.4653 31.9449 14.4653C31.838 14.4386 31.7846 14.4653 31.6778 14.5187C31.4375 14.5989 31.1971 14.7057 30.9301 14.7858C30.8767 14.8125 30.6364 14.8926 30.5562 14.8926C30.3426 14.8392 30.5829 14.5187 30.6097 14.3852C30.396 14.3585 30.1824 14.5187 30.0222 14.6256C29.8352 14.7324 29.5949 14.7858 29.3813 14.8392C29.0074 14.9193 28.6068 14.8659 28.233 14.946C28.1529 14.9727 28.0193 15.0528 27.9125 15.0261C27.8591 15.0261 27.8324 14.9727 27.8057 14.9727C27.7523 14.9727 27.7523 14.946 27.6989 14.946C27.6455 14.946 27.5387 15.0528 27.4853 15.0528C26.8978 15.2932 26.3103 15.5068 25.7228 15.7204C25.7228 15.6937 25.6961 15.667 25.7228 15.6403C25.5359 15.5602 25.2421 15.7204 25.0552 15.7471C24.895 15.7738 24.8683 15.8272 24.8683 15.667C24.8683 15.4534 25.0285 15.1062 25.1887 14.9727C24.8416 15.1596 24.5478 15.4 24.2007 15.5869C23.6666 15.8807 23.0791 16.0676 22.545 16.388C22.278 16.5483 22.0643 16.6818 21.7706 16.7085C21.1297 16.7619 20.5422 17.0823 20.0081 17.4295C19.928 17.4829 19.8746 17.5096 19.7945 17.5096C19.7411 17.5096 19.661 17.5363 19.6075 17.5363C19.5541 17.5363 19.5541 17.4829 19.5007 17.4829C19.3939 17.4829 19.2337 17.6164 19.1536 17.6965C18.8598 17.8835 18.6729 18.1772 18.4059 18.4176C17.8718 18.8715 17.3644 19.3255 16.8303 19.7795C16.6701 19.913 16.5366 20.0198 16.3763 20.1266C16.2962 20.2067 16.1894 20.2067 16.1093 20.2601C16.0292 20.3135 15.9491 20.4471 15.8957 20.5005C15.7889 20.634 15.682 20.7408 15.5485 20.8476C15.2014 21.1948 14.9076 21.5953 14.6406 21.9959C14.4803 22.2362 14.3201 22.53 14.1065 22.7436C14.0531 22.6368 14.1332 22.3698 14.1599 22.2629C14.1065 22.53 13.8662 22.8504 13.6792 23.0641C13.3588 23.4913 13.065 23.9453 12.7713 24.3993C12.2906 25.1737 11.9702 26.0282 11.4361 26.7759C11.2758 27.0163 11.1423 27.2833 10.9821 27.5504C10.8753 27.7373 10.7418 27.9509 10.6349 28.1379C10.5548 28.3248 10.5014 28.5117 10.4213 28.6719C10.2878 28.939 10.1276 29.2327 10.0208 29.5265C9.94064 29.7668 9.6469 30.2208 9.72701 30.4878C9.72701 30.4344 9.75371 30.381 9.78042 30.3276C9.80712 30.4611 9.6469 30.7015 9.59349 30.8083C9.54008 30.9685 9.45997 31.102 9.40656 31.2622C9.29974 31.5293 9.24633 31.7963 9.16622 32.0901C9.0594 32.4906 8.92588 32.9179 8.81907 33.3185C8.79236 33.452 8.73896 33.7991 8.68555 33.8258C8.71225 34.3065 8.76566 34.7605 8.79236 35.4281C9.0327 34.894 9.24633 34.3332 9.45997 33.7991C9.54008 33.6389 9.62019 33.4787 9.6736 33.3185C9.75371 33.0247 9.86053 32.7577 9.99405 32.4906C10.3679 31.7162 10.8753 30.9685 11.4094 30.3009C11.6497 30.0072 11.9167 29.7401 12.1838 29.4731C12.4508 29.1793 12.6912 28.9123 13.0116 28.6452C13.1718 28.5384 13.2787 28.3782 13.4389 28.2714C13.5457 28.0577 13.6792 27.9242 13.8127 27.8174Z" fill="#F5F5F5"/>
<path d="M18.5927 33.7724C18.7262 33.5053 19.1001 33.265 19.3404 33.0781C19.4472 32.998 19.5273 32.9713 19.6342 32.9178C19.8745 32.7843 20.0614 32.5974 20.2751 32.4372C20.6222 32.1968 20.8893 32.09 21.3165 32.0366C21.5302 32.0099 21.6904 31.9298 21.904 31.8497C22.0642 31.7696 22.3313 31.7162 22.4381 31.6093C22.3046 31.4758 22.1176 31.4224 21.9841 31.2889C22.0375 31.1821 22.2245 31.1287 22.3313 31.0753C22.5716 30.9417 22.7852 30.8082 23.0256 30.6747C23.1591 30.5946 23.346 30.5145 23.4796 30.4344C23.6932 30.3008 23.8801 30.0872 24.0937 29.9537C24.6011 29.6065 25.0818 29.2327 25.5892 28.8855C25.8829 28.6986 26.1767 28.6185 26.5238 28.5384C26.7375 28.5117 26.9244 28.4315 27.1113 28.3247C27.2181 28.4048 27.0846 28.5918 27.1647 28.6986C27.3784 28.485 27.6454 28.3247 27.8857 28.1378C27.9658 28.0844 28.4732 27.577 28.5533 27.8174C28.58 27.9242 28.4465 28.1111 28.4732 28.2179C28.4999 28.3514 28.5533 28.4048 28.4732 28.5384C28.58 28.5384 28.6335 28.4315 28.7136 28.3781C28.8738 28.2713 29.0874 28.1912 29.2744 28.0844C29.7283 27.8441 30.209 27.577 30.7164 27.4702C30.8499 27.4435 30.9567 27.4702 31.0902 27.4435C31.3306 27.4168 31.5442 27.2833 31.7578 27.1765C31.9715 27.0696 32.1584 26.9628 32.372 26.8827C32.4789 26.8293 32.7726 26.8293 32.8527 26.7225C32.7459 26.6157 32.6124 26.5356 32.5056 26.4287C32.6391 26.2418 33.093 26.135 33.3067 26.0282C33.6271 25.8947 33.9209 25.8145 34.268 25.7611C34.6419 25.7077 34.989 25.4941 35.3629 25.3873C35.8169 25.2538 36.351 25.1469 36.8316 25.0668C37.2856 25.0134 37.6595 25.2003 38.0867 25.2538C38.3004 25.2805 38.7009 25.3339 38.8611 25.2271C38.9413 25.1736 38.9947 25.0668 39.0481 24.9867C39.1816 24.8799 39.3418 24.8265 39.5287 24.7998C39.7424 24.7464 39.7958 24.7731 39.9293 24.5862C40.0628 24.3725 40.1963 24.1589 40.4367 23.9987C40.8372 23.7316 41.398 23.5447 41.8787 23.4913C42.0122 23.4913 42.119 23.4913 42.2259 23.4379C42.306 23.4112 42.4128 23.3311 42.4929 23.3578C42.2793 23.1708 42.0122 23.1975 41.7452 23.1441C41.6117 23.1174 41.5316 23.064 41.6117 22.9839C41.1577 23.0373 40.677 23.064 40.2231 23.0373C39.956 23.0106 39.7424 23.0106 39.502 22.9038C39.3685 22.8504 39.2617 22.7703 39.1282 22.7703C39.0214 22.7436 38.9413 22.7169 38.8344 22.6902C38.7009 22.6635 38.5941 22.6902 38.4606 22.6902C38.2737 22.6635 38.0333 22.6367 37.8464 22.6367C37.6328 22.61 37.3657 22.6635 37.1254 22.6635C36.8316 22.6635 36.5379 22.6902 36.2441 22.6902C35.9771 22.6902 35.7101 22.7703 35.443 22.797C35.2294 22.8237 35.0157 22.8504 34.8021 22.8771C34.5885 22.9038 34.5618 22.8771 34.3748 22.8237C34.0277 22.6902 33.4135 22.9038 33.093 22.9839C32.7993 23.064 32.5056 23.1975 32.2118 23.3044C32.2118 23.1975 32.3186 23.1174 32.372 23.0373C31.9982 23.0373 31.5709 23.1441 31.1971 23.2242C30.93 23.2776 30.5829 23.3845 30.3158 23.3845C30.209 23.3845 30.1022 23.3578 30.0221 23.2509C30.0488 23.2242 30.0755 23.1708 30.0755 23.1174C29.9687 23.064 29.7817 23.0907 29.6482 23.1174C29.5948 23.1441 29.488 23.1975 29.4346 23.1708C29.488 23.0907 29.5681 22.8504 29.5681 22.7703C29.4079 22.797 29.2744 23.0106 29.1141 23.0907C28.8471 23.2242 28.58 23.3578 28.313 23.4646C27.8056 23.6782 27.2448 23.7583 26.7375 23.9185C26.4971 23.9987 26.3102 24.1322 26.1233 24.239C26.0164 24.2924 25.8829 24.4259 25.7761 24.4526C25.6159 24.506 25.696 24.4259 25.6159 24.3458C25.5358 24.2657 25.4557 24.2924 25.3221 24.3458C25.0284 24.4526 24.7881 24.6396 24.521 24.7998C24.2807 24.9333 24.0403 25.0668 23.8 25.2271C23.6131 25.3606 23.4529 25.4941 23.2659 25.6009C23.079 25.7077 22.8921 25.7878 22.7318 25.8947C22.4648 26.1083 22.1711 26.3486 21.9307 26.589C21.8239 26.6691 21.6637 26.9094 21.5569 26.9361C21.5836 26.856 21.637 26.7759 21.5836 26.7225C21.3699 26.9094 21.1563 27.1497 20.9694 27.3901C20.7023 27.7105 20.4086 27.9776 20.1148 28.2713C19.4739 28.9122 19.0467 29.6599 18.4859 30.3542C17.845 31.1287 17.0706 31.7162 16.5098 32.544C16.2961 32.8377 16.0558 33.1315 15.8689 33.4519C15.7086 33.7724 15.5217 34.0661 15.3882 34.3866C15.3348 34.5468 15.3081 34.8405 15.1479 34.9474C15.1212 34.8672 15.1479 34.707 15.0677 34.6536C15.0677 34.7871 14.9876 34.9207 14.9342 35.0542C14.8808 35.2144 14.8808 35.3746 14.8541 35.5081C14.8007 35.6684 14.6672 35.8286 14.5871 35.9621C14.4803 36.149 14.4268 36.3627 14.32 36.5496C14.053 37.0036 13.8127 37.5377 13.6257 38.0183C13.5456 38.2053 13.4922 38.4189 13.4121 38.6058C13.1183 39.2734 13.2252 40.0479 13.2519 40.849C13.6791 40.0746 13.9729 39.2734 14.4536 38.5257C14.5604 38.3388 14.6672 38.1519 14.774 37.9649C14.9876 37.5377 15.3081 37.1638 15.6018 36.7899C16.0825 36.2025 16.6433 35.6951 17.0973 35.0809C17.0706 35.1877 17.0172 35.3212 17.0439 35.428C17.3643 35.161 17.5245 34.6536 17.8717 34.4133C18.0052 34.3065 18.1654 34.2798 18.2989 34.2263C18.5126 34.1195 18.6728 33.9059 18.8597 33.7724C18.7529 33.9326 18.6461 33.8525 18.5927 33.7724Z" fill="#F5F5F5"/>
<path d="M29.8614 35.9087C29.8347 35.9621 29.808 36.0155 29.7812 36.0956C29.8347 36.0422 29.8614 35.9621 29.8614 35.9087Z" fill="#F5F5F5"/>
<path d="M42.6002 32.3838C42.4934 32.2503 42.44 31.9566 42.3599 31.9833C42.3065 31.9566 42.3065 31.9299 42.2798 31.8764C42.1997 31.7429 42.0929 31.6895 41.9326 31.6361C41.6122 31.5293 41.265 31.4492 41.0247 31.2088C40.9713 31.1554 40.998 31.1287 40.9179 31.102C40.7309 31.0219 40.5173 31.0486 40.3037 31.0219C40.1969 30.9952 40.0633 30.9952 39.9832 30.9151C39.9298 30.8617 39.8764 30.8083 39.823 30.7816C39.7162 30.7015 39.6094 30.7015 39.4759 30.6748C39.0753 30.6214 38.6747 30.5946 38.2742 30.5946C37.9804 30.5946 37.66 30.5946 37.4196 30.381C37.2861 30.2742 37.1526 30.1941 36.9924 30.1407C36.8054 30.0873 36.485 30.1407 36.2981 30.0606C36.2179 30.0339 36.2447 30.0072 36.1912 29.9537C36.0844 29.8469 35.9776 29.8202 35.8174 29.8202C35.577 29.8202 35.3901 29.8202 35.1498 29.8736C35.0697 29.9003 34.8026 30.0072 34.7225 29.9537C34.7759 29.8736 34.856 29.8202 34.9094 29.7401C34.8026 29.7134 34.5623 29.7935 34.4288 29.8202C34.0549 29.9003 33.7078 30.0072 33.3606 30.114C33.1737 30.1674 32.9066 30.2742 32.693 30.2742C32.5061 30.2475 32.3458 30.2742 32.1589 30.3009C31.8919 30.3276 31.6248 30.4344 31.4379 30.6481C31.3845 30.7015 31.3845 30.7549 31.3044 30.7816C31.1709 30.835 31.0373 30.8884 30.9038 30.9685C30.7436 31.0486 30.5567 31.102 30.3697 31.1821C30.2095 31.2623 30.0493 31.3157 29.8624 31.3691C29.6487 31.4492 29.4618 31.5293 29.2482 31.6361C29.1146 31.7162 28.9811 31.823 28.8476 31.8764C28.8476 31.7963 28.9277 31.7429 28.901 31.6628C28.7408 31.8497 28.447 31.9299 28.2601 32.0634C28.0999 32.1969 27.913 32.277 27.6993 32.3571C27.4323 32.4372 27.1652 32.5173 26.8982 32.7043C26.738 32.8111 26.5243 32.9446 26.3908 33.1048C26.2573 33.2918 26.017 33.3719 25.83 33.5321C25.563 33.719 25.3227 33.906 25.0556 34.0929C24.7619 34.3065 24.4681 34.5202 24.1744 34.7338C23.9607 34.894 23.8005 35.0809 23.5869 35.2145C23.3198 35.3747 23.1062 35.615 22.8926 35.8554C22.5187 36.2292 22.1716 36.6031 21.7977 36.9502C21.6108 37.1372 21.4239 37.3775 21.2102 37.5377C21.0233 37.6712 20.8898 37.8849 20.7562 38.0718C20.5693 38.3389 20.3023 38.5258 20.1153 38.7928C19.7949 39.2468 19.4744 39.7008 19.1807 40.1547C19.1006 40.2883 19.0739 40.3951 19.0472 40.5286C18.9938 40.6888 18.8603 40.8223 18.7801 40.9559C18.4864 41.4098 18.3529 41.9172 18.3262 42.3712C18.8603 41.7303 19.3409 41.1161 20.0085 40.582C20.1688 40.4485 20.3557 40.315 20.5159 40.1814C20.6227 40.0746 20.7028 39.9678 20.8097 39.8877C20.9699 39.7542 21.1568 39.6474 21.3437 39.5138C21.5574 39.3269 21.771 39.14 22.038 39.0065C22.1449 38.953 22.2517 38.8462 22.3585 38.7928C22.3051 38.8195 22.225 38.7928 22.1716 38.7661C22.2784 38.6059 22.6522 38.5258 22.8125 38.4457C23.0261 38.3656 23.213 38.2587 23.4 38.1519C23.5335 38.0718 23.6136 37.965 23.7471 37.9116C23.9073 37.8315 24.0676 37.7781 24.2011 37.698C24.3079 37.6178 24.388 37.5377 24.5215 37.4843C24.9221 37.2974 25.3761 37.1639 25.8033 37.0571C25.9101 37.0303 25.9101 37.0303 25.9903 36.9235C26.1238 36.7633 26.284 36.6565 26.4442 36.523C26.6312 36.3894 26.8448 36.2826 27.0584 36.2025C27.2721 36.1224 27.4323 36.0423 27.6192 35.9355C28.2601 35.615 28.9277 35.3213 29.5686 35.0275C29.9158 34.8673 30.2629 34.7338 30.6368 34.627C30.4499 34.7872 30.2629 35.0008 30.1027 35.1878C30.0226 35.2946 29.9158 35.4281 29.8891 35.5616C29.8624 35.6684 29.9158 35.7753 29.9158 35.8821C30.1027 35.5883 30.53 35.4281 30.797 35.3213C30.8771 35.2946 30.9305 35.2679 30.9839 35.2679C31.0106 35.2679 31.064 35.2946 31.0908 35.2679C31.1976 35.2412 31.3845 35.1344 31.4913 35.0809C31.6782 35.0008 31.8385 34.894 31.9987 34.8139C32.3458 34.6537 32.7197 34.5469 33.0669 34.3599C33.3873 34.1997 33.6544 34.1463 34.0015 34.1196C34.2952 34.0929 34.6691 33.9594 34.9361 33.8526C34.8293 33.7991 34.6691 33.7724 34.6157 33.6389C34.5623 33.4787 34.7225 33.5054 34.8293 33.3986C34.7759 33.3452 34.6157 33.3986 34.5356 33.3986C34.5356 33.2918 34.7225 33.2384 34.8026 33.185C35.0163 33.0781 35.2299 32.998 35.4435 32.9179C36.0043 32.731 36.6185 32.6776 37.1793 32.5975C37.473 32.5441 37.7668 32.5173 38.0338 32.4906C38.1673 32.4639 38.3276 32.4105 38.4611 32.4639C38.5145 32.4906 38.5679 32.5441 38.6213 32.5441C38.6747 32.5441 38.7548 32.5441 38.8082 32.5173C38.9151 32.5173 38.9952 32.5173 39.0753 32.5441C39.3423 32.5441 39.6895 32.5441 39.9832 32.5975C39.8764 32.5173 39.8764 32.4639 40.0099 32.4105C40.2236 32.3304 40.5173 32.3571 40.7309 32.3838C40.8378 32.4105 40.9446 32.4372 41.0514 32.4639C41.1582 32.4906 41.2917 32.4906 41.3986 32.4906C41.5054 32.4906 41.6122 32.4906 41.719 32.5173C41.8258 32.5173 41.9059 32.5708 42.0127 32.5708C41.986 32.5708 41.986 32.5441 41.9593 32.5441C42.0662 32.5173 42.173 32.5708 42.2531 32.5975C42.4133 32.6509 42.5735 32.731 42.7071 32.8378C42.7605 32.8912 42.8139 32.9713 42.894 32.998C42.9207 33.0247 42.9741 33.0247 43.0008 33.0247C43.0008 32.9446 42.9741 32.8912 42.9474 32.8378C42.8406 32.6776 42.7071 32.5441 42.6002 32.3838Z" fill="#F5F5F5"/>
<path d="M12.9041 11.1807C13.0911 10.9938 13.3047 10.8336 13.4916 10.6734C13.8388 10.3796 14.1325 10.0592 14.453 9.76543C14.7467 9.52509 15.0672 9.41828 15.3876 9.23135C15.9217 8.88419 16.4291 8.45693 16.9365 8.10977C17.0166 8.02966 17.1501 7.94955 17.2302 7.86943C17.2569 7.84273 17.2836 7.76262 17.3103 7.76262C17.4705 7.6291 17.7376 7.54898 17.8978 7.46887C18.1649 7.33535 18.4319 7.20183 18.7256 7.12172C18.966 7.06831 19.3665 6.96149 19.5268 6.80127C19.1529 6.74786 18.8058 7.06831 18.4586 7.12172C18.1649 7.14842 17.9779 7.17513 17.6842 7.30865C17.337 7.44217 17.0166 7.6558 16.6694 7.86943C16.4291 8.02966 16.2155 8.21659 15.9751 8.35011C15.7081 8.51033 15.441 8.64385 15.2007 8.83078C14.9604 9.01771 14.7467 9.23135 14.5331 9.44498C14.4797 9.49839 14.0791 9.89895 13.999 9.81884C14.0257 9.76543 13.999 9.71202 13.9723 9.68532C13.8922 9.68532 13.7854 9.81884 13.7587 9.73872C13.1445 10.166 12.6905 10.8069 12.2632 11.3944C12.0763 11.2876 11.9962 12.0353 11.7559 12.7029C11.9161 12.4091 12.1297 12.1421 12.3434 11.9018C12.5303 11.6614 12.6638 11.3944 12.9041 11.1807Z" fill="#F5F5F5"/>
<path d="M21.3427 24.7196C21.5563 24.5327 21.7699 24.3992 21.9836 24.239C22.0904 24.1589 22.1705 24.052 22.2773 23.9719C21.7432 24.1321 21.2626 24.5861 20.8887 24.9867C20.595 25.3071 20.1677 25.5208 19.8205 25.8145C19.6069 25.9747 19.3933 26.0281 19.1796 26.1617C19.0461 26.2418 18.9393 26.3486 18.8058 26.4287C18.6723 26.5088 18.5387 26.5088 18.4319 26.6156C18.3251 26.7224 18.2183 26.856 18.1115 26.9895C17.9512 27.1764 17.7643 27.3366 17.6041 27.4969C17.2569 27.8173 17.0433 28.2446 16.7229 28.5917C16.2422 29.1258 15.9217 29.74 15.5479 30.3275C15.2808 30.7548 15.0672 31.2087 14.7734 31.6093C14.6399 31.7695 14.6132 31.9832 14.453 32.1434C14.3729 32.2235 14.2661 32.2502 14.2127 32.357C14.1326 32.4638 14.1058 32.5974 14.0791 32.7042C13.9456 33.1849 13.6786 33.6121 13.5718 34.0928C13.4917 34.5201 13.4917 34.974 13.4115 35.4013C13.3314 35.9087 13.2246 36.4161 13.2246 36.6297C13.4649 35.6683 13.5985 34.6269 14.0257 33.7189C13.999 33.7456 14.1058 33.4786 14.1593 33.4786C14.186 33.4786 14.2127 33.5053 14.2394 33.4786C14.3996 33.3985 14.4263 33.265 14.5331 33.1047C14.7467 32.7042 15.0138 32.357 15.2541 31.9832C15.6547 31.2889 16.0552 30.5946 16.5626 29.9804C16.8831 29.5798 17.2035 29.1525 17.6575 28.8855C17.8177 28.7787 17.8978 28.565 18.0047 28.4048C18.1649 28.1645 18.3518 28.0042 18.5387 27.7906C18.8859 27.3901 19.1796 26.7759 19.7137 26.5622C19.9006 26.4821 20.0876 26.3486 20.2745 26.2151C20.3546 26.1617 20.4881 26.1083 20.4881 26.0014C20.141 25.8145 21.2893 24.773 21.3427 24.7196Z" fill="#F5F5F5"/>
<path d="M38.8871 33.9059C38.0593 34.0661 37.2582 34.253 36.457 34.4667C36.8042 34.7604 37.4718 34.44 38.1661 34.3331C38.54 34.253 38.9672 34.1996 39.3411 34.1729C39.5547 34.1462 39.7149 34.1996 39.9286 34.2263C40.0621 34.253 40.0621 34.2263 40.1422 34.1996C40.2757 34.1729 40.4894 34.1729 40.6229 34.1195C40.3291 34.0394 39.9553 34.0661 39.6615 34.0394C39.4479 33.986 38.9939 33.986 38.8871 33.9059Z" fill="#F5F5F5"/>
</g>
<defs>
<clipPath id="clip0_123_656">
<rect width="38" height="36.371" fill="white" transform="translate(5 6)"/>
</clipPath>
</defs>
</svg>
