<svg width="263" height="48" viewBox="0 0 263 48" fill="none" xmlns="http://www.w3.org/2000/svg">
<g clip-path="url(#clip0_131_179)">
<g clip-path="url(#clip1_131_179)">
<path d="M24 6C24.2652 6 24.5196 5.89464 24.7071 5.70711C24.8946 5.51957 25 5.26522 25 5C25 4.73478 24.8946 4.48043 24.7071 4.29289C24.5196 4.10536 24.2652 4 24 4C23.7348 4 23.4804 4.10536 23.2929 4.29289C23.1054 4.48043 23 4.73478 23 5C23 5.26522 23.1054 5.51957 23.2929 5.70711C23.4804 5.89464 23.7348 6 24 6ZM24 44C24.2652 44 24.5196 43.8946 24.7071 43.7071C24.8946 43.5196 25 43.2652 25 43C25 42.7348 24.8946 42.4804 24.7071 42.2929C24.5196 42.1054 24.2652 42 24 42C23.7348 42 23.4804 42.1054 23.2929 42.2929C23.1054 42.4804 23 42.7348 23 43C23 43.2652 23.1054 43.5196 23.2929 43.7071C23.4804 43.8946 23.7348 44 24 44ZM24 12C24.5304 12 25.0391 11.7893 25.4142 11.4142C25.7893 11.0391 26 10.5304 26 10C26 9.46957 25.7893 8.96086 25.4142 8.58579C25.0391 8.21071 24.5304 8 24 8C23.4696 8 22.9609 8.21071 22.5858 8.58579C22.2107 8.96086 22 9.46957 22 10C22 10.5304 22.2107 11.0391 22.5858 11.4142C22.9609 11.7893 23.4696 12 24 12ZM24 40C24.5304 40 25.0391 39.7893 25.4142 39.4142C25.7893 39.0391 26 38.5304 26 38C26 37.4696 25.7893 36.9609 25.4142 36.5858C25.0391 36.2107 24.5304 36 24 36C23.4696 36 22.9609 36.2107 22.5858 36.5858C22.2107 36.9609 22 37.4696 22 38C22 38.5304 22.2107 39.0391 22.5858 39.4142C22.9609 39.7893 23.4696 40 24 40ZM29.5 14.474C29.8439 14.6695 30.1458 14.9312 30.3882 15.2439C30.6306 15.5566 30.8088 15.9141 30.9124 16.2959C31.0161 16.6777 31.0432 17.0763 30.9922 17.4686C30.9412 17.861 30.8131 18.2394 30.6153 18.582C30.4175 18.9246 30.1538 19.2247 29.8395 19.4651C29.5253 19.7054 29.1665 19.8812 28.784 19.9823C28.4015 20.0834 28.0028 20.1079 27.6108 20.0543C27.2188 20.0007 26.8413 19.8701 26.5 19.67C25.8166 19.2693 25.3194 18.6146 25.1169 17.8488C24.9144 17.0829 25.0231 16.268 25.4192 15.5819C25.8153 14.8959 26.4667 14.3943 27.2312 14.1868C27.9957 13.9792 28.8113 14.0824 29.5 14.474ZM19 24C19 24.7956 18.6839 25.5587 18.1213 26.1213C17.5587 26.6839 16.7956 27 16 27C15.2044 27 14.4413 26.6839 13.8787 26.1213C13.3161 25.5587 13 24.7956 13 24C13 23.2044 13.3161 22.4413 13.8787 21.8787C14.4413 21.3161 15.2044 21 16 21C16.7956 21 17.5587 21.3161 18.1213 21.8787C18.6839 22.4413 19 23.2044 19 24ZM35 24C35 24.7956 34.6839 25.5587 34.1213 26.1213C33.5587 26.6839 32.7956 27 32 27C31.2044 27 30.4413 26.6839 29.8787 26.1213C29.3161 25.5587 29 24.7956 29 24C29 23.2044 29.3161 22.4413 29.8787 21.8787C30.4413 21.3161 31.2044 21 32 21C32.7956 21 33.5587 21.3161 34.1213 21.8787C34.6839 22.4413 35 23.2044 35 24ZM22.6 32.428C22.797 32.0867 22.9248 31.7099 22.9762 31.3192C23.0276 30.9285 23.0015 30.5315 22.8994 30.1509C22.7974 29.7703 22.6214 29.4135 22.3814 29.1009C22.1415 28.7883 21.8423 28.526 21.501 28.329C21.1597 28.132 20.7829 28.0042 20.3922 27.9528C20.0015 27.9014 19.6045 27.9275 19.2239 28.0296C18.8433 28.1316 18.4865 28.3076 18.1739 28.5476C17.8613 28.7875 17.599 29.0867 17.402 29.428C17.0105 30.1167 16.9072 30.9323 17.1148 31.6968C17.3223 32.4613 17.8239 33.1127 18.5099 33.5088C19.196 33.9049 20.0109 34.0136 20.7768 33.8111C21.5426 33.6086 22.1973 33.1114 22.598 32.428H22.6ZM30.6 29.428C30.403 29.0867 30.1407 28.7875 29.8281 28.5476C29.5155 28.3076 29.1587 28.1316 28.7781 28.0296C28.3975 27.9275 28.0005 27.9014 27.6098 27.9528C27.2191 28.0042 26.8423 28.132 26.501 28.329C26.1597 28.526 25.8605 28.7883 25.6206 29.1009C25.3806 29.4135 25.2046 29.7703 25.1026 30.1509C25.0005 30.5315 24.9744 30.9285 25.0258 31.3192C25.0772 31.7099 25.205 32.0867 25.402 32.428C25.8027 33.1114 26.4574 33.6086 27.2232 33.8111C27.9891 34.0136 28.804 33.9049 29.4901 33.5088C30.1761 33.1127 30.6777 32.4613 30.8852 31.6968C31.0928 30.9323 30.9895 30.1167 30.598 29.428H30.6ZM18.5 14.474C18.8413 14.2739 19.2188 14.1433 19.6108 14.0897C20.0028 14.0361 20.4015 14.0606 20.784 14.1617C21.1665 14.2628 21.5253 14.4386 21.8395 14.6789C22.1538 14.9193 22.4175 15.2194 22.6153 15.562C22.8131 15.9046 22.9412 16.283 22.9922 16.6754C23.0432 17.0677 23.0161 17.4663 22.9124 17.8481C22.8088 18.2299 22.6306 18.5874 22.3882 18.9001C22.1458 19.2128 21.8439 19.4745 21.5 19.67C20.8113 20.0616 19.9957 20.1648 19.2312 19.9572C18.4667 19.7497 17.8153 19.2481 17.4192 18.5621C17.0231 17.876 16.9144 17.0611 17.1169 16.2952C17.3194 15.5294 17.8166 14.8747 18.5 14.474ZM35.314 15.514C35.1295 15.705 34.9088 15.8574 34.6648 15.9622C34.4208 16.067 34.1584 16.1222 33.8928 16.1245C33.6272 16.1268 33.3639 16.0762 33.1181 15.9756C32.8723 15.8751 32.649 15.7266 32.4612 15.5388C32.2734 15.351 32.1249 15.1277 32.0244 14.8819C31.9238 14.6361 31.8732 14.3728 31.8755 14.1072C31.8778 13.8416 31.933 13.5792 32.0378 13.3352C32.1426 13.0912 32.295 12.8705 32.486 12.686C32.8632 12.3217 33.3684 12.1201 33.8928 12.1247C34.4172 12.1292 34.9188 12.3395 35.2896 12.7104C35.6605 13.0812 35.8708 13.5828 35.8753 14.1072C35.8799 14.6316 35.6783 15.1368 35.314 15.514ZM15.514 35.314C15.3282 35.4997 15.1076 35.647 14.8649 35.7474C14.6221 35.8478 14.362 35.8995 14.0993 35.8994C13.8366 35.8993 13.5765 35.8475 13.3338 35.7469C13.0912 35.6462 12.8707 35.4988 12.685 35.313C12.4993 35.1272 12.352 34.9066 12.2516 34.6639C12.1512 34.4211 12.0995 34.161 12.0996 33.8983C12.0997 33.6356 12.1515 33.3755 12.2521 33.1328C12.3528 32.8902 12.5002 32.6697 12.686 32.484C13.0613 32.109 13.5702 31.8984 14.1007 31.8986C14.6312 31.8988 15.14 32.1097 15.515 32.485C15.89 32.8603 16.1006 33.3692 16.1004 33.8997C16.1002 34.4302 15.8893 34.939 15.514 35.314ZM36 24C36 24.5304 36.2107 25.0391 36.5858 25.4142C36.9609 25.7893 37.4696 26 38 26C38.5304 26 39.0391 25.7893 39.4142 25.4142C39.7893 25.0391 40 24.5304 40 24C40 23.4696 39.7893 22.9609 39.4142 22.5858C39.0391 22.2107 38.5304 22 38 22C37.4696 22 36.9609 22.2107 36.5858 22.5858C36.2107 22.9609 36 23.4696 36 24ZM8 24C8 24.5304 8.21071 25.0391 8.58579 25.4142C8.96086 25.7893 9.46957 26 10 26C10.5304 26 11.0391 25.7893 11.4142 25.4142C11.7893 25.0391 12 24.5304 12 24C12 23.4696 11.7893 22.9609 11.4142 22.5858C11.0391 22.2107 10.5304 22 10 22C9.46957 22 8.96086 22.2107 8.58579 22.5858C8.21071 22.9609 8 23.4696 8 24ZM32.486 35.314C32.295 35.1295 32.1426 34.9088 32.0378 34.6648C31.933 34.4208 31.8778 34.1584 31.8755 33.8928C31.8732 33.6272 31.9238 33.3639 32.0244 33.1181C32.1249 32.8723 32.2734 32.649 32.4612 32.4612C32.649 32.2734 32.8723 32.1249 33.1181 32.0244C33.3639 31.9238 33.6272 31.8732 33.8928 31.8755C34.1584 31.8778 34.4208 31.933 34.6648 32.0378C34.9088 32.1426 35.1295 32.295 35.314 32.486C35.6783 32.8632 35.8799 33.3684 35.8753 33.8928C35.8708 34.4172 35.6605 34.9188 35.2896 35.2896C34.9188 35.6605 34.4172 35.8708 33.8928 35.8753C33.3684 35.8799 32.8632 35.6783 32.486 35.314ZM12.686 15.514C12.495 15.3295 12.3426 15.1088 12.2378 14.8648C12.133 14.6208 12.0778 14.3584 12.0755 14.0928C12.0732 13.8272 12.1238 13.5639 12.2244 13.3181C12.3249 13.0723 12.4734 12.849 12.6612 12.6612C12.849 12.4734 13.0723 12.3249 13.3181 12.2244C13.5639 12.1238 13.8272 12.0732 14.0928 12.0755C14.3584 12.0778 14.6208 12.133 14.8648 12.2378C15.1088 12.3426 15.3295 12.495 15.514 12.686C15.8783 13.0632 16.0799 13.5684 16.0753 14.0928C16.0708 14.6172 15.8605 15.1188 15.4896 15.4896C15.1188 15.8605 14.6172 16.0708 14.0928 16.0753C13.5684 16.0799 13.0632 15.8783 12.686 15.514ZM34.366 8.046C34.3008 8.16065 34.2136 8.26127 34.1094 8.34207C34.0051 8.42287 33.886 8.48226 33.7587 8.51681C33.6314 8.55136 33.4986 8.5604 33.3678 8.5434C33.237 8.5264 33.1109 8.48371 32.9967 8.41776C32.8825 8.35182 32.7824 8.26394 32.7023 8.15918C32.6222 8.05442 32.5636 7.93485 32.5299 7.80735C32.4962 7.67985 32.488 7.54694 32.5059 7.41628C32.5238 7.28561 32.5673 7.15977 32.634 7.046C32.7675 6.81819 32.9858 6.65246 33.2411 6.58496C33.4964 6.51747 33.768 6.55369 33.9967 6.68573C34.2254 6.81776 34.3926 7.03489 34.4618 7.28974C34.5309 7.54458 34.4965 7.81644 34.366 8.046ZM15.366 40.954C15.3008 41.0686 15.2136 41.1693 15.1094 41.2501C15.0051 41.3309 14.886 41.3903 14.7587 41.4248C14.6314 41.4594 14.4986 41.4684 14.3678 41.4514C14.237 41.4344 14.1109 41.3917 13.9967 41.3258C13.8825 41.2598 13.7824 41.1719 13.7023 41.0672C13.6222 40.9624 13.5636 40.8428 13.5299 40.7153C13.4962 40.5878 13.488 40.4549 13.5059 40.3243C13.5238 40.1936 13.5673 40.0678 13.634 39.954C13.7676 39.7262 13.9858 39.5605 14.2411 39.493C14.4964 39.4255 14.768 39.4617 14.9967 39.5937C15.2254 39.7258 15.3926 39.9429 15.4617 40.1977C15.5309 40.4526 15.4965 40.7244 15.366 40.954ZM39.588 15C39.6532 15.1146 39.7404 15.2153 39.8446 15.2961C39.9489 15.3769 40.068 15.4363 40.1953 15.4708C40.3226 15.5054 40.4554 15.5144 40.5862 15.4974C40.717 15.4804 40.8431 15.4377 40.9573 15.3718C41.0715 15.3058 41.1716 15.2179 41.2517 15.1132C41.3318 15.0084 41.3904 14.8888 41.4241 14.7613C41.4578 14.6338 41.466 14.5009 41.4481 14.3703C41.4302 14.2396 41.3867 14.1138 41.32 14C41.1865 13.7722 40.9682 13.6065 40.7129 13.539C40.4576 13.4715 40.186 13.5077 39.9573 13.6397C39.7286 13.7718 39.5614 13.9889 39.4923 14.2437C39.4231 14.4986 39.4575 14.7704 39.588 15ZM6.68 34C6.74518 34.1146 6.8324 34.2153 6.93663 34.2961C7.04085 34.3769 7.16003 34.4363 7.28731 34.4708C7.41458 34.5054 7.54743 34.5144 7.67821 34.4974C7.80899 34.4804 7.93512 34.4377 8.04933 34.3718C8.16354 34.3058 8.26358 34.2179 8.34369 34.1132C8.42379 34.0084 8.48239 33.8888 8.5161 33.7613C8.54981 33.6338 8.55796 33.5009 8.5401 33.3703C8.52223 33.2396 8.4787 33.1138 8.412 33C8.27845 32.7722 8.06021 32.6065 7.80492 32.539C7.54962 32.4715 7.27799 32.5077 7.04931 32.6397C6.82062 32.7718 6.65344 32.9889 6.58425 33.2437C6.51506 33.4986 6.54948 33.7704 6.68 34ZM43 25C42.7348 25 42.4804 24.8946 42.2929 24.7071C42.1054 24.5196 42 24.2652 42 24C42 23.7348 42.1054 23.4804 42.2929 23.2929C42.4804 23.1054 42.7348 23 43 23C43.2652 23 43.5196 23.1054 43.7071 23.2929C43.8946 23.4804 44 23.7348 44 24C44 24.2652 43.8946 24.5196 43.7071 24.7071C43.5196 24.8946 43.2652 25 43 25ZM5 25C4.73478 25 4.48043 24.8946 4.29289 24.7071C4.10536 24.5196 4 24.2652 4 24C4 23.7348 4.10536 23.4804 4.29289 23.2929C4.48043 23.1054 4.73478 23 5 23C5.26522 23 5.51957 23.1054 5.70711 23.2929C5.89464 23.4804 6 23.7348 6 24C6 24.2652 5.89464 24.5196 5.70711 24.7071C5.51957 24.8946 5.26522 25 5 25ZM39.588 33C39.5213 33.1138 39.4778 33.2396 39.4599 33.3703C39.442 33.5009 39.4502 33.6338 39.4839 33.7613C39.5176 33.8888 39.5762 34.0084 39.6563 34.1132C39.7364 34.2179 39.8365 34.3058 39.9507 34.3718C40.0649 34.4377 40.191 34.4804 40.3218 34.4974C40.4526 34.5144 40.5854 34.5054 40.7127 34.4708C40.84 34.4363 40.9591 34.3769 41.0634 34.2961C41.1676 34.2153 41.2548 34.1146 41.32 34C41.4505 33.7704 41.4849 33.4986 41.4157 33.2437C41.3466 32.9889 41.1794 32.7718 40.9507 32.6397C40.722 32.5077 40.4504 32.4715 40.1951 32.539C39.9398 32.6065 39.7215 32.7722 39.588 33ZM6.68 14C6.6133 14.1138 6.56977 14.2396 6.5519 14.3703C6.53404 14.5009 6.54219 14.6338 6.5759 14.7613C6.60961 14.8888 6.66821 15.0084 6.74831 15.1132C6.82842 15.2179 6.92846 15.3058 7.04267 15.3718C7.15688 15.4377 7.28301 15.4804 7.41379 15.4974C7.54457 15.5144 7.67742 15.5054 7.80469 15.4708C7.93197 15.4363 8.05115 15.3769 8.15537 15.2961C8.2596 15.2153 8.34682 15.1146 8.412 15C8.54252 14.7704 8.57694 14.4986 8.50775 14.2437C8.43856 13.9889 8.27138 13.7718 8.04269 13.6397C7.81401 13.5077 7.54238 13.4715 7.28708 13.539C7.03179 13.6065 6.81355 13.7722 6.68 14ZM32.634 40.954C32.5673 40.8402 32.5238 40.7144 32.5059 40.5837C32.488 40.4531 32.4962 40.3202 32.5299 40.1927C32.5636 40.0652 32.6222 39.9456 32.7023 39.8408C32.7824 39.7361 32.8825 39.6482 32.9967 39.5822C33.1109 39.5163 33.237 39.4736 33.3678 39.4566C33.4986 39.4396 33.6314 39.4486 33.7587 39.4832C33.886 39.5177 34.0051 39.5771 34.1094 39.6579C34.2136 39.7387 34.3008 39.8394 34.366 39.954C34.4965 40.1836 34.5309 40.4554 34.4618 40.7103C34.3926 40.9651 34.2254 41.1822 33.9967 41.3143C33.768 41.4463 33.4964 41.4825 33.2411 41.415C32.9858 41.3475 32.7675 41.1818 32.634 40.954ZM13.634 8.046C13.5673 7.93223 13.5238 7.80639 13.5059 7.67572C13.488 7.54506 13.4962 7.41215 13.5299 7.28465C13.5636 7.15715 13.6222 7.03758 13.7023 6.93282C13.7824 6.82806 13.8825 6.74018 13.9967 6.67424C14.1109 6.60829 14.237 6.5656 14.3678 6.5486C14.4986 6.5316 14.6314 6.54064 14.7587 6.57519C14.886 6.60974 15.0051 6.66913 15.1094 6.74993C15.2136 6.83073 15.3008 6.93135 15.366 7.046C15.4965 7.27556 15.5309 7.54742 15.4617 7.80226C15.3926 8.05711 15.2254 8.27424 14.9967 8.40627C14.768 8.53831 14.4964 8.57453 14.2411 8.50704C13.9858 8.43954 13.7676 8.27381 13.634 8.046Z" fill="#FF5E1F"/>
<circle cx="24" cy="24" r="3" fill="#FF5E1F"/>
</g>
<path d="M72.5021 40.2833C70.566 40.2833 68.7951 39.7993 67.1896 38.8312C65.584 37.8396 64.2972 36.5174 63.3292 34.8646C62.3847 33.2118 61.9125 31.3819 61.9125 29.375C61.9125 27.3681 62.3847 25.5382 63.3292 23.8854C64.2972 22.2326 65.584 20.9222 67.1896 19.9542C68.7951 18.9625 70.566 18.4667 72.5021 18.4667C73.966 18.4667 75.3354 18.7382 76.6104 19.2812C77.909 19.8243 79.0306 20.5799 79.975 21.5479V18.75H83.5167V40H79.975V37.2021C79.0306 38.1465 77.909 38.9021 76.6104 39.4687C75.3354 40.0118 73.966 40.2833 72.5021 40.2833ZM72.9979 36.8125C74.3438 36.8125 75.5597 36.4819 76.6458 35.8208C77.7556 35.1361 78.6292 34.2389 79.2667 33.1292C79.9278 31.9958 80.2583 30.7444 80.2583 29.375C80.2583 28.0056 79.9278 26.766 79.2667 25.6562C78.6292 24.5229 77.7556 23.6257 76.6458 22.9646C75.5597 22.2799 74.3438 21.9375 72.9979 21.9375C71.6521 21.9375 70.4243 22.2799 69.3146 22.9646C68.2285 23.6257 67.3549 24.5229 66.6938 25.6562C66.0563 26.766 65.7375 28.0056 65.7375 29.375C65.7375 30.7444 66.0563 31.9958 66.6938 33.1292C67.3549 34.2389 68.2285 35.1361 69.3146 35.8208C70.4243 36.4819 71.6521 36.8125 72.9979 36.8125ZM90.2945 40V18.75H93.8362V21.7958C94.6154 20.6389 95.5952 19.7771 96.7758 19.2104C97.9799 18.6201 99.2431 18.325 100.565 18.325C102.006 18.325 103.328 18.6674 104.532 19.3521C105.736 20.0132 106.704 20.9458 107.436 22.15C108.263 20.875 109.325 19.9187 110.624 19.2812C111.946 18.6437 113.339 18.325 114.803 18.325C116.408 18.325 117.872 18.7028 119.195 19.4583C120.54 20.2139 121.603 21.2764 122.382 22.6458C123.185 23.9917 123.586 25.5854 123.586 27.4271V40H119.761V27.8875C119.761 25.9514 119.206 24.4875 118.097 23.4958C117.011 22.4806 115.747 21.9729 114.307 21.9729C113.41 21.9729 112.536 22.1736 111.686 22.575C110.86 22.9764 110.175 23.6021 109.632 24.4521C109.113 25.3021 108.853 26.4118 108.853 27.7812V40H105.028V27.8875C105.028 26.5417 104.756 25.4319 104.213 24.5583C103.694 23.6847 103.009 23.0354 102.159 22.6104C101.333 22.1618 100.471 21.9375 99.5737 21.9375C98.7001 21.9375 97.8383 22.1382 96.9883 22.5396C96.1619 22.941 95.4772 23.5667 94.9341 24.4167C94.3911 25.2667 94.1195 26.3882 94.1195 27.7812V40H90.2945ZM140.954 40.2833C139.49 40.2833 138.12 40.0118 136.845 39.4687C135.57 38.9021 134.449 38.1465 133.481 37.2021V40H129.939V6H133.764V21.2646C134.709 20.391 135.795 19.7062 137.022 19.2104C138.25 18.7146 139.561 18.4667 140.954 18.4667C142.913 18.4667 144.684 18.9625 146.266 19.9542C147.872 20.9222 149.147 22.2326 150.091 23.8854C151.059 25.5382 151.543 27.3681 151.543 29.375C151.543 31.3819 151.059 33.2118 150.091 34.8646C149.147 36.5174 147.872 37.8396 146.266 38.8312C144.684 39.7993 142.913 40.2833 140.954 40.2833ZM140.458 36.8125C141.804 36.8125 143.02 36.4819 144.106 35.8208C145.215 35.1361 146.089 34.2389 146.727 33.1292C147.388 31.9958 147.718 30.7444 147.718 29.375C147.718 28.0056 147.388 26.766 146.727 25.6562C146.089 24.5229 145.215 23.6257 144.106 22.9646C143.02 22.2799 141.804 21.9375 140.458 21.9375C139.112 21.9375 137.884 22.2799 136.774 22.9646C135.688 23.6257 134.815 24.5229 134.154 25.6562C133.516 26.766 133.197 28.0056 133.197 29.375C133.197 30.7444 133.516 31.9958 134.154 33.1292C134.815 34.2389 135.688 35.1361 136.774 35.8208C137.884 36.4819 139.112 36.8125 140.458 36.8125ZM156.834 40V18.75H160.659V40H156.834ZM158.746 14.925C158.038 14.925 157.436 14.6771 156.94 14.1812C156.444 13.6854 156.196 13.0833 156.196 12.375C156.196 11.6431 156.444 11.041 156.94 10.5687C157.436 10.0729 158.038 9.825 158.746 9.825C159.478 9.825 160.08 10.0729 160.552 10.5687C161.048 11.041 161.296 11.6431 161.296 12.375C161.296 13.0833 161.048 13.6854 160.552 14.1812C160.08 14.6771 159.478 14.925 158.746 14.925ZM177.571 40.425C175.352 40.425 173.357 39.9292 171.586 38.9375C169.839 37.9458 168.457 36.6 167.442 34.9C166.45 33.1764 165.954 31.2639 165.954 29.1625C165.954 27.1556 166.439 25.3375 167.407 23.7083C168.375 22.0556 169.673 20.7451 171.302 19.7771C172.955 18.809 174.773 18.325 176.757 18.325C178.716 18.325 180.511 18.7972 182.14 19.7417C183.769 20.6625 185.068 21.9139 186.036 23.4958C187.004 25.0778 187.488 26.8722 187.488 28.8792V30.4375H173.604C172.991 30.4375 172.365 30.4139 171.727 30.3667C171.09 30.3194 170.464 30.2486 169.85 30.1542C170.11 32.0431 170.96 33.625 172.4 34.9C173.864 36.175 175.6 36.8125 177.607 36.8125C178.952 36.8125 180.204 36.5056 181.361 35.8917C182.518 35.2778 183.45 34.4632 184.159 33.4479L185.221 37.8042C184.206 38.6306 183.037 39.2799 181.715 39.7521C180.416 40.2007 179.035 40.425 177.571 40.425ZM169.744 27.5687C171.019 27.3562 172.306 27.25 173.604 27.25H180.652C181.172 27.25 181.679 27.2736 182.175 27.3208C182.695 27.3444 183.214 27.3799 183.734 27.4271C183.403 25.7743 182.577 24.4167 181.254 23.3542C179.932 22.2681 178.433 21.725 176.757 21.725C175.033 21.725 173.522 22.3035 172.223 23.4604C170.925 24.5937 170.098 25.9632 169.744 27.5687ZM192.593 40V18.75H196.135V22.1854C196.914 20.934 197.918 19.9778 199.145 19.3167C200.397 18.6556 201.743 18.325 203.183 18.325C204.694 18.325 206.087 18.7028 207.362 19.4583C208.661 20.1903 209.711 21.2646 210.514 22.6812C211.317 24.0743 211.718 25.7743 211.718 27.7812V40H207.893V28.3125C207.893 26.6361 207.386 25.1604 206.37 23.8854C205.379 22.5868 203.974 21.9375 202.156 21.9375C200.668 21.9375 199.334 22.4806 198.154 23.5667C196.997 24.6292 196.418 26.1757 196.418 28.2062V40H192.593ZM227.868 40.425C225.791 40.425 223.902 39.9292 222.202 38.9375C220.502 37.9458 219.144 36.6118 218.129 34.9354C217.113 33.259 216.606 31.4056 216.606 29.375C216.606 27.3444 217.113 25.491 218.129 23.8146C219.144 22.1382 220.502 20.8042 222.202 19.8125C223.902 18.8208 225.791 18.325 227.868 18.325C229.403 18.325 230.843 18.5965 232.189 19.1396C233.535 19.6826 234.716 20.4028 235.731 21.3L234.562 26.1167C233.972 24.9361 233.075 23.9444 231.87 23.1417C230.69 22.3389 229.344 21.9375 227.833 21.9375C226.463 21.9375 225.212 22.2799 224.079 22.9646C222.969 23.6257 222.084 24.5229 221.423 25.6562C220.761 26.766 220.431 28.0056 220.431 29.375C220.431 30.7208 220.761 31.9604 221.423 33.0937C222.084 34.2271 222.969 35.1361 224.079 35.8208C225.212 36.4819 226.463 36.8125 227.833 36.8125C229.344 36.8125 230.69 36.4229 231.87 35.6437C233.075 34.8646 233.972 33.8611 234.562 32.6333L235.731 37.45C234.716 38.3472 233.535 39.0674 232.189 39.6104C230.843 40.1535 229.403 40.425 227.868 40.425ZM250.535 40.425C248.316 40.425 246.32 39.9292 244.55 38.9375C242.802 37.9458 241.421 36.6 240.406 34.9C239.414 33.1764 238.918 31.2639 238.918 29.1625C238.918 27.1556 239.402 25.3375 240.37 23.7083C241.338 22.0556 242.637 20.7451 244.266 19.7771C245.919 18.809 247.737 18.325 249.72 18.325C251.68 18.325 253.475 18.7972 255.104 19.7417C256.733 20.6625 258.032 21.9139 259 23.4958C259.968 25.0778 260.452 26.8722 260.452 28.8792V30.4375H246.568C245.954 30.4375 245.329 30.4139 244.691 30.3667C244.054 30.3194 243.428 30.2486 242.814 30.1542C243.074 32.0431 243.924 33.625 245.364 34.9C246.828 36.175 248.563 36.8125 250.57 36.8125C251.916 36.8125 253.168 36.5056 254.325 35.8917C255.482 35.2778 256.414 34.4632 257.123 33.4479L258.185 37.8042C257.17 38.6306 256.001 39.2799 254.679 39.7521C253.38 40.2007 251.999 40.425 250.535 40.425ZM242.708 27.5687C243.983 27.3562 245.27 27.25 246.568 27.25H253.616C254.136 27.25 254.643 27.2736 255.139 27.3208C255.659 27.3444 256.178 27.3799 256.698 27.4271C256.367 25.7743 255.541 24.4167 254.218 23.3542C252.896 22.2681 251.397 21.725 249.72 21.725C247.997 21.725 246.486 22.3035 245.187 23.4604C243.888 24.5937 243.062 25.9632 242.708 27.5687Z" fill="#F5F5F5"/>
</g>
<defs>
<clipPath id="clip0_131_179">
<rect width="263" height="48" fill="white"/>
</clipPath>
<clipPath id="clip1_131_179">
<rect width="48" height="48" fill="white"/>
</clipPath>
</defs>
</svg>
