<svg width="130" height="30" viewBox="0 0 130 30" fill="none" xmlns="http://www.w3.org/2000/svg">
<g clip-path="url(#clip0_133_207)">
<g clip-path="url(#clip1_133_207)">
<path d="M15 3.75C15.1658 3.75 15.3247 3.68415 15.4419 3.56694C15.5592 3.44973 15.625 3.29076 15.625 3.125C15.625 2.95924 15.5592 2.80027 15.4419 2.68306C15.3247 2.56585 15.1658 2.5 15 2.5C14.8342 2.5 14.6753 2.56585 14.5581 2.68306C14.4408 2.80027 14.375 2.95924 14.375 3.125C14.375 3.29076 14.4408 3.44973 14.5581 3.56694C14.6753 3.68415 14.8342 3.75 15 3.75ZM15 27.5C15.1658 27.5 15.3247 27.4342 15.4419 27.3169C15.5592 27.1997 15.625 27.0408 15.625 26.875C15.625 26.7092 15.5592 26.5503 15.4419 26.4331C15.3247 26.3158 15.1658 26.25 15 26.25C14.8342 26.25 14.6753 26.3158 14.5581 26.4331C14.4408 26.5503 14.375 26.7092 14.375 26.875C14.375 27.0408 14.4408 27.1997 14.5581 27.3169C14.6753 27.4342 14.8342 27.5 15 27.5ZM15 7.5C15.3315 7.5 15.6495 7.3683 15.8839 7.13388C16.1183 6.89946 16.25 6.58152 16.25 6.25C16.25 5.91848 16.1183 5.60054 15.8839 5.36612C15.6495 5.1317 15.3315 5 15 5C14.6685 5 14.3505 5.1317 14.1161 5.36612C13.8817 5.60054 13.75 5.91848 13.75 6.25C13.75 6.58152 13.8817 6.89946 14.1161 7.13388C14.3505 7.3683 14.6685 7.5 15 7.5ZM15 25C15.3315 25 15.6495 24.8683 15.8839 24.6339C16.1183 24.3995 16.25 24.0815 16.25 23.75C16.25 23.4185 16.1183 23.1005 15.8839 22.8661C15.6495 22.6317 15.3315 22.5 15 22.5C14.6685 22.5 14.3505 22.6317 14.1161 22.8661C13.8817 23.1005 13.75 23.4185 13.75 23.75C13.75 24.0815 13.8817 24.3995 14.1161 24.6339C14.3505 24.8683 14.6685 25 15 25ZM18.4375 9.04625C18.6525 9.16847 18.8411 9.332 18.9926 9.52742C19.1441 9.72285 19.2555 9.94632 19.3203 10.185C19.3851 10.4236 19.402 10.6727 19.3701 10.9179C19.3383 11.1631 19.2582 11.3996 19.1346 11.6137C19.0109 11.8279 18.8461 12.0155 18.6497 12.1657C18.4533 12.3159 18.2291 12.4257 17.99 12.4889C17.751 12.5521 17.5018 12.5674 17.2568 12.5339C17.0118 12.5004 16.7758 12.4188 16.5625 12.2938C16.1354 12.0433 15.8246 11.6342 15.6981 11.1555C15.5715 10.6768 15.6394 10.1675 15.887 9.7387C16.1346 9.30991 16.5417 8.99645 17.0195 8.86672C17.4973 8.73699 18.0071 8.80153 18.4375 9.04625ZM11.875 15C11.875 15.4973 11.6775 15.9742 11.3258 16.3258C10.9742 16.6775 10.4973 16.875 10 16.875C9.50272 16.875 9.02581 16.6775 8.67417 16.3258C8.32254 15.9742 8.125 15.4973 8.125 15C8.125 14.5027 8.32254 14.0258 8.67417 13.6742C9.02581 13.3225 9.50272 13.125 10 13.125C10.4973 13.125 10.9742 13.3225 11.3258 13.6742C11.6775 14.0258 11.875 14.5027 11.875 15ZM21.875 15C21.875 15.4973 21.6775 15.9742 21.3258 16.3258C20.9742 16.6775 20.4973 16.875 20 16.875C19.5027 16.875 19.0258 16.6775 18.6742 16.3258C18.3225 15.9742 18.125 15.4973 18.125 15C18.125 14.5027 18.3225 14.0258 18.6742 13.6742C19.0258 13.3225 19.5027 13.125 20 13.125C20.4973 13.125 20.9742 13.3225 21.3258 13.6742C21.6775 14.0258 21.875 14.5027 21.875 15ZM14.125 20.2675C14.2481 20.0542 14.328 19.8187 14.3601 19.5745C14.3922 19.3303 14.3759 19.0822 14.3121 18.8443C14.2484 18.6064 14.1383 18.3834 13.9884 18.188C13.8384 17.9927 13.6514 17.8287 13.4381 17.7056C13.2248 17.5825 12.9893 17.5026 12.7451 17.4705C12.5009 17.4384 12.2528 17.4547 12.0149 17.5185C11.777 17.5823 11.554 17.6923 11.3587 17.8422C11.1633 17.9922 10.9994 18.1792 10.8763 18.3925C10.6315 18.8229 10.567 19.3327 10.6967 19.8105C10.8264 20.2883 11.1399 20.6954 11.5687 20.943C11.9975 21.1906 12.5068 21.2585 12.9855 21.1319C13.4642 21.0054 13.8733 20.6946 14.1237 20.2675H14.125ZM19.125 18.3925C19.0019 18.1792 18.838 17.9922 18.6426 17.8422C18.4472 17.6923 18.2242 17.5823 17.9863 17.5185C17.7484 17.4547 17.5003 17.4384 17.2561 17.4705C17.0119 17.5026 16.7764 17.5825 16.5631 17.7056C16.3498 17.8287 16.1628 17.9927 16.0129 18.188C15.8629 18.3834 15.7529 18.6064 15.6891 18.8443C15.6253 19.0822 15.609 19.3303 15.6411 19.5745C15.6732 19.8187 15.7531 20.0542 15.8763 20.2675C16.1267 20.6946 16.5358 21.0054 17.0145 21.1319C17.4932 21.2585 18.0025 21.1906 18.4313 20.943C18.8601 20.6954 19.1736 20.2883 19.3033 19.8105C19.433 19.3327 19.3685 18.8229 19.1237 18.3925H19.125ZM11.5625 9.04625C11.7758 8.92119 12.0118 8.83956 12.2568 8.80607C12.5018 8.77257 12.751 8.78786 12.99 8.85107C13.2291 8.91427 13.4533 9.02414 13.6497 9.17434C13.8461 9.32454 14.0109 9.51212 14.1346 9.72626C14.2582 9.94041 14.3383 10.1769 14.3701 10.4221C14.402 10.6673 14.3851 10.9164 14.3203 11.155C14.2555 11.3937 14.1441 11.6171 13.9926 11.8126C13.8411 12.008 13.6525 12.1715 13.4375 12.2938C13.0071 12.5385 12.4973 12.603 12.0195 12.4733C11.5417 12.3436 11.1346 12.0301 10.887 11.6013C10.6394 11.1725 10.5715 10.6632 10.6981 10.1845C10.8246 9.70585 11.1354 9.29666 11.5625 9.04625ZM22.0712 9.69625C21.9559 9.81564 21.818 9.91087 21.6655 9.97638C21.513 10.0419 21.349 10.0764 21.183 10.0778C21.017 10.0793 20.8524 10.0476 20.6988 9.98478C20.5452 9.92193 20.4056 9.82911 20.2883 9.71174C20.1709 9.59438 20.0781 9.45481 20.0152 9.30119C19.9524 9.14757 19.9207 8.98297 19.9222 8.817C19.9236 8.65103 19.9581 8.487 20.0236 8.33449C20.0891 8.18199 20.1844 8.04406 20.3038 7.92875C20.5395 7.70105 20.8553 7.57506 21.183 7.57791C21.5107 7.58076 21.8243 7.71222 22.056 7.94398C22.2878 8.17574 22.4192 8.48925 22.4221 8.817C22.4249 9.14475 22.2989 9.4605 22.0712 9.69625ZM9.69625 22.0713C9.58011 22.1873 9.44225 22.2794 9.29054 22.3421C9.13883 22.4049 8.97624 22.4372 8.81206 22.4371C8.64787 22.4371 8.48531 22.4047 8.33364 22.3418C8.18198 22.2789 8.04418 22.1868 7.92813 22.0706C7.81207 21.9545 7.72003 21.8166 7.65725 21.6649C7.59447 21.5132 7.56219 21.3506 7.56225 21.1864C7.5623 21.0222 7.5947 20.8597 7.65759 20.708C7.72047 20.5564 7.81261 20.4186 7.92875 20.3025C8.1633 20.0681 8.48135 19.9365 8.81294 19.9366C9.14453 19.9367 9.46249 20.0686 9.69688 20.3031C9.93126 20.5377 10.0629 20.8557 10.0628 21.1873C10.0626 21.5189 9.9308 21.8369 9.69625 22.0713ZM22.5 15C22.5 15.3315 22.6317 15.6495 22.8661 15.8839C23.1005 16.1183 23.4185 16.25 23.75 16.25C24.0815 16.25 24.3995 16.1183 24.6339 15.8839C24.8683 15.6495 25 15.3315 25 15C25 14.6685 24.8683 14.3505 24.6339 14.1161C24.3995 13.8817 24.0815 13.75 23.75 13.75C23.4185 13.75 23.1005 13.8817 22.8661 14.1161C22.6317 14.3505 22.5 14.6685 22.5 15ZM5 15C5 15.3315 5.1317 15.6495 5.36612 15.8839C5.60054 16.1183 5.91848 16.25 6.25 16.25C6.58152 16.25 6.89946 16.1183 7.13388 15.8839C7.3683 15.6495 7.5 15.3315 7.5 15C7.5 14.6685 7.3683 14.3505 7.13388 14.1161C6.89946 13.8817 6.58152 13.75 6.25 13.75C5.91848 13.75 5.60054 13.8817 5.36612 14.1161C5.1317 14.3505 5 14.6685 5 15ZM20.3038 22.0713C20.1844 21.9559 20.0891 21.818 20.0236 21.6655C19.9581 21.513 19.9236 21.349 19.9222 21.183C19.9207 21.017 19.9524 20.8524 20.0152 20.6988C20.0781 20.5452 20.1709 20.4056 20.2883 20.2883C20.4056 20.1709 20.5452 20.0781 20.6988 20.0152C20.8524 19.9524 21.017 19.9207 21.183 19.9222C21.349 19.9236 21.513 19.9581 21.6655 20.0236C21.818 20.0891 21.9559 20.1844 22.0712 20.3038C22.2989 20.5395 22.4249 20.8553 22.4221 21.183C22.4192 21.5107 22.2878 21.8243 22.056 22.056C21.8243 22.2878 21.5107 22.4192 21.183 22.4221C20.8553 22.4249 20.5395 22.2989 20.3038 22.0713ZM7.92875 9.69625C7.80936 9.58094 7.71413 9.44301 7.64862 9.29051C7.58311 9.138 7.54863 8.97398 7.54719 8.808C7.54574 8.64203 7.57737 8.47743 7.64022 8.32381C7.70307 8.17019 7.79589 8.03062 7.91326 7.91326C8.03062 7.79589 8.17019 7.70307 8.32381 7.64022C8.47743 7.57737 8.64203 7.54575 8.808 7.54719C8.97398 7.54863 9.138 7.58311 9.29051 7.64862C9.44301 7.71413 9.58094 7.80936 9.69625 7.92875C9.92395 8.1645 10.0499 8.48026 10.0471 8.808C10.0442 9.13575 9.91278 9.44926 9.68102 9.68102C9.44926 9.91278 9.13575 10.0442 8.808 10.0471C8.48026 10.0499 8.1645 9.92395 7.92875 9.69625ZM21.4788 5.02875C21.438 5.1004 21.3835 5.16329 21.3184 5.21379C21.2532 5.26429 21.1787 5.30141 21.0992 5.32301C21.0196 5.3446 20.9366 5.35025 20.8549 5.33963C20.7731 5.329 20.6943 5.30232 20.6229 5.2611C20.5515 5.21989 20.489 5.16496 20.4389 5.09949C20.3889 5.03401 20.3523 4.95928 20.3312 4.87959C20.3101 4.7999 20.305 4.71684 20.3162 4.63517C20.3274 4.55351 20.3546 4.47486 20.3962 4.40375C20.4797 4.26137 20.6161 4.15779 20.7757 4.1156C20.9352 4.07342 21.105 4.09606 21.2479 4.17858C21.3909 4.2611 21.4954 4.39681 21.5386 4.55608C21.5818 4.71536 21.5603 4.88528 21.4788 5.02875ZM9.60375 25.5963C9.56301 25.6679 9.5085 25.7308 9.44336 25.7813C9.37822 25.8318 9.30373 25.8689 9.22418 25.8905C9.14464 25.9121 9.06161 25.9178 8.97987 25.9071C8.89813 25.8965 8.8193 25.8698 8.74792 25.8286C8.67654 25.7874 8.61401 25.7325 8.56395 25.667C8.51388 25.6015 8.47726 25.5268 8.45619 25.4471C8.43512 25.3674 8.43002 25.2843 8.44119 25.2027C8.45235 25.121 8.47956 25.0424 8.52125 24.9713C8.60472 24.8289 8.74112 24.7253 8.90068 24.6831C9.06024 24.6409 9.23 24.6636 9.37293 24.7461C9.51586 24.8286 9.62035 24.9643 9.66359 25.1236C9.70684 25.2829 9.68532 25.4528 9.60375 25.5963ZM24.7425 9.375C24.7832 9.44665 24.8377 9.50954 24.9029 9.56004C24.968 9.61054 25.0425 9.64766 25.1221 9.66926C25.2016 9.69085 25.2846 9.6965 25.3664 9.68588C25.4481 9.67525 25.5269 9.64857 25.5983 9.60735C25.6697 9.56614 25.7322 9.51121 25.7823 9.44574C25.8324 9.38026 25.869 9.30553 25.8901 9.22584C25.9111 9.14615 25.9162 9.06309 25.9051 8.98142C25.8939 8.89976 25.8667 8.82111 25.825 8.75C25.7415 8.60762 25.6051 8.50404 25.4456 8.46185C25.286 8.41967 25.1162 8.44231 24.9733 8.52483C24.8304 8.60735 24.7259 8.74306 24.6827 8.90234C24.6394 9.06161 24.6609 9.23153 24.7425 9.375ZM4.175 21.25C4.21574 21.3217 4.27025 21.3845 4.33539 21.435C4.40053 21.4855 4.47502 21.5227 4.55457 21.5443C4.63411 21.5659 4.71714 21.5715 4.79888 21.5609C4.88062 21.5503 4.95945 21.5236 5.03083 21.4824C5.10221 21.4411 5.16474 21.3862 5.2148 21.3207C5.26487 21.2553 5.30149 21.1805 5.32256 21.1008C5.34363 21.0212 5.34873 20.9381 5.33756 20.8564C5.3264 20.7748 5.29919 20.6961 5.2575 20.625C5.17403 20.4826 5.03763 20.379 4.87807 20.3369C4.71851 20.2947 4.54875 20.3173 4.40582 20.3998C4.26289 20.4824 4.1584 20.6181 4.11516 20.7773C4.07191 20.9366 4.09343 21.1065 4.175 21.25ZM26.875 15.625C26.7092 15.625 26.5503 15.5592 26.4331 15.4419C26.3158 15.3247 26.25 15.1658 26.25 15C26.25 14.8342 26.3158 14.6753 26.4331 14.5581C26.5503 14.4408 26.7092 14.375 26.875 14.375C27.0408 14.375 27.1997 14.4408 27.3169 14.5581C27.4342 14.6753 27.5 14.8342 27.5 15C27.5 15.1658 27.4342 15.3247 27.3169 15.4419C27.1997 15.5592 27.0408 15.625 26.875 15.625ZM3.125 15.625C2.95924 15.625 2.80027 15.5592 2.68306 15.4419C2.56585 15.3247 2.5 15.1658 2.5 15C2.5 14.8342 2.56585 14.6753 2.68306 14.5581C2.80027 14.4408 2.95924 14.375 3.125 14.375C3.29076 14.375 3.44973 14.4408 3.56694 14.5581C3.68415 14.6753 3.75 14.8342 3.75 15C3.75 15.1658 3.68415 15.3247 3.56694 15.4419C3.44973 15.5592 3.29076 15.625 3.125 15.625ZM24.7425 20.625C24.7008 20.6961 24.6736 20.7748 24.6624 20.8564C24.6513 20.9381 24.6564 21.0212 24.6774 21.1008C24.6985 21.1805 24.7351 21.2553 24.7852 21.3207C24.8353 21.3862 24.8978 21.4411 24.9692 21.4824C25.0406 21.5236 25.1194 21.5503 25.2011 21.5609C25.2829 21.5715 25.3659 21.5659 25.4454 21.5443C25.525 21.5227 25.5995 21.4855 25.6646 21.435C25.7298 21.3845 25.7843 21.3217 25.825 21.25C25.9066 21.1065 25.9281 20.9366 25.8848 20.7773C25.8416 20.6181 25.7371 20.4824 25.5942 20.3998C25.4513 20.3173 25.2815 20.2947 25.1219 20.3369C24.9624 20.379 24.826 20.4826 24.7425 20.625ZM4.175 8.75C4.13331 8.82111 4.1061 8.89976 4.09494 8.98142C4.08377 9.06309 4.08887 9.14615 4.10994 9.22584C4.13101 9.30553 4.16763 9.38026 4.2177 9.44574C4.26776 9.51121 4.33029 9.56614 4.40167 9.60735C4.47305 9.64857 4.55188 9.67525 4.63362 9.68588C4.71536 9.6965 4.79839 9.69085 4.87793 9.66926C4.95748 9.64766 5.03197 9.61054 5.09711 9.56004C5.16225 9.50954 5.21676 9.44665 5.2575 9.375C5.33907 9.23153 5.36059 9.06161 5.31734 8.90234C5.2741 8.74306 5.16961 8.60735 5.02668 8.52483C4.88375 8.44231 4.71399 8.41967 4.55443 8.46185C4.39487 8.50404 4.25847 8.60762 4.175 8.75ZM20.3962 25.5963C20.3546 25.5251 20.3274 25.4465 20.3162 25.3648C20.305 25.2832 20.3101 25.2001 20.3312 25.1204C20.3523 25.0407 20.3889 24.966 20.4389 24.9005C20.489 24.835 20.5515 24.7801 20.6229 24.7389C20.6943 24.6977 20.7731 24.671 20.8549 24.6604C20.9366 24.6498 21.0196 24.6554 21.0992 24.677C21.1787 24.6986 21.2532 24.7357 21.3184 24.7862C21.3835 24.8367 21.438 24.8996 21.4788 24.9713C21.5603 25.1147 21.5818 25.2846 21.5386 25.4439C21.4954 25.6032 21.3909 25.7389 21.2479 25.8214C21.105 25.9039 20.9352 25.9266 20.7757 25.8844C20.6161 25.8422 20.4797 25.7386 20.3962 25.5963ZM8.52125 5.02875C8.47956 4.95764 8.45235 4.87899 8.44119 4.79733C8.43002 4.71566 8.43512 4.6326 8.45619 4.55291C8.47726 4.47322 8.51388 4.39849 8.56395 4.33301C8.61401 4.26754 8.67654 4.21261 8.74792 4.1714C8.8193 4.13018 8.89813 4.1035 8.97987 4.09287C9.06161 4.08225 9.14464 4.0879 9.22418 4.10949C9.30373 4.13109 9.37822 4.16821 9.44336 4.21871C9.5085 4.26921 9.56301 4.3321 9.60375 4.40375C9.68532 4.54722 9.70684 4.71714 9.66359 4.87642C9.62035 5.03569 9.51586 5.1714 9.37293 5.25392C9.23 5.33644 9.06024 5.35908 8.90068 5.3169C8.74112 5.27471 8.60472 5.17113 8.52125 5.02875Z" fill="#FF5E1F"/>
<ellipse cx="15" cy="15" rx="1.875" ry="1.875" fill="#FF5E1F"/>
</g>
<path d="M40.0317 23.0174C39.0589 23.0174 38.1691 22.7742 37.3624 22.2878C36.5557 21.7895 35.9091 21.1251 35.4227 20.2947C34.9482 19.4643 34.7109 18.5448 34.7109 17.5365C34.7109 16.5281 34.9482 15.6087 35.4227 14.7782C35.9091 13.9478 36.5557 13.2894 37.3624 12.803C38.1691 12.3047 39.0589 12.0556 40.0317 12.0556C40.7672 12.0556 41.4553 12.192 42.0959 12.4648C42.7484 12.7377 43.3119 13.1173 43.7865 13.6037V12.1979H45.566V22.875H43.7865V21.4692C43.3119 21.9437 42.7484 22.3234 42.0959 22.6081C41.4553 22.8809 40.7672 23.0174 40.0317 23.0174ZM40.2808 21.2734C40.957 21.2734 41.568 21.1073 42.1137 20.7752C42.6713 20.4311 43.1102 19.9803 43.4306 19.4227C43.7627 18.8533 43.9288 18.2245 43.9288 17.5365C43.9288 16.8484 43.7627 16.2255 43.4306 15.668C43.1102 15.0985 42.6713 14.6477 42.1137 14.3155C41.568 13.9715 40.957 13.7995 40.2808 13.7995C39.6046 13.7995 38.9877 13.9715 38.4301 14.3155C37.8844 14.6477 37.4455 15.0985 37.1133 15.668C36.793 16.2255 36.6328 16.8484 36.6328 17.5365C36.6328 18.2245 36.793 18.8533 37.1133 19.4227C37.4455 19.9803 37.8844 20.4311 38.4301 20.7752C38.9877 21.1073 39.6046 21.2734 40.2808 21.2734ZM47.6903 22.875V12.1979H49.4698V13.7283C49.8613 13.147 50.3536 12.714 50.9468 12.4293C51.5518 12.1327 52.1865 11.9844 52.8509 11.9844C53.5745 11.9844 54.2389 12.1564 54.8439 12.5004C55.4489 12.8326 55.9354 13.3012 56.3031 13.9062C56.7183 13.2656 57.2522 12.7852 57.9047 12.4648C58.569 12.1445 59.269 11.9844 60.0045 11.9844C60.8112 11.9844 61.5468 12.1742 62.2111 12.5538C62.8873 12.9334 63.4212 13.4673 63.8127 14.1554C64.216 14.8316 64.4177 15.6324 64.4177 16.5577V22.875H62.4958V16.7891C62.4958 15.8163 62.217 15.0807 61.6595 14.5825C61.1137 14.0723 60.479 13.8173 59.7554 13.8173C59.3046 13.8173 58.8656 13.9181 58.4385 14.1198C58.0233 14.3215 57.6793 14.6359 57.4064 15.0629C57.1454 15.49 57.0149 16.0476 57.0149 16.7357V22.875H55.093V16.7891C55.093 16.1128 54.9566 15.5553 54.6838 15.1163C54.4228 14.6774 54.0787 14.3511 53.6516 14.1376C53.2364 13.9122 52.8034 13.7995 52.3526 13.7995C51.9136 13.7995 51.4806 13.9003 51.0535 14.102C50.6383 14.3037 50.2943 14.6181 50.0214 15.0451C49.7486 15.4722 49.6121 16.0357 49.6121 16.7357V22.875H47.6903ZM71.8627 23.0174C71.1272 23.0174 70.4391 22.8809 69.7985 22.6081C69.1579 22.3234 68.5944 21.9437 68.108 21.4692V22.875H66.3285V5.79166H68.2503V13.4614C68.7249 13.0224 69.2706 12.6784 69.8875 12.4293C70.5044 12.1801 71.1628 12.0556 71.8627 12.0556C72.8474 12.0556 73.7372 12.3047 74.532 12.803C75.3387 13.2894 75.9794 13.9478 76.4539 14.7782C76.9403 15.6087 77.1835 16.5281 77.1835 17.5365C77.1835 18.5448 76.9403 19.4643 76.4539 20.2947C75.9794 21.1251 75.3387 21.7895 74.532 22.2878C73.7372 22.7742 72.8474 23.0174 71.8627 23.0174ZM71.6136 21.2734C72.2898 21.2734 72.9008 21.1073 73.4465 20.7752C74.0041 20.4311 74.443 19.9803 74.7633 19.4227C75.0955 18.8533 75.2616 18.2245 75.2616 17.5365C75.2616 16.8484 75.0955 16.2255 74.7633 15.668C74.443 15.0985 74.0041 14.6477 73.4465 14.3155C72.9008 13.9715 72.2898 13.7995 71.6136 13.7995C70.9374 13.7995 70.3205 13.9715 69.7629 14.3155C69.2172 14.6477 68.7783 15.0985 68.4461 15.668C68.1258 16.2255 67.9656 16.8484 67.9656 17.5365C67.9656 18.2245 68.1258 18.8533 68.4461 19.4227C68.7783 19.9803 69.2172 20.4311 69.7629 20.7752C70.3205 21.1073 70.9374 21.2734 71.6136 21.2734ZM78.5604 22.875V12.1979H80.4823V22.875H78.5604ZM79.5213 10.276C79.1654 10.276 78.8629 10.1515 78.6138 9.90234C78.3646 9.65321 78.2401 9.35069 78.2401 8.99479C78.2401 8.62702 78.3646 8.32451 78.6138 8.08724C78.8629 7.83811 79.1654 7.71354 79.5213 7.71354C79.8891 7.71354 80.1916 7.83811 80.4289 8.08724C80.678 8.32451 80.8026 8.62702 80.8026 8.99479C80.8026 9.35069 80.678 9.65321 80.4289 9.90234C80.1916 10.1515 79.8891 10.276 79.5213 10.276ZM87.6987 23.0885C86.5836 23.0885 85.5811 22.8394 84.6914 22.3411C83.8135 21.8429 83.1195 21.1667 82.6093 20.3125C82.1111 19.4465 81.8619 18.4855 81.8619 17.4297C81.8619 16.4213 82.1051 15.5078 82.5915 14.6892C83.0779 13.8588 83.7304 13.2004 84.549 12.714C85.3794 12.2276 86.2929 11.9844 87.2895 11.9844C88.2741 11.9844 89.1757 12.2216 89.9943 12.6962C90.8129 13.1589 91.4654 13.7876 91.9518 14.5825C92.4382 15.3773 92.6814 16.2789 92.6814 17.2873V18.0703H85.7057C85.3972 18.0703 85.0829 18.0584 84.7626 18.0347C84.4422 18.011 84.1279 17.9754 83.8194 17.928C83.9499 18.877 84.377 19.6719 85.1007 20.3125C85.8362 20.9531 86.7082 21.2734 87.7165 21.2734C88.3928 21.2734 89.0215 21.1192 89.6028 20.8108C90.1841 20.5023 90.6527 20.093 91.0086 19.5829L91.5425 21.7717C91.0324 22.1869 90.4451 22.5132 89.7808 22.7504C89.1283 22.9758 88.4343 23.0885 87.6987 23.0885ZM83.766 16.6289C84.4066 16.5221 85.0532 16.4687 85.7057 16.4687H89.2469C89.5079 16.4687 89.763 16.4806 90.0121 16.5043C90.2731 16.5162 90.5341 16.534 90.7951 16.5577C90.629 15.7273 90.2138 15.0451 89.5494 14.5113C88.8851 13.9656 88.1318 13.6927 87.2895 13.6927C86.4234 13.6927 85.6642 13.9834 85.0117 14.5647C84.3592 15.1341 83.944 15.8222 83.766 16.6289ZM93.9654 22.875V12.1979H95.7449V13.924C96.1364 13.2953 96.6406 12.8148 97.2575 12.4826C97.8863 12.1505 98.5625 11.9844 99.2862 11.9844C100.045 11.9844 100.745 12.1742 101.386 12.5538C102.038 12.9216 102.566 13.4614 102.97 14.1732C103.373 14.8731 103.575 15.7273 103.575 16.7357V22.875H101.653V17.0026C101.653 16.1603 101.398 15.4188 100.888 14.7782C100.389 14.1257 99.6836 13.7995 98.7701 13.7995C98.0227 13.7995 97.3524 14.0723 96.7593 14.6181C96.1779 15.1519 95.8873 15.929 95.8873 16.9492V22.875H93.9654ZM110.408 23.0885C109.364 23.0885 108.415 22.8394 107.561 22.3411C106.707 21.8429 106.025 21.1726 105.514 20.3303C105.004 19.488 104.749 18.5567 104.749 17.5365C104.749 16.5162 105.004 15.5849 105.514 14.7426C106.025 13.9003 106.707 13.23 107.561 12.7318C108.415 12.2335 109.364 11.9844 110.408 11.9844C111.179 11.9844 111.903 12.1208 112.579 12.3937C113.255 12.6665 113.849 13.0284 114.359 13.4792L113.771 15.8993C113.475 15.3061 113.024 14.8079 112.419 14.4045C111.826 14.0012 111.15 13.7995 110.39 13.7995C109.702 13.7995 109.073 13.9715 108.504 14.3155C107.946 14.6477 107.502 15.0985 107.169 15.668C106.837 16.2255 106.671 16.8484 106.671 17.5365C106.671 18.2127 106.837 18.8355 107.169 19.4049C107.502 19.9744 107.946 20.4311 108.504 20.7752C109.073 21.1073 109.702 21.2734 110.39 21.2734C111.15 21.2734 111.826 21.0777 112.419 20.6862C113.024 20.2947 113.475 19.7905 113.771 19.1736L114.359 21.5937C113.849 22.0446 113.255 22.4064 112.579 22.6793C111.903 22.9521 111.179 23.0885 110.408 23.0885ZM120.516 23.0885C119.401 23.0885 118.398 22.8394 117.508 22.3411C116.63 21.8429 115.936 21.1667 115.426 20.3125C114.928 19.4465 114.679 18.4855 114.679 17.4297C114.679 16.4213 114.922 15.5078 115.409 14.6892C115.895 13.8588 116.547 13.2004 117.366 12.714C118.196 12.2276 119.11 11.9844 120.106 11.9844C121.091 11.9844 121.993 12.2216 122.811 12.6962C123.63 13.1589 124.282 13.7876 124.769 14.5825C125.255 15.3773 125.498 16.2789 125.498 17.2873V18.0703H118.523C118.214 18.0703 117.9 18.0584 117.58 18.0347C117.259 18.011 116.945 17.9754 116.636 17.928C116.767 18.877 117.194 19.6719 117.918 20.3125C118.653 20.9531 119.525 21.2734 120.534 21.2734C121.21 21.2734 121.839 21.1192 122.42 20.8108C123.001 20.5023 123.47 20.093 123.826 19.5829L124.36 21.7717C123.849 22.1869 123.262 22.5132 122.598 22.7504C121.945 22.9758 121.251 23.0885 120.516 23.0885ZM116.583 16.6289C117.224 16.5221 117.87 16.4687 118.523 16.4687H122.064C122.325 16.4687 122.58 16.4806 122.829 16.5043C123.09 16.5162 123.351 16.534 123.612 16.5577C123.446 15.7273 123.031 15.0451 122.366 14.5113C121.702 13.9656 120.949 13.6927 120.106 13.6927C119.24 13.6927 118.481 13.9834 117.829 14.5647C117.176 15.1341 116.761 15.8222 116.583 16.6289ZM127.476 23.0885C127.085 23.0885 126.753 22.958 126.48 22.697C126.219 22.4242 126.088 22.092 126.088 21.7005C126.088 21.309 126.219 20.9828 126.48 20.7218C126.753 20.4489 127.085 20.3125 127.476 20.3125C127.88 20.3125 128.212 20.4489 128.473 20.7218C128.734 20.9828 128.864 21.309 128.864 21.7005C128.864 22.092 128.734 22.4242 128.473 22.697C128.212 22.958 127.88 23.0885 127.476 23.0885Z" fill="#F5F5F5"/>
</g>
<defs>
<clipPath id="clip0_133_207">
<rect width="130" height="30" fill="white"/>
</clipPath>
<clipPath id="clip1_133_207">
<rect width="30" height="30" fill="white"/>
</clipPath>
</defs>
</svg>
