<svg width="120" height="28" viewBox="0 0 120 28" fill="none" xmlns="http://www.w3.org/2000/svg">
<g clip-path="url(#clip0_133_207)">
<g clip-path="url(#clip1_133_207)">
<path d="M13.8471 3.61527C14.0001 3.61527 14.1468 3.55449 14.255 3.44629C14.3632 3.3381 14.424 3.19136 14.424 3.03835C14.424 2.88534 14.3632 2.7386 14.255 2.6304C14.1468 2.52221 14.0001 2.46143 13.8471 2.46143C13.694 2.46143 13.5473 2.52221 13.4391 2.6304C13.3309 2.7386 13.2701 2.88534 13.2701 3.03835C13.2701 3.19136 13.3309 3.3381 13.4391 3.44629C13.5473 3.55449 13.694 3.61527 13.8471 3.61527ZM13.8471 25.5383C14.0001 25.5383 14.1468 25.4776 14.255 25.3694C14.3632 25.2612 14.424 25.1144 14.424 24.9614C14.424 24.8084 14.3632 24.6617 14.255 24.5535C14.1468 24.4453 14.0001 24.3845 13.8471 24.3845C13.694 24.3845 13.5473 24.4453 13.4391 24.5535C13.3309 24.6617 13.2701 24.8084 13.2701 24.9614C13.2701 25.1144 13.3309 25.2612 13.4391 25.3694C13.5473 25.4776 13.694 25.5383 13.8471 25.5383ZM13.8471 7.07681C14.1531 7.07681 14.4466 6.95524 14.6629 6.73886C14.8793 6.52247 15.0009 6.22898 15.0009 5.92296C15.0009 5.61695 14.8793 5.32346 14.6629 5.10707C14.4466 4.89068 14.1531 4.76912 13.8471 4.76912C13.541 4.76912 13.2476 4.89068 13.0312 5.10707C12.8148 5.32346 12.6932 5.61695 12.6932 5.92296C12.6932 6.22898 12.8148 6.52247 13.0312 6.73886C13.2476 6.95524 13.541 7.07681 13.8471 7.07681ZM13.8471 23.2307C14.1531 23.2307 14.4466 23.1091 14.6629 22.8927C14.8793 22.6763 15.0009 22.3828 15.0009 22.0768C15.0009 21.7708 14.8793 21.4773 14.6629 21.2609C14.4466 21.0445 14.1531 20.923 13.8471 20.923C13.541 20.923 13.2476 21.0445 13.0312 21.2609C12.8148 21.4773 12.6932 21.7708 12.6932 22.0768C12.6932 22.3828 12.8148 22.6763 13.0312 22.8927C13.2476 23.1091 13.541 23.2307 13.8471 23.2307ZM17.0201 8.50412C17.2186 8.61693 17.3927 8.76788 17.5326 8.94828C17.6724 9.12867 17.7752 9.33495 17.835 9.55523C17.8948 9.77551 17.9104 10.0054 17.881 10.2318C17.8516 10.4581 17.7777 10.6764 17.6636 10.8741C17.5494 11.0718 17.3973 11.2449 17.216 11.3836C17.0347 11.5222 16.8277 11.6236 16.6071 11.682C16.3864 11.7403 16.1564 11.7544 15.9302 11.7235C15.7041 11.6926 15.4863 11.6172 15.2894 11.5018C14.8951 11.2707 14.6082 10.8929 14.4914 10.4511C14.3746 10.0092 14.4373 9.53911 14.6658 9.1433C14.8943 8.7475 15.2701 8.45815 15.7112 8.3384C16.1523 8.21865 16.6228 8.27822 17.0201 8.50412ZM10.9624 13.9999C10.9624 14.4589 10.7801 14.8991 10.4555 15.2237C10.1309 15.5483 9.6907 15.7307 9.23167 15.7307C8.77264 15.7307 8.33241 15.5483 8.00783 15.2237C7.68325 14.8991 7.5009 14.4589 7.5009 13.9999C7.5009 13.5409 7.68325 13.1006 8.00783 12.776C8.33241 12.4515 8.77264 12.2691 9.23167 12.2691C9.6907 12.2691 10.1309 12.4515 10.4555 12.776C10.7801 13.1006 10.9624 13.5409 10.9624 13.9999ZM20.1932 13.9999C20.1932 14.4589 20.0109 14.8991 19.6863 15.2237C19.3617 15.5483 18.9215 15.7307 18.4624 15.7307C18.0034 15.7307 17.5632 15.5483 17.2386 15.2237C16.914 14.8991 16.7317 14.4589 16.7317 13.9999C16.7317 13.5409 16.914 13.1006 17.2386 12.776C17.5632 12.4515 18.0034 12.2691 18.4624 12.2691C18.9215 12.2691 19.3617 12.4515 19.6863 12.776C20.0109 13.1006 20.1932 13.5409 20.1932 13.9999ZM13.0394 18.8622C13.153 18.6653 13.2268 18.4479 13.2564 18.2225C13.286 17.9971 13.271 17.7681 13.2121 17.5485C13.1532 17.3289 13.0517 17.123 12.9133 16.9427C12.7748 16.7623 12.6022 16.611 12.4053 16.4974C12.2084 16.3837 11.9911 16.31 11.7656 16.2804C11.5402 16.2507 11.3112 16.2658 11.0916 16.3246C10.872 16.3835 10.6662 16.4851 10.4858 16.6235C10.3055 16.7619 10.1542 16.9345 10.0405 17.1314C9.81462 17.5287 9.75505 17.9993 9.8748 18.4403C9.99455 18.8814 10.2839 19.2572 10.6797 19.4857C11.0755 19.7143 11.5456 19.777 11.9875 19.6601C12.4293 19.5433 12.8071 19.2565 13.0382 18.8622H13.0394ZM17.6547 17.1314C17.5411 16.9345 17.3898 16.7619 17.2094 16.6235C17.0291 16.4851 16.8233 16.3835 16.6037 16.3246C16.3841 16.2658 16.155 16.2507 15.9296 16.2804C15.7042 16.31 15.4868 16.3837 15.2899 16.4974C15.093 16.611 14.9204 16.7623 14.782 16.9427C14.6436 17.123 14.542 17.3289 14.4832 17.5485C14.4243 17.7681 14.4092 17.9971 14.4389 18.2225C14.4685 18.4479 14.5423 18.6653 14.6559 18.8622C14.887 19.2565 15.2648 19.5433 15.7066 19.6601C16.1485 19.777 16.6186 19.7143 17.0144 19.4857C17.4102 19.2572 17.6996 18.8814 17.8193 18.4403C17.9391 17.9993 17.8795 17.5287 17.6536 17.1314H17.6547ZM10.674 8.50412C10.8709 8.38868 11.0887 8.31333 11.3148 8.28241C11.541 8.25149 11.771 8.2656 11.9917 8.32395C12.2124 8.38229 12.4193 8.4837 12.6006 8.62235C12.782 8.761 12.9341 8.93415 13.0482 9.13182C13.1623 9.32949 13.2362 9.54779 13.2656 9.77414C13.2951 10.0005 13.2794 10.2304 13.2196 10.4507C13.1598 10.671 13.057 10.8773 12.9172 11.0576C12.7773 11.238 12.6032 11.389 12.4047 11.5018C12.0074 11.7277 11.5369 11.7873 11.0958 11.6675C10.6548 11.5478 10.279 11.2584 10.0504 10.8626C9.8219 10.4668 9.75921 9.99669 9.87603 9.55484C9.99285 9.11298 10.2797 8.73526 10.674 8.50412ZM20.3744 9.10412C20.2679 9.21432 20.1406 9.30222 19.9998 9.3627C19.8591 9.42317 19.7076 9.455 19.5544 9.45633C19.4012 9.45766 19.2493 9.42847 19.1075 9.37045C18.9657 9.31243 18.8369 9.22676 18.7285 9.11842C18.6202 9.01008 18.5345 8.88125 18.4765 8.73945C18.4185 8.59765 18.3893 8.44571 18.3906 8.2925C18.3919 8.13929 18.4238 7.98789 18.4842 7.84711C18.5447 7.70634 18.6326 7.57902 18.7428 7.47258C18.9604 7.2624 19.2519 7.1461 19.5544 7.14872C19.857 7.15135 20.1464 7.2727 20.3603 7.48663C20.5742 7.70057 20.6956 7.98997 20.6982 8.2925C20.7008 8.59504 20.5845 8.8865 20.3744 9.10412ZM8.95129 20.5272C8.84408 20.6343 8.71683 20.7193 8.57679 20.7772C8.43675 20.8352 8.28666 20.865 8.13511 20.8649C7.98355 20.8649 7.83349 20.835 7.69349 20.7769C7.55349 20.7189 7.4263 20.6338 7.31917 20.5266C7.21204 20.4194 7.12708 20.2922 7.06913 20.1521C7.01118 20.0121 6.98138 19.862 6.98144 19.7104C6.98149 19.5589 7.01139 19.4088 7.06944 19.2688C7.12749 19.1288 7.21254 19.0016 7.31975 18.8945C7.53626 18.6781 7.82984 18.5567 8.13592 18.5568C8.44201 18.5569 8.73551 18.6786 8.95186 18.8951C9.16822 19.1116 9.2897 19.4052 9.2896 19.7113C9.28949 20.0173 9.16779 20.3108 8.95129 20.5272ZM20.7701 13.9999C20.7701 14.3059 20.8917 14.5994 21.1081 14.8158C21.3245 15.0322 21.618 15.1537 21.924 15.1537C22.23 15.1537 22.5235 15.0322 22.7399 14.8158C22.9563 14.5994 23.0778 14.3059 23.0778 13.9999C23.0778 13.6939 22.9563 13.4004 22.7399 13.184C22.5235 12.9676 22.23 12.846 21.924 12.846C21.618 12.846 21.3245 12.9676 21.1081 13.184C20.8917 13.4004 20.7701 13.6939 20.7701 13.9999ZM4.61629 13.9999C4.61629 14.3059 4.73785 14.5994 4.95424 14.8158C5.17063 15.0322 5.46411 15.1537 5.77013 15.1537C6.07615 15.1537 6.36964 15.0322 6.58602 14.8158C6.80241 14.5994 6.92398 14.3059 6.92398 13.9999C6.92398 13.6939 6.80241 13.4004 6.58602 13.184C6.36964 12.9676 6.07615 12.846 5.77013 12.846C5.46411 12.846 5.17063 12.9676 4.95424 13.184C4.73785 13.4004 4.61629 13.6939 4.61629 13.9999ZM18.7428 20.5272C18.6326 20.4208 18.5447 20.2934 18.4842 20.1527C18.4238 20.0119 18.3919 19.8605 18.3906 19.7073C18.3893 19.5541 18.4185 19.4021 18.4765 19.2603C18.5345 19.1185 18.6202 18.9897 18.7285 18.8814C18.8369 18.773 18.9657 18.6873 19.1075 18.6293C19.2493 18.5713 19.4012 18.5421 19.5544 18.5434C19.7076 18.5448 19.8591 18.5766 19.9998 18.6371C20.1406 18.6975 20.2679 18.7855 20.3744 18.8957C20.5845 19.1133 20.7008 19.4047 20.6982 19.7073C20.6956 20.0098 20.5742 20.2992 20.3603 20.5131C20.1464 20.7271 19.857 20.8484 19.5544 20.851C19.2519 20.8537 18.9604 20.7374 18.7428 20.5272ZM7.31975 9.10412C7.20954 8.99768 7.12164 8.87036 7.06117 8.72958C7.0007 8.58881 6.96887 8.4374 6.96754 8.2842C6.9662 8.13099 6.9954 7.97905 7.05341 7.83725C7.11143 7.69544 7.19711 7.56662 7.30545 7.45828C7.41378 7.34994 7.54261 7.26426 7.68442 7.20625C7.82622 7.14823 7.97816 7.11904 8.13136 7.12037C8.28457 7.1217 8.43598 7.15353 8.57675 7.214C8.71753 7.27447 8.84485 7.36238 8.95129 7.47258C9.16147 7.6902 9.27777 7.98166 9.27514 8.2842C9.27251 8.58673 9.15116 8.87613 8.93723 9.09006C8.7233 9.304 8.4339 9.42534 8.13136 9.42797C7.82883 9.4306 7.53737 9.3143 7.31975 9.10412ZM19.8274 4.79566C19.7898 4.8618 19.7395 4.91985 19.6794 4.96646C19.6193 5.01308 19.5505 5.04734 19.4771 5.06728C19.4036 5.08721 19.327 5.09243 19.2515 5.08262C19.1761 5.07281 19.1033 5.04818 19.0374 5.01014C18.9716 4.97209 18.9138 4.92139 18.8676 4.86095C18.8214 4.80051 18.7876 4.73153 18.7682 4.65797C18.7487 4.58441 18.744 4.50774 18.7543 4.43235C18.7646 4.35697 18.7897 4.28437 18.8282 4.21873C18.9053 4.08731 19.0312 3.99169 19.1784 3.95275C19.3257 3.91381 19.4824 3.93471 19.6144 4.01088C19.7463 4.08706 19.8428 4.21233 19.8827 4.35935C19.9226 4.50637 19.9027 4.66322 19.8274 4.79566ZM8.8659 23.781C8.8283 23.8472 8.77798 23.9052 8.71785 23.9518C8.65772 23.9985 8.58896 24.0327 8.51553 24.0527C8.44211 24.0726 8.36546 24.0778 8.29001 24.068C8.21456 24.0582 8.1418 24.0336 8.0759 23.9955C8.01001 23.9575 7.9523 23.9068 7.90608 23.8463C7.85987 23.7859 7.82606 23.7169 7.80661 23.6434C7.78717 23.5698 7.78246 23.4931 7.79277 23.4177C7.80307 23.3424 7.82819 23.2698 7.86667 23.2041C7.94372 23.0727 8.06962 22.9771 8.21691 22.9381C8.3642 22.8992 8.52091 22.9201 8.65284 22.9963C8.78478 23.0724 8.88123 23.1977 8.92114 23.3447C8.96106 23.4918 8.9412 23.6486 8.8659 23.781ZM22.8401 8.80758C22.8777 8.87372 22.9281 8.93177 22.9882 8.97839C23.0483 9.025 23.1171 9.05927 23.1905 9.0792C23.2639 9.09914 23.3406 9.10435 23.416 9.09454C23.4915 9.08474 23.5642 9.0601 23.6301 9.02206C23.696 8.98402 23.7537 8.93331 23.8 8.87288C23.8462 8.81244 23.88 8.74345 23.8994 8.66989C23.9189 8.59634 23.9236 8.51966 23.9133 8.44428C23.903 8.36889 23.8778 8.29629 23.8394 8.23066C23.7623 8.09923 23.6364 8.00361 23.4891 7.96467C23.3418 7.92573 23.1851 7.94663 23.0532 8.02281C22.9213 8.09898 22.8248 8.22425 22.7849 8.37127C22.745 8.5183 22.7648 8.67514 22.8401 8.80758ZM3.85475 19.7691C3.89235 19.8353 3.94267 19.8933 4.0028 19.9399C4.06293 19.9865 4.13169 20.0208 4.20512 20.0407C4.27854 20.0607 4.35519 20.0659 4.43064 20.0561C4.50609 20.0463 4.57885 20.0216 4.64474 19.9836C4.71064 19.9456 4.76835 19.8949 4.81457 19.8344C4.86078 19.774 4.89459 19.705 4.91404 19.6314C4.93348 19.5579 4.93819 19.4812 4.92788 19.4058C4.91757 19.3304 4.89246 19.2578 4.85398 19.1922C4.77693 19.0608 4.65102 18.9652 4.50374 18.9262C4.35645 18.8873 4.19974 18.9082 4.06781 18.9843C3.93587 19.0605 3.83942 19.1858 3.79951 19.3328C3.75959 19.4798 3.77945 19.6367 3.85475 19.7691ZM24.8086 14.5768C24.6556 14.5768 24.5088 14.516 24.4006 14.4078C24.2925 14.2996 24.2317 14.1529 24.2317 13.9999C24.2317 13.8469 24.2925 13.7001 24.4006 13.5919C24.5088 13.4837 24.6556 13.423 24.8086 13.423C24.9616 13.423 25.1083 13.4837 25.2165 13.5919C25.3247 13.7001 25.3855 13.8469 25.3855 13.9999C25.3855 14.1529 25.3247 14.2996 25.2165 14.4078C25.1083 14.516 24.9616 14.5768 24.8086 14.5768ZM2.88552 14.5768C2.73251 14.5768 2.58576 14.516 2.47757 14.4078C2.36938 14.2996 2.30859 14.1529 2.30859 13.9999C2.30859 13.8469 2.36938 13.7001 2.47757 13.5919C2.58576 13.4837 2.73251 13.423 2.88552 13.423C3.03853 13.423 3.18527 13.4837 3.29346 13.5919C3.40166 13.7001 3.46244 13.8469 3.46244 13.9999C3.46244 14.1529 3.40166 14.2996 3.29346 14.4078C3.18527 14.516 3.03853 14.5768 2.88552 14.5768ZM22.8401 19.1922C22.8017 19.2578 22.7765 19.3304 22.7662 19.4058C22.7559 19.4812 22.7606 19.5579 22.7801 19.6314C22.7995 19.705 22.8333 19.774 22.8795 19.8344C22.9258 19.8949 22.9835 19.9456 23.0494 19.9836C23.1153 20.0216 23.188 20.0463 23.2635 20.0561C23.3389 20.0659 23.4156 20.0607 23.489 20.0407C23.5624 20.0208 23.6312 19.9865 23.6913 19.9399C23.7514 19.8933 23.8018 19.8353 23.8394 19.7691C23.9147 19.6367 23.9345 19.4798 23.8946 19.3328C23.8547 19.1858 23.7582 19.0605 23.6263 18.9843C23.4944 18.9082 23.3377 18.8873 23.1904 18.9262C23.0431 18.9652 22.9172 19.0608 22.8401 19.1922ZM3.85475 8.23066C3.81627 8.29629 3.79115 8.36889 3.78084 8.44428C3.77054 8.51966 3.77524 8.59634 3.79469 8.66989C3.81414 8.74345 3.84794 8.81244 3.89416 8.87288C3.94038 8.93331 3.99809 8.98402 4.06398 9.02206C4.12987 9.0601 4.20264 9.08474 4.27809 9.09454C4.35354 9.10435 4.43018 9.09914 4.50361 9.0792C4.57704 9.05927 4.64579 9.025 4.70593 8.97839C4.76606 8.93177 4.81637 8.87372 4.85398 8.80758C4.92928 8.67514 4.94913 8.5183 4.90922 8.37127C4.8693 8.22425 4.77285 8.09898 4.64092 8.02281C4.50898 7.94663 4.35227 7.92573 4.20499 7.96467C4.0577 8.00361 3.9318 8.09923 3.85475 8.23066ZM18.8282 23.781C18.7897 23.7154 18.7646 23.6428 18.7543 23.5674C18.744 23.492 18.7487 23.4154 18.7682 23.3418C18.7876 23.2682 18.8214 23.1993 18.8676 23.1388C18.9138 23.0784 18.9716 23.0277 19.0374 22.9896C19.1033 22.9516 19.1761 22.927 19.2515 22.9172C19.327 22.9073 19.4036 22.9126 19.4771 22.9325C19.5505 22.9524 19.6193 22.9867 19.6794 23.0333C19.7395 23.0799 19.7898 23.138 19.8274 23.2041C19.9027 23.3366 19.9226 23.4934 19.8827 23.6404C19.8428 23.7874 19.7463 23.9127 19.6144 23.9889C19.4824 24.0651 19.3257 24.086 19.1784 24.047C19.0312 24.0081 18.9053 23.9125 18.8282 23.781ZM7.86667 4.79566C7.82819 4.73002 7.80307 4.65742 7.79277 4.58204C7.78246 4.50665 7.78717 4.42998 7.80661 4.35642C7.82606 4.28286 7.85987 4.21388 7.90608 4.15344C7.9523 4.093 8.01001 4.0423 8.0759 4.00425C8.1418 3.96621 8.21456 3.94158 8.29001 3.93177C8.36546 3.92196 8.44211 3.92718 8.51553 3.94711C8.58896 3.96705 8.65772 4.00131 8.71785 4.04793C8.77798 4.09454 8.8283 4.15259 8.8659 4.21873C8.9412 4.35117 8.96106 4.50802 8.92114 4.65504C8.88123 4.80206 8.78478 4.92733 8.65284 5.00351C8.52091 5.07968 8.3642 5.10058 8.21691 5.06164C8.06962 5.0227 7.94372 4.92708 7.86667 4.79566Z" fill="#FF5E1F"/>
<circle cx="13.846" cy="14.0001" r="1.73077" fill="#FF5E1F"/>
</g>
<path d="M36.9528 21.6314C36.0548 21.6314 35.2335 21.4069 34.4888 20.9579C33.7442 20.498 33.1474 19.8847 32.6984 19.1182C32.2603 18.3516 32.0413 17.5029 32.0413 16.5721C32.0413 15.6413 32.2603 14.7926 32.6984 14.026C33.1474 13.2595 33.7442 12.6517 34.4888 12.2027C35.2335 11.7428 36.0548 11.5128 36.9528 11.5128C37.6317 11.5128 38.2669 11.6388 38.8582 11.8906C39.4605 12.1425 39.9807 12.4929 40.4187 12.9419V11.6442H42.0613V21.5H40.4187V20.2023C39.9807 20.6404 39.4605 20.9908 38.8582 21.2536C38.2669 21.5055 37.6317 21.6314 36.9528 21.6314ZM37.1827 20.0216C37.8069 20.0216 38.3709 19.8683 38.8746 19.5617C39.3893 19.2441 39.7945 18.828 40.0902 18.3133C40.3968 17.7877 40.5501 17.2073 40.5501 16.5721C40.5501 15.937 40.3968 15.362 40.0902 14.8474C39.7945 14.3217 39.3893 13.9056 38.8746 13.599C38.3709 13.2814 37.8069 13.1226 37.1827 13.1226C36.5585 13.1226 35.9891 13.2814 35.4744 13.599C34.9707 13.9056 34.5655 14.3217 34.2589 14.8474C33.9632 15.362 33.8154 15.937 33.8154 16.5721C33.8154 17.2073 33.9632 17.7877 34.2589 18.3133C34.5655 18.828 34.9707 19.2441 35.4744 19.5617C35.9891 19.8683 36.5585 20.0216 37.1827 20.0216ZM44.0222 21.5V11.6442H45.6649V13.0569C46.0262 12.5203 46.4807 12.1206 47.0282 11.8578C47.5867 11.584 48.1726 11.4471 48.7859 11.4471C49.4539 11.4471 50.0671 11.6059 50.6256 11.9235C51.1841 12.2301 51.6331 12.6627 51.9726 13.2212C52.3558 12.6298 52.8486 12.1863 53.4509 11.8906C54.0642 11.595 54.7103 11.4471 55.3892 11.4471C56.1339 11.4471 56.8128 11.6223 57.4261 11.9728C58.0503 12.3232 58.5431 12.816 58.9044 13.4511C59.2768 14.0753 59.4629 14.8145 59.4629 15.6687V21.5H57.6889V15.8822C57.6889 14.9842 57.4316 14.3053 56.9169 13.8454C56.4131 13.3745 55.8273 13.139 55.1593 13.139C54.7431 13.139 54.3379 13.2321 53.9437 13.4183C53.5604 13.6044 53.2429 13.8946 52.991 14.2889C52.7501 14.6831 52.6296 15.1978 52.6296 15.8329V21.5H50.8556V15.8822C50.8556 15.258 50.7296 14.7433 50.4778 14.3381C50.2368 13.933 49.9193 13.6318 49.525 13.4347C49.1418 13.2266 48.7421 13.1226 48.3259 13.1226C47.9207 13.1226 47.521 13.2157 47.1268 13.4018C46.7435 13.588 46.4259 13.8782 46.1741 14.2724C45.9222 14.6667 45.7963 15.1868 45.7963 15.8329V21.5H44.0222ZM66.3353 21.6314C65.6563 21.6314 65.0212 21.5055 64.4298 21.2536C63.8385 20.9908 63.3183 20.6404 62.8693 20.2023V21.5H61.2267V5.73077H63.0008V12.8105C63.4388 12.4053 63.9425 12.0877 64.512 11.8578C65.0814 11.6278 65.6892 11.5128 66.3353 11.5128C67.2442 11.5128 68.0655 11.7428 68.7992 12.2027C69.5439 12.6517 70.1352 13.2595 70.5733 14.026C71.0223 14.7926 71.2467 15.6413 71.2467 16.5721C71.2467 17.5029 71.0223 18.3516 70.5733 19.1182C70.1352 19.8847 69.5439 20.498 68.7992 20.9579C68.0655 21.4069 67.2442 21.6314 66.3353 21.6314ZM66.1053 20.0216C66.7295 20.0216 67.2935 19.8683 67.7972 19.5617C68.3119 19.2441 68.7171 18.828 69.0128 18.3133C69.3194 17.7877 69.4727 17.2073 69.4727 16.5721C69.4727 15.937 69.3194 15.362 69.0128 14.8474C68.7171 14.3217 68.3119 13.9056 67.7972 13.599C67.2935 13.2814 66.7295 13.1226 66.1053 13.1226C65.4811 13.1226 64.9117 13.2814 64.397 13.599C63.8932 13.9056 63.4881 14.3217 63.1814 14.8474C62.8858 15.362 62.7379 15.937 62.7379 16.5721C62.7379 17.2073 62.8858 17.7877 63.1814 18.3133C63.4881 18.828 63.8932 19.2441 64.397 19.5617C64.9117 19.8683 65.4811 20.0216 66.1053 20.0216ZM72.5177 21.5V11.6442H74.2918V21.5H72.5177ZM73.4047 9.87019C73.0762 9.87019 72.797 9.75521 72.567 9.52524C72.337 9.29527 72.2221 9.01602 72.2221 8.6875C72.2221 8.34802 72.337 8.06878 72.567 7.84976C72.797 7.61979 73.0762 7.50481 73.4047 7.50481C73.7442 7.50481 74.0235 7.61979 74.2425 7.84976C74.4725 8.06878 74.5874 8.34802 74.5874 8.6875C74.5874 9.01602 74.4725 9.29527 74.2425 9.52524C74.0235 9.75521 73.7442 9.87019 73.4047 9.87019ZM80.9531 21.6971C79.9238 21.6971 78.9984 21.4671 78.1771 21.0072C77.3667 20.5473 76.7261 19.9231 76.2552 19.1346C75.7953 18.3352 75.5653 17.4482 75.5653 16.4736C75.5653 15.5427 75.7898 14.6995 76.2388 13.9439C76.6878 13.1774 77.2901 12.5696 78.0457 12.1206C78.8122 11.6716 79.6555 11.4471 80.5753 11.4471C81.4843 11.4471 82.3165 11.6661 83.0721 12.1042C83.8277 12.5312 84.43 13.1116 84.879 13.8454C85.328 14.5791 85.5525 15.4113 85.5525 16.3421V17.0649H79.1134C78.8287 17.0649 78.5385 17.054 78.2428 17.0321C77.9471 17.0101 77.6569 16.9773 77.3722 16.9335C77.4927 17.8096 77.8869 18.5433 78.5549 19.1346C79.2339 19.726 80.0387 20.0216 80.9696 20.0216C81.5938 20.0216 82.1742 19.8793 82.7108 19.5946C83.2473 19.3098 83.6799 18.932 84.0084 18.4611L84.5012 20.4816C84.0303 20.8649 83.4883 21.166 82.875 21.385C82.2727 21.5931 81.6321 21.6971 80.9531 21.6971ZM77.3229 15.7344C77.9143 15.6358 78.5111 15.5865 79.1134 15.5865H82.3822C82.6231 15.5865 82.8586 15.5975 83.0886 15.6194C83.3295 15.6303 83.5704 15.6468 83.8113 15.6687C83.658 14.9021 83.2747 14.2724 82.6615 13.7796C82.0482 13.2759 81.3528 13.024 80.5753 13.024C79.7759 13.024 79.0751 13.2923 78.4728 13.8289C77.8705 14.3546 77.4872 14.9897 77.3229 15.7344ZM86.7378 21.5V11.6442H88.3804V13.2376C88.7418 12.6572 89.2072 12.2137 89.7766 11.9071C90.357 11.6004 90.9812 11.4471 91.6492 11.4471C92.3501 11.4471 92.9962 11.6223 93.5875 11.9728C94.1898 12.3122 94.6771 12.8105 95.0495 13.4675C95.4218 14.1136 95.608 14.9021 95.608 15.8329V21.5H93.8339V16.0793C93.8339 15.3018 93.5985 14.6174 93.1276 14.026C92.6676 13.4237 92.0161 13.1226 91.1729 13.1226C90.483 13.1226 89.8642 13.3745 89.3167 13.8782C88.7801 14.371 88.5118 15.0883 88.5118 16.03V21.5H86.7378ZM101.916 21.6971C100.952 21.6971 100.076 21.4671 99.2874 21.0072C98.499 20.5473 97.8693 19.9286 97.3984 19.151C96.9275 18.3735 96.6921 17.5139 96.6921 16.5721C96.6921 15.6303 96.9275 14.7707 97.3984 13.9932C97.8693 13.2157 98.499 12.597 99.2874 12.137C100.076 11.6771 100.952 11.4471 101.916 11.4471C102.627 11.4471 103.295 11.573 103.92 11.8249C104.544 12.0768 105.091 12.4108 105.562 12.8269L105.02 15.0609C104.746 14.5134 104.33 14.0534 103.772 13.6811C103.224 13.3088 102.6 13.1226 101.899 13.1226C101.264 13.1226 100.684 13.2814 100.158 13.599C99.6433 13.9056 99.2327 14.3217 98.9261 14.8474C98.6194 15.362 98.4661 15.937 98.4661 16.5721C98.4661 17.1963 98.6194 17.7712 98.9261 18.2969C99.2327 18.8225 99.6433 19.2441 100.158 19.5617C100.684 19.8683 101.264 20.0216 101.899 20.0216C102.6 20.0216 103.224 19.8409 103.772 19.4796C104.33 19.1182 104.746 18.6528 105.02 18.0833L105.562 20.3173C105.091 20.7334 104.544 21.0674 103.92 21.3193C103.295 21.5712 102.627 21.6971 101.916 21.6971ZM111.246 21.6971C110.216 21.6971 109.291 21.4671 108.47 21.0072C107.659 20.5473 107.019 19.9231 106.548 19.1346C106.088 18.3352 105.858 17.4482 105.858 16.4736C105.858 15.5427 106.082 14.6995 106.531 13.9439C106.98 13.1774 107.583 12.5696 108.338 12.1206C109.105 11.6716 109.948 11.4471 110.868 11.4471C111.777 11.4471 112.609 11.6661 113.365 12.1042C114.12 12.5312 114.723 13.1116 115.172 13.8454C115.621 14.5791 115.845 15.4113 115.845 16.3421V17.0649H109.406C109.121 17.0649 108.831 17.054 108.535 17.0321C108.24 17.0101 107.95 16.9773 107.665 16.9335C107.785 17.8096 108.18 18.5433 108.848 19.1346C109.526 19.726 110.331 20.0216 111.262 20.0216C111.886 20.0216 112.467 19.8793 113.003 19.5946C113.54 19.3098 113.973 18.932 114.301 18.4611L114.794 20.4816C114.323 20.8649 113.781 21.166 113.168 21.385C112.565 21.5931 111.925 21.6971 111.246 21.6971ZM107.616 15.7344C108.207 15.6358 108.804 15.5865 109.406 15.5865H112.675C112.916 15.5865 113.151 15.5975 113.381 15.6194C113.622 15.6303 113.863 15.6468 114.104 15.6687C113.951 14.9021 113.567 14.2724 112.954 13.7796C112.341 13.2759 111.645 13.024 110.868 13.024C110.069 13.024 109.368 13.2923 108.765 13.8289C108.163 14.3546 107.78 14.9897 107.616 15.7344ZM117.671 21.6971C117.31 21.6971 117.003 21.5767 116.751 21.3357C116.51 21.0839 116.39 20.7772 116.39 20.4159C116.39 20.0545 116.51 19.7533 116.751 19.5124C117.003 19.2606 117.31 19.1346 117.671 19.1346C118.043 19.1346 118.35 19.2606 118.591 19.5124C118.832 19.7533 118.952 20.0545 118.952 20.4159C118.952 20.7772 118.832 21.0839 118.591 21.3357C118.35 21.5767 118.043 21.6971 117.671 21.6971Z" fill="#F5F5F5"/>
</g>
<defs>
<clipPath id="clip0_133_207">
<rect width="120" height="27.6923" fill="white" transform="translate(0 0.153809)"/>
</clipPath>
<clipPath id="clip1_133_207">
<rect width="27.6923" height="27.6923" fill="white" transform="translate(0 0.153809)"/>
</clipPath>
</defs>
</svg>
