<svg width="223" height="48" viewBox="0 0 223 48" fill="none" xmlns="http://www.w3.org/2000/svg">
<path d="M22.5021 40.2833C20.566 40.2833 18.7951 39.7993 17.1896 38.8312C15.584 37.8396 14.2972 36.5174 13.3292 34.8646C12.3847 33.2118 11.9125 31.3819 11.9125 29.375C11.9125 27.3681 12.3847 25.5382 13.3292 23.8854C14.2972 22.2326 15.584 20.9222 17.1896 19.9542C18.7951 18.9625 20.566 18.4667 22.5021 18.4667C23.966 18.4667 25.3354 18.7382 26.6104 19.2812C27.909 19.8243 29.0306 20.5799 29.975 21.5479V18.75H33.5167V40H29.975V37.2021C29.0306 38.1465 27.909 38.9021 26.6104 39.4687C25.3354 40.0118 23.966 40.2833 22.5021 40.2833ZM22.9979 36.8125C24.3438 36.8125 25.5597 36.4819 26.6458 35.8208C27.7556 35.1361 28.6292 34.2389 29.2667 33.1292C29.9278 31.9958 30.2583 30.7444 30.2583 29.375C30.2583 28.0056 29.9278 26.766 29.2667 25.6562C28.6292 24.5229 27.7556 23.6257 26.6458 22.9646C25.5597 22.2799 24.3438 21.9375 22.9979 21.9375C21.6521 21.9375 20.4243 22.2799 19.3146 22.9646C18.2285 23.6257 17.3549 24.5229 16.6938 25.6562C16.0563 26.766 15.7375 28.0056 15.7375 29.375C15.7375 30.7444 16.0563 31.9958 16.6938 33.1292C17.3549 34.2389 18.2285 35.1361 19.3146 35.8208C20.4243 36.4819 21.6521 36.8125 22.9979 36.8125ZM40.2945 40V18.75H43.8362V21.7958C44.6154 20.6389 45.5952 19.7771 46.7758 19.2104C47.9799 18.6201 49.2431 18.325 50.5654 18.325C52.0056 18.325 53.3279 18.6674 54.532 19.3521C55.7362 20.0132 56.7043 20.9458 57.4362 22.15C58.2626 20.875 59.3251 19.9187 60.6237 19.2812C61.9459 18.6437 63.339 18.325 64.8029 18.325C66.4084 18.325 67.8723 18.7028 69.1945 19.4583C70.5404 20.2139 71.6029 21.2764 72.382 22.6458C73.1848 23.9917 73.5862 25.5854 73.5862 27.4271V40H69.7612V27.8875C69.7612 25.9514 69.2063 24.4875 68.0966 23.4958C67.0105 22.4806 65.7473 21.9729 64.307 21.9729C63.4098 21.9729 62.5362 22.1736 61.6862 22.575C60.8598 22.9764 60.1751 23.6021 59.632 24.4521C59.1126 25.3021 58.8529 26.4118 58.8529 27.7812V40H55.0279V27.8875C55.0279 26.5417 54.7563 25.4319 54.2133 24.5583C53.6938 23.6847 53.0091 23.0354 52.1591 22.6104C51.3327 22.1618 50.4709 21.9375 49.5737 21.9375C48.7001 21.9375 47.8383 22.1382 46.9883 22.5396C46.1619 22.941 45.4772 23.5667 44.9341 24.4167C44.3911 25.2667 44.1195 26.3882 44.1195 27.7812V40H40.2945ZM90.9536 40.2833C89.4898 40.2833 88.1203 40.0118 86.8453 39.4687C85.5703 38.9021 84.4488 38.1465 83.4807 37.2021V40H79.9391V6H83.7641V21.2646C84.7085 20.391 85.7946 19.7062 87.0224 19.2104C88.2502 18.7146 89.5606 18.4667 90.9536 18.4667C92.9134 18.4667 94.6842 18.9625 96.2661 19.9542C97.8717 20.9222 99.1467 22.2326 100.091 23.8854C101.059 25.5382 101.543 27.3681 101.543 29.375C101.543 31.3819 101.059 33.2118 100.091 34.8646C99.1467 36.5174 97.8717 37.8396 96.2661 38.8312C94.6842 39.7993 92.9134 40.2833 90.9536 40.2833ZM90.4578 36.8125C91.8036 36.8125 93.0196 36.4819 94.1057 35.8208C95.2155 35.1361 96.0891 34.2389 96.7266 33.1292C97.3877 31.9958 97.7182 30.7444 97.7182 29.375C97.7182 28.0056 97.3877 26.766 96.7266 25.6562C96.0891 24.5229 95.2155 23.6257 94.1057 22.9646C93.0196 22.2799 91.8036 21.9375 90.4578 21.9375C89.112 21.9375 87.8842 22.2799 86.7745 22.9646C85.6884 23.6257 84.8148 24.5229 84.1536 25.6562C83.5161 26.766 83.1974 28.0056 83.1974 29.375C83.1974 30.7444 83.5161 31.9958 84.1536 33.1292C84.8148 34.2389 85.6884 35.1361 86.7745 35.8208C87.8842 36.4819 89.112 36.8125 90.4578 36.8125ZM106.834 40V18.75H110.659V40H106.834ZM108.746 14.925C108.038 14.925 107.436 14.6771 106.94 14.1812C106.444 13.6854 106.196 13.0833 106.196 12.375C106.196 11.6431 106.444 11.041 106.94 10.5687C107.436 10.0729 108.038 9.825 108.746 9.825C109.478 9.825 110.08 10.0729 110.552 10.5687C111.048 11.041 111.296 11.6431 111.296 12.375C111.296 13.0833 111.048 13.6854 110.552 14.1812C110.08 14.6771 109.478 14.925 108.746 14.925ZM127.571 40.425C125.352 40.425 123.357 39.9292 121.586 38.9375C119.839 37.9458 118.457 36.6 117.442 34.9C116.45 33.1764 115.954 31.2639 115.954 29.1625C115.954 27.1556 116.439 25.3375 117.407 23.7083C118.375 22.0556 119.673 20.7451 121.302 19.7771C122.955 18.809 124.773 18.325 126.757 18.325C128.716 18.325 130.511 18.7972 132.14 19.7417C133.769 20.6625 135.068 21.9139 136.036 23.4958C137.004 25.0778 137.488 26.8722 137.488 28.8792V30.4375H123.604C122.991 30.4375 122.365 30.4139 121.727 30.3667C121.09 30.3194 120.464 30.2486 119.85 30.1542C120.11 32.0431 120.96 33.625 122.4 34.9C123.864 36.175 125.6 36.8125 127.607 36.8125C128.952 36.8125 130.204 36.5056 131.361 35.8917C132.518 35.2778 133.45 34.4632 134.159 33.4479L135.221 37.8042C134.206 38.6306 133.037 39.2799 131.715 39.7521C130.416 40.2007 129.035 40.425 127.571 40.425ZM119.744 27.5687C121.019 27.3562 122.306 27.25 123.604 27.25H130.652C131.172 27.25 131.679 27.2736 132.175 27.3208C132.695 27.3444 133.214 27.3799 133.734 27.4271C133.403 25.7743 132.577 24.4167 131.254 23.3542C129.932 22.2681 128.433 21.725 126.757 21.725C125.033 21.725 123.522 22.3035 122.223 23.4604C120.925 24.5937 120.098 25.9632 119.744 27.5687ZM142.593 40V18.75H146.135V22.1854C146.914 20.934 147.918 19.9778 149.145 19.3167C150.397 18.6556 151.743 18.325 153.183 18.325C154.694 18.325 156.087 18.7028 157.362 19.4583C158.661 20.1903 159.711 21.2646 160.514 22.6812C161.317 24.0743 161.718 25.7743 161.718 27.7812V40H157.893V28.3125C157.893 26.6361 157.386 25.1604 156.37 23.8854C155.379 22.5868 153.974 21.9375 152.156 21.9375C150.668 21.9375 149.334 22.4806 148.154 23.5667C146.997 24.6292 146.418 26.1757 146.418 28.2062V40H142.593ZM177.868 40.425C175.791 40.425 173.902 39.9292 172.202 38.9375C170.502 37.9458 169.144 36.6118 168.129 34.9354C167.113 33.259 166.606 31.4056 166.606 29.375C166.606 27.3444 167.113 25.491 168.129 23.8146C169.144 22.1382 170.502 20.8042 172.202 19.8125C173.902 18.8208 175.791 18.325 177.868 18.325C179.403 18.325 180.843 18.5965 182.189 19.1396C183.535 19.6826 184.716 20.4028 185.731 21.3L184.562 26.1167C183.972 24.9361 183.075 23.9444 181.87 23.1417C180.69 22.3389 179.344 21.9375 177.833 21.9375C176.463 21.9375 175.212 22.2799 174.079 22.9646C172.969 23.6257 172.084 24.5229 171.423 25.6562C170.761 26.766 170.431 28.0056 170.431 29.375C170.431 30.7208 170.761 31.9604 171.423 33.0937C172.084 34.2271 172.969 35.1361 174.079 35.8208C175.212 36.4819 176.463 36.8125 177.833 36.8125C179.344 36.8125 180.69 36.4229 181.87 35.6437C183.075 34.8646 183.972 33.8611 184.562 32.6333L185.731 37.45C184.716 38.3472 183.535 39.0674 182.189 39.6104C180.843 40.1535 179.403 40.425 177.868 40.425ZM200.535 40.425C198.316 40.425 196.32 39.9292 194.55 38.9375C192.802 37.9458 191.421 36.6 190.406 34.9C189.414 33.1764 188.918 31.2639 188.918 29.1625C188.918 27.1556 189.402 25.3375 190.37 23.7083C191.338 22.0556 192.637 20.7451 194.266 19.7771C195.919 18.809 197.737 18.325 199.72 18.325C201.68 18.325 203.475 18.7972 205.104 19.7417C206.733 20.6625 208.032 21.9139 209 23.4958C209.968 25.0778 210.452 26.8722 210.452 28.8792V30.4375H196.568C195.954 30.4375 195.329 30.4139 194.691 30.3667C194.054 30.3194 193.428 30.2486 192.814 30.1542C193.074 32.0431 193.924 33.625 195.364 34.9C196.828 36.175 198.563 36.8125 200.57 36.8125C201.916 36.8125 203.168 36.5056 204.325 35.8917C205.482 35.2778 206.414 34.4632 207.123 33.4479L208.185 37.8042C207.17 38.6306 206.001 39.2799 204.679 39.7521C203.38 40.2007 201.999 40.425 200.535 40.425ZM192.708 27.5687C193.983 27.3562 195.27 27.25 196.568 27.25H203.616C204.136 27.25 204.643 27.2736 205.139 27.3208C205.659 27.3444 206.178 27.3799 206.698 27.4271C206.367 25.7743 205.541 24.4167 204.218 23.3542C202.896 22.2681 201.397 21.725 199.72 21.725C197.997 21.725 196.486 22.3035 195.187 23.4604C193.888 24.5937 193.062 25.9632 192.708 27.5687Z" fill="#F5F5F5"/>
</svg>
