<svg width="48" height="48" viewBox="0 0 48 48" fill="none" xmlns="http://www.w3.org/2000/svg">
<mask id="mask0_124_581" style="mask-type:alpha" maskUnits="userSpaceOnUse" x="0" y="0" width="48" height="48">
<rect width="48" height="48" fill="#D9D9D9"/>
</mask>
<g mask="url(#mask0_124_581)">
<path d="M26 34.769C27.3283 34.769 28.4553 34.298 29.381 33.356C30.3063 32.4137 30.769 31.295 30.769 30H29.231C29.231 30.8717 28.9203 31.628 28.299 32.269C27.6777 32.9103 26.9157 33.231 26.013 33.231C25.317 33.231 24.6883 33.0213 24.127 32.602C23.5653 32.1827 23.1755 31.659 22.9575 31.031C22.7778 30.5163 22.5688 30.0197 22.3305 29.541C22.0922 29.0623 21.782 28.632 21.4 28.25L18.7 25.55C18.082 24.932 17.6057 24.23 17.271 23.444C16.9363 22.6583 16.769 21.8437 16.769 21C16.769 19.2637 17.3813 17.7912 18.606 16.5825C19.8303 15.3735 21.295 14.769 23 14.769C24.5383 14.769 25.8845 15.248 27.0385 16.206C28.1922 17.1637 28.9023 18.395 29.169 19.9H30.719C30.4857 17.9973 29.6345 16.4102 28.1655 15.1385C26.6965 13.8668 24.9747 13.231 23 13.231C20.842 13.231 19.0077 13.979 17.497 15.475C15.9863 16.971 15.231 18.8122 15.231 20.9985C15.231 22.0635 15.4367 23.0762 15.848 24.0365C16.2597 24.9968 16.8437 25.868 17.6 26.65L20.3 29.3615C20.5923 29.6538 20.8308 29.9757 21.0155 30.327C21.2002 30.6783 21.3592 31.059 21.4925 31.469C21.8115 32.4623 22.3915 33.2607 23.2325 33.864C24.0732 34.4673 24.9957 34.769 26 34.769ZM27 26.769C27.495 26.769 27.9137 26.5907 28.256 26.234C28.598 25.877 28.769 25.4657 28.769 25C28.769 24.505 28.598 24.0863 28.256 23.744C27.9137 23.402 27.4915 23.231 26.9895 23.231C26.5348 23.231 26.128 23.402 25.769 23.744C25.4103 24.0863 25.231 24.5085 25.231 25.0105C25.231 25.4652 25.4093 25.872 25.766 26.231C26.123 26.5897 26.5343 26.769 27 26.769ZM24.0065 42C21.5252 42 19.1953 41.5277 17.017 40.583C14.8387 39.6383 12.9307 38.348 11.293 36.712C9.65533 35.076 8.36383 33.1698 7.4185 30.9935C6.47283 28.8172 6 26.4882 6 24.0065C6 21.5175 6.47233 19.1773 7.417 16.986C8.36167 14.795 9.652 12.889 11.288 11.268C12.924 9.647 14.8302 8.36383 17.0065 7.4185C19.1828 6.47283 21.5118 6 23.9935 6C26.4825 6 28.8227 6.47233 31.014 7.417C33.205 8.36167 35.111 9.64367 36.732 11.263C38.353 12.8823 39.6362 14.7867 40.5815 16.976C41.5272 19.165 42 21.5042 42 23.9935C42 26.4748 41.5277 28.8047 40.583 30.983C39.6383 33.1613 38.3563 35.0693 36.737 36.707C35.1177 38.3447 33.2133 39.6362 31.024 40.5815C28.835 41.5272 26.4958 42 24.0065 42ZM24 40.4615C28.5793 40.4615 32.4678 38.8608 35.6655 35.6595C38.8628 32.4582 40.4615 28.5717 40.4615 24C40.4615 19.4207 38.8628 15.5322 35.6655 12.3345C32.4678 9.13717 28.5793 7.5385 24 7.5385C19.4283 7.5385 15.5418 9.13717 12.3405 12.3345C9.13917 15.5322 7.5385 19.4207 7.5385 24C7.5385 28.5717 9.13917 32.4582 12.3405 35.6595C15.5418 38.8608 19.4283 40.4615 24 40.4615Z" fill="#F5F5F5"/>
</g>
</svg>
